<?xml version="1.0" encoding="iso-8859-1"?>
<!-- Generator: Adobe Illustrator 21.1.0, SVG Export Plug-In . SVG Version: 6.00 Build 0)  -->
<svg version="1.1" xmlns="http://www.w3.org/2000/svg" xmlns:xlink="http://www.w3.org/1999/xlink" x="0px" y="0px"
	 viewBox="0 0 49.996 49.996" style="enable-background:new 0 0 49.996 49.996;" xml:space="preserve">
<g id="AlignTop">
	<path style="fill:#353942;" d="M2.5,0C1.119,0,0,1.119,0,2.5v44.996c0,1.381,1.119,2.5,2.5,2.5h44.996c1.381,0,2.5-1.119,2.5-2.5
		V2.5c0-1.381-1.119-2.5-2.5-2.5H2.5z"/>
	<path style="fill:#5B616B;" d="M37.497,11.498h-25c-0.552,0-1,0.448-1,1s0.448,1,1,1h25c0.552,0,1-0.448,1-1
		S38.049,11.498,37.497,11.498z M22.809,16.623h-4.375c-0.552,0-1,0.448-1,1v19.875c0,0.552,0.448,1,1,1h4.375c0.552,0,1-0.448,1-1
		V17.623C23.809,17.071,23.362,16.623,22.809,16.623z M21.809,36.498h-2.375V18.623h2.375V36.498z M31.559,16.623h-4.375
		c-0.552,0-1,0.448-1,1v14.75c0,0.552,0.448,1,1,1h4.375c0.552,0,1-0.448,1-1v-14.75C32.559,17.071,32.112,16.623,31.559,16.623z
		 M30.559,31.373h-2.375v-12.75h2.375V31.373z"/>
</g>
<g id="Layer_1">
</g>
</svg>
