<?xml version="1.0" encoding="iso-8859-1"?>
<!-- Generator: Adobe Illustrator 21.1.0, SVG Export Plug-In . SVG Version: 6.00 Build 0)  -->
<svg version="1.1" xmlns="http://www.w3.org/2000/svg" xmlns:xlink="http://www.w3.org/1999/xlink" x="0px" y="0px"
	 viewBox="0 0 49.996 49.996" style="enable-background:new 0 0 49.996 49.996;" xml:space="preserve">
<g id="AlignLeft">
	<path style="fill:#353942;" d="M2.5,0C1.119,0,0,1.119,0,2.5v44.996c0,1.381,1.119,2.5,2.5,2.5h44.996c1.381,0,2.5-1.119,2.5-2.5
		V2.5c0-1.381-1.119-2.5-2.5-2.5H2.5z"/>
	<path style="fill:#5B616B;" d="M12.497,11.498c-0.552,0-1,0.448-1,1v25c0,0.552,0.448,1,1,1s1-0.448,1-1v-25
		C13.497,11.946,13.049,11.498,12.497,11.498z M37.497,17.435H17.622c-0.552,0-1,0.448-1,1v4.375c0,0.552,0.448,1,1,1h19.875
		c0.552,0,1-0.448,1-1v-4.375C38.497,17.883,38.049,17.435,37.497,17.435z M36.497,21.81H18.622v-2.375h17.875V21.81z
		 M32.372,26.185h-14.75c-0.552,0-1,0.448-1,1v4.375c0,0.552,0.448,1,1,1h14.75c0.552,0,1-0.448,1-1v-4.375
		C33.372,26.633,32.924,26.185,32.372,26.185z M31.372,30.56h-12.75v-2.375h12.75V30.56z"/>
</g>
<g id="Layer_1">
</g>
</svg>
