<?xml version="1.0" encoding="iso-8859-1"?>
<!-- Generator: Adobe Illustrator 21.1.0, SVG Export Plug-In . SVG Version: 6.00 Build 0)  -->
<svg version="1.1" xmlns="http://www.w3.org/2000/svg" xmlns:xlink="http://www.w3.org/1999/xlink" x="0px" y="0px"
	 viewBox="0 0 49.996 49.996" style="enable-background:new 0 0 49.996 49.996;" xml:space="preserve">
<g id="AlignCenter">
	<path style="fill:#353942;" d="M2.5,0C1.119,0,0,1.119,0,2.5v44.996c0,1.381,1.119,2.5,2.5,2.5h44.996c1.381,0,2.5-1.119,2.5-2.5
		V2.5c0-1.381-1.119-2.5-2.5-2.5H2.5z"/>
	<path style="fill:#5B616B;" d="M37.497,16.935h-11.5v-4.438c0-0.552-0.448-1-1-1s-1,0.448-1,1v4.438h-11.5c-0.552,0-1,0.448-1,1
		v4.375c0,0.552,0.448,1,1,1h11.5v3.125h-6.375c-0.552,0-1,0.448-1,1v4.375c0,0.552,0.448,1,1,1h6.375v4.688c0,0.552,0.448,1,1,1
		s1-0.448,1-1V32.81h6.375c0.552,0,1-0.448,1-1v-4.375c0-0.552-0.448-1-1-1h-6.375V23.31h11.5c0.552,0,1-0.448,1-1v-4.375
		C38.497,17.383,38.049,16.935,37.497,16.935z M31.372,30.81h-12.75v-2.375h12.75V30.81z M36.497,21.31H24.999
		c-0.001,0-0.002,0-0.002,0s-0.002,0-0.002,0H13.497v-2.375h23V21.31z"/>
</g>
<g id="Layer_1">
</g>
</svg>
