<?xml version="1.0" encoding="iso-8859-1"?>
<!-- Generator: Adobe Illustrator 21.1.0, SVG Export Plug-In . SVG Version: 6.00 Build 0)  -->
<svg version="1.1" xmlns="http://www.w3.org/2000/svg" xmlns:xlink="http://www.w3.org/1999/xlink" x="0px" y="0px"
	 viewBox="0 0 49.996 49.996" style="enable-background:new 0 0 49.996 49.996;" xml:space="preserve">
<g id="AlignBottom">
	<path style="fill:#353942;" d="M2.5,0C1.119,0,0,1.119,0,2.5v44.996c0,1.381,1.119,2.5,2.5,2.5h44.996c1.381,0,2.5-1.119,2.5-2.5
		V2.5c0-1.381-1.119-2.5-2.5-2.5H2.5z"/>
	<path style="fill:#5B616B;" d="M37.497,36.498h-25c-0.552,0-1,0.448-1,1s0.448,1,1,1h25c0.552,0,1-0.448,1-1
		S38.049,36.498,37.497,36.498z M18.434,33.373h4.375c0.552,0,1-0.448,1-1V12.498c0-0.552-0.448-1-1-1h-4.375c-0.552,0-1,0.448-1,1
		v19.875C17.434,32.925,17.882,33.373,18.434,33.373z M19.434,13.498h2.375v17.875h-2.375V13.498z M27.184,33.373h4.375
		c0.552,0,1-0.448,1-1v-14.75c0-0.552-0.448-1-1-1h-4.375c-0.552,0-1,0.448-1,1v14.75C26.184,32.925,26.632,33.373,27.184,33.373z
		 M28.184,18.623h2.375v12.75h-2.375V18.623z"/>
</g>
<g id="Layer_1">
</g>
</svg>
