<?xml version="1.0" encoding="iso-8859-1"?>
<!-- Generator: Adobe Illustrator 21.1.0, SVG Export Plug-In . SVG Version: 6.00 Build 0)  -->
<svg version="1.1" xmlns="http://www.w3.org/2000/svg" xmlns:xlink="http://www.w3.org/1999/xlink" x="0px" y="0px"
	 viewBox="0 0 49.996 49.996" style="enable-background:new 0 0 49.996 49.996;" xml:space="preserve">
<g id="AlignMiddle">
	<path style="fill:#353942;" d="M2.5,0C1.119,0,0,1.119,0,2.5v44.996c0,1.381,1.119,2.5,2.5,2.5h44.996c1.381,0,2.5-1.119,2.5-2.5
		V2.5c0-1.381-1.119-2.5-2.5-2.5H2.5z"/>
	<path style="fill:#5B616B;" d="M37.497,23.998h-4.688v-6.375c0-0.552-0.448-1-1-1h-4.375c-0.552,0-1,0.448-1,1v6.375h-3.125v-11.5
		c0-0.552-0.448-1-1-1h-4.375c-0.552,0-1,0.448-1,1v11.5h-4.438c-0.552,0-1,0.448-1,1s0.448,1,1,1h4.438v11.5c0,0.552,0.448,1,1,1
		h4.375c0.552,0,1-0.448,1-1v-11.5h3.125v6.375c0,0.552,0.448,1,1,1h4.375c0.552,0,1-0.448,1-1v-6.375h4.688c0.552,0,1-0.448,1-1
		S38.049,23.998,37.497,23.998z M18.934,36.498v-23h2.375v11.498c0,0.001,0,0.002,0,0.002s0,0.002,0,0.002v11.498H18.934z
		 M30.809,31.373h-2.375v-12.75h2.375V31.373z"/>
</g>
<g id="Layer_1">
</g>
</svg>
