<?xml version="1.0" encoding="iso-8859-1"?>
<!-- Generator: Adobe Illustrator 21.1.0, SVG Export Plug-In . SVG Version: 6.00 Build 0)  -->
<svg version="1.1" xmlns="http://www.w3.org/2000/svg" xmlns:xlink="http://www.w3.org/1999/xlink" x="0px" y="0px"
	 viewBox="0 0 49.996 49.996" style="enable-background:new 0 0 49.996 49.996;" xml:space="preserve">
<g id="Annotations">
	<path style="fill:#353942;" d="M2.5,0C1.119,0,0,1.119,0,2.5v44.996c0,1.381,1.119,2.5,2.5,2.5h44.996c1.381,0,2.5-1.119,2.5-2.5
		V2.5c0-1.381-1.119-2.5-2.5-2.5H2.5z"/>
	<path style="fill:#5B616B;" d="M37.768,13.208l-1.021-1.02c-0.461-0.463-1.076-0.719-1.73-0.719c-0.657,0-1.272,0.256-1.729,0.715
		l-2.101,2.092c0,0-0.001,0.001-0.001,0.001s-0.001,0.001-0.001,0.001L18.898,26.577c-0.118,0.119-0.205,0.265-0.252,0.425
		l-1.277,4.344c-0.103,0.351-0.006,0.73,0.252,0.989c0.19,0.19,0.446,0.293,0.707,0.293c0.094,0,0.189-0.013,0.282-0.041
		l4.344-1.278c0.161-0.047,0.307-0.134,0.425-0.252l12.29-12.299c0,0,0.001-0.001,0.001-0.001l2.102-2.09
		c0.461-0.465,0.714-1.079,0.713-1.724C38.486,14.285,38.231,13.668,37.768,13.208z M22.435,29.172l-1.652-1.652L31.894,16.4
		l1.653,1.652L22.435,29.172z M36.356,15.253l-1.393,1.386l-1.653-1.652l1.394-1.388c0.167-0.167,0.454-0.172,0.628,0.003
		l1.025,1.024c0.085,0.084,0.128,0.189,0.127,0.317C36.485,15.061,36.439,15.17,36.356,15.253z M34.747,23.976c-0.552,0-1,0.448-1,1
		v10.013c0,0.827-0.673,1.5-1.5,1.5H14.993c-0.827,0-1.5-0.673-1.5-1.5v-17.28c0-0.827,0.673-1.5,1.5-1.5h9.986c0.552,0,1-0.448,1-1
		s-0.448-1-1-1h-9.986c-1.93,0-3.5,1.57-3.5,3.5v17.28c0,1.93,1.57,3.5,3.5,3.5h17.254c1.93,0,3.5-1.57,3.5-3.5V24.976
		C35.747,24.424,35.299,23.976,34.747,23.976z"/>
</g>
<g id="Layer_1">
</g>
</svg>
