<?xml version="1.0" encoding="iso-8859-1"?>
<!-- Generator: Adobe Illustrator 21.1.0, SVG Export Plug-In . SVG Version: 6.00 Build 0)  -->
<svg version="1.1" xmlns="http://www.w3.org/2000/svg" xmlns:xlink="http://www.w3.org/1999/xlink" x="0px" y="0px"
	 viewBox="0 0 49.996 49.996" style="enable-background:new 0 0 49.996 49.996;" xml:space="preserve">
<g id="AnteriorOrientation">
	<path style="fill:#353942;" d="M2.5,0C1.119,0,0,1.119,0,2.5v44.996c0,1.381,1.119,2.5,2.5,2.5h44.996c1.381,0,2.5-1.119,2.5-2.5
		V2.5c0-1.381-1.119-2.5-2.5-2.5H2.5z"/>
	<path style="fill:#5B616B;" d="M38.392,37.052l-12.444-25c-0.169-0.339-0.515-0.554-0.894-0.554h-0.002
		c-0.378,0-0.724,0.213-0.894,0.551l-12.556,25c-0.248,0.494-0.049,1.095,0.445,1.342c0.494,0.248,1.094,0.049,1.342-0.445
		l3.111-6.195H33.52l3.082,6.192c0.175,0.351,0.528,0.554,0.896,0.554c0.149,0,0.302-0.034,0.445-0.105
		C38.437,38.147,38.638,37.547,38.392,37.052z M17.506,29.752l7.543-15.018l7.475,15.018H17.506z"/>
</g>
<g id="Layer_1">
</g>
</svg>
