<?xml version="1.0" encoding="iso-8859-1"?>
<!-- Generator: Adobe Illustrator 21.1.0, SVG Export Plug-In . SVG Version: 6.00 Build 0)  -->
<svg version="1.1" xmlns="http://www.w3.org/2000/svg" xmlns:xlink="http://www.w3.org/1999/xlink" x="0px" y="0px"
	 viewBox="0 0 49.996 49.996" style="enable-background:new 0 0 49.996 49.996;" xml:space="preserve">
<g id="Arrow">
	<path style="fill:#353942;" d="M2.5,0C1.119,0,0,1.119,0,2.5v44.996c0,1.381,1.119,2.5,2.5,2.5h44.996c1.381,0,2.5-1.119,2.5-2.5
		V2.5c0-1.381-1.119-2.5-2.5-2.5H2.5z"/>
	<path style="fill:#5B616B;" d="M38.204,36.791L14.911,13.498h6.794c0.552,0,1-0.448,1-1s-0.448-1-1-1h-9.208
		c-0.066,0-0.131,0.007-0.196,0.02c-0.029,0.006-0.056,0.017-0.084,0.025c-0.034,0.01-0.069,0.018-0.102,0.032
		c-0.033,0.014-0.063,0.032-0.094,0.049c-0.026,0.014-0.053,0.026-0.078,0.043c-0.11,0.073-0.204,0.167-0.277,0.277
		c-0.016,0.024-0.027,0.051-0.041,0.076c-0.017,0.032-0.036,0.062-0.05,0.096c-0.014,0.033-0.021,0.067-0.031,0.101
		c-0.008,0.029-0.02,0.056-0.025,0.086c-0.013,0.065-0.02,0.13-0.02,0.196v9.208c0,0.552,0.448,1,1,1s1-0.448,1-1v-6.794
		L36.79,38.205c0.195,0.195,0.451,0.293,0.707,0.293s0.512-0.098,0.707-0.293C38.595,37.814,38.595,37.182,38.204,36.791z"/>
</g>
<g id="Layer_1">
</g>
</svg>
