<?xml version="1.0" encoding="iso-8859-1"?>
<!-- Generator: Adobe Illustrator 21.1.0, SVG Export Plug-In . SVG Version: 6.00 Build 0)  -->
<svg version="1.1" xmlns="http://www.w3.org/2000/svg" xmlns:xlink="http://www.w3.org/1999/xlink" x="0px" y="0px"
	 viewBox="0 0 49.996 49.996" style="enable-background:new 0 0 49.996 49.996;" xml:space="preserve">
<g id="BrightnessContrast">
	<path style="fill:#353942;" d="M2.5,0C1.119,0,0,1.119,0,2.5v44.996c0,1.381,1.119,2.5,2.5,2.5h44.996c1.381,0,2.5-1.119,2.5-2.5
		V2.5c0-1.381-1.119-2.5-2.5-2.5H2.5z"/>
	<path style="fill:#5B616B;" d="M24.997,33.216c-0.552,0-1,0.448-1,1v3.282c0,0.552,0.448,1,1,1s1-0.448,1-1v-3.282
		C25.997,33.664,25.549,33.216,24.997,33.216z M24.997,16.779c0.552,0,1-0.448,1-1v-3.281c0-0.552-0.448-1-1-1s-1,0.448-1,1v3.281
		C23.997,16.332,24.445,16.779,24.997,16.779z M17.771,19.186c0.195,0.195,0.451,0.293,0.707,0.293s0.512-0.098,0.707-0.293
		c0.391-0.39,0.391-1.024,0-1.414l-2.32-2.32c-0.39-0.391-1.024-0.391-1.414,0c-0.391,0.39-0.391,1.024,0,1.414L17.771,19.186z
		 M32.221,30.808c-0.391-0.391-1.023-0.391-1.414,0s-0.391,1.023,0,1.414l2.322,2.322c0.195,0.195,0.451,0.293,0.707,0.293
		s0.512-0.098,0.707-0.293c0.391-0.391,0.391-1.023,0-1.414L32.221,30.808z M31.515,19.479c0.256,0,0.512-0.098,0.707-0.293
		l2.32-2.32c0.391-0.39,0.391-1.024,0-1.414c-0.391-0.391-1.023-0.391-1.414,0l-2.32,2.32c-0.391,0.39-0.391,1.024,0,1.414
		C31.004,19.382,31.26,19.479,31.515,19.479z M17.771,30.809l-2.32,2.32c-0.391,0.391-0.391,1.023,0,1.414
		c0.195,0.195,0.451,0.293,0.707,0.293c0.256,0,0.512-0.098,0.707-0.293l2.32-2.32c0.391-0.391,0.391-1.023,0-1.414
		C18.795,30.419,18.161,30.419,17.771,30.809z M37.497,23.998h-3.281c-0.552,0-1,0.448-1,1s0.448,1,1,1h3.281c0.552,0,1-0.448,1-1
		S38.049,23.998,37.497,23.998z M16.778,24.998c0-0.552-0.448-1-1-1h-3.281c-0.552,0-1,0.448-1,1s0.448,1,1,1h3.281
		C16.33,25.998,16.778,25.55,16.778,24.998z M24.997,18.81c-3.412,0-6.188,2.776-6.188,6.188c0,3.412,2.776,6.188,6.188,6.188
		c3.412,0,6.188-2.776,6.188-6.188C31.184,21.586,28.408,18.81,24.997,18.81z M24.997,29.185c-2.309,0-4.188-1.878-4.188-4.188
		s1.878-4.188,4.188-4.188s4.188,1.878,4.188,4.188S27.306,29.185,24.997,29.185z"/>
</g>
<g id="Layer_1">
</g>
</svg>
