<?xml version="1.0" encoding="iso-8859-1"?>
<!-- Generator: Adobe Illustrator 21.1.0, SVG Export Plug-In . SVG Version: 6.00 Build 0)  -->
<svg version="1.1" xmlns="http://www.w3.org/2000/svg" xmlns:xlink="http://www.w3.org/1999/xlink" x="0px" y="0px"
	 viewBox="0 0 49.996 49.996" style="enable-background:new 0 0 49.996 49.996;" xml:space="preserve">
<g id="CalibrateRulerAnn">
	<path style="fill:#353942;" d="M2.5,0C1.119,0,0,1.119,0,2.5v44.996c0,1.381,1.119,2.5,2.5,2.5h44.996c1.381,0,2.5-1.119,2.5-2.5
		V2.5c0-1.381-1.119-2.5-2.5-2.5H2.5z"/>
	<path style="fill:#5B616B;" d="M37.497,11.498c-0.552,0-1,0.448-1,1v3.188H34.33v-1.457c0-0.552-0.448-1-1-1s-1,0.448-1,1v1.457
		h-2.167v-1.457c0-0.552-0.448-1-1-1s-1,0.448-1,1v1.457h-2.167v-3.188c0-0.552-0.448-1-1-1s-1,0.448-1,1v3.188H21.83v-1.457
		c0-0.552-0.448-1-1-1s-1,0.448-1,1v1.457h-2.167v-1.457c0-0.552-0.448-1-1-1s-1,0.448-1,1v1.457h-2.167v-3.188c0-0.552-0.448-1-1-1
		s-1,0.448-1,1v8.375c0,0.552,0.448,1,1,1s1-0.448,1-1v-3.188h2.167v1.457c0,0.552,0.448,1,1,1s1-0.448,1-1v-1.457h2.167v1.457
		c0,0.552,0.448,1,1,1s1-0.448,1-1v-1.457h2.167v3.188c0,0.552,0.448,1,1,1s1-0.448,1-1v-3.188h2.167v1.457c0,0.552,0.448,1,1,1
		s1-0.448,1-1v-1.457h2.167v1.457c0,0.552,0.448,1,1,1s1-0.448,1-1v-1.457h2.167v3.188c0,0.552,0.448,1,1,1s1-0.448,1-1v-8.375
		C38.497,11.946,38.049,11.498,37.497,11.498z M37.497,28.289h-25c-0.552,0-1,0.448-1,1v8.208c0,0.552,0.448,1,1,1h25
		c0.552,0,1-0.448,1-1v-8.208C38.497,28.737,38.049,28.289,37.497,28.289z M36.497,36.498h-23v-6.208h2.167v1.884
		c0,0.552,0.448,1,1,1s1-0.448,1-1v-1.884h2.167v1.884c0,0.552,0.448,1,1,1s1-0.448,1-1v-1.884h2.167v3.415c0,0.552,0.448,1,1,1
		s1-0.448,1-1v-3.415h2.167v1.884c0,0.552,0.448,1,1,1s1-0.448,1-1v-1.884h2.167v1.884c0,0.552,0.448,1,1,1s1-0.448,1-1v-1.884
		h2.167V36.498z"/>
</g>
<g id="Layer_1">
</g>
</svg>
