<?xml version="1.0" encoding="iso-8859-1"?>
<!-- Generator: Adobe Illustrator 21.1.0, SVG Export Plug-In . SVG Version: 6.00 Build 0)  -->
<svg version="1.1" xmlns="http://www.w3.org/2000/svg" xmlns:xlink="http://www.w3.org/1999/xlink" x="0px" y="0px"
	 viewBox="0 0 49.996 49.996" style="enable-background:new 0 0 49.996 49.996;" xml:space="preserve">
<g id="CinePlayer">
	<path style="fill:#353942;" d="M2.5,0C1.119,0,0,1.119,0,2.5v44.996c0,1.381,1.119,2.5,2.5,2.5h44.996c1.381,0,2.5-1.119,2.5-2.5
		V2.5c0-1.381-1.119-2.5-2.5-2.5H2.5z"/>
	<path style="fill:#5B616B;" d="M37.497,11.498c-0.552,0-1,0.448-1,1v2.594h-2.938v-2.594c0-0.552-0.448-1-1-1s-1,0.448-1,1v1
		H18.434v-1c0-0.552-0.448-1-1-1s-1,0.448-1,1v2.594h-2.938v-2.594c0-0.552-0.448-1-1-1s-1,0.448-1,1v25c0,0.552,0.448,1,1,1
		s1-0.448,1-1v-2.594h2.938v2.594c0,0.552,0.448,1,1,1s1-0.448,1-1v-1h13.125v1c0,0.552,0.448,1,1,1s1-0.448,1-1v-2.594h2.938v2.594
		c0,0.552,0.448,1,1,1s1-0.448,1-1v-25C38.497,11.946,38.049,11.498,37.497,11.498z M33.559,23.029h2.938v3.938h-2.938V23.029z
		 M36.497,17.092v3.938h-2.938v-3.938H36.497z M31.559,15.498v8.5H18.434v-8.5H31.559z M13.497,23.029h2.938v3.938h-2.938V23.029z
		 M16.434,17.092v3.938h-2.938v-3.938H16.434z M13.497,32.904v-3.937h2.938v3.937H13.497z M18.434,34.498v-8.5h13.125v8.5H18.434z
		 M33.559,32.904v-3.937h2.938v3.937H33.559z"/>
</g>
<g id="Layer_1">
</g>
</svg>
