<?xml version="1.0" encoding="iso-8859-1"?>
<!-- Generator: Adobe Illustrator 21.1.0, SVG Export Plug-In . SVG Version: 6.00 Build 0)  -->
<svg version="1.1" xmlns="http://www.w3.org/2000/svg" xmlns:xlink="http://www.w3.org/1999/xlink" x="0px" y="0px"
	 viewBox="0 0 49.996 49.996" style="enable-background:new 0 0 49.996 49.996;" xml:space="preserve">
<g id="Clear">
	<path style="fill:#353942;" d="M2.5,0C1.119,0,0,1.119,0,2.5v44.996c0,1.381,1.119,2.5,2.5,2.5h44.996c1.381,0,2.5-1.119,2.5-2.5
		V2.5c0-1.381-1.119-2.5-2.5-2.5H2.5z"/>
	<path style="fill:#5B616B;" d="M37.497,17.282h-3.219v-2.284c0-1.93-1.57-3.5-3.5-3.5H19.216c-1.93,0-3.5,1.57-3.5,3.5v2.284
		h-3.219c-0.552,0-1,0.448-1,1s0.448,1,1,1h1.316l2.273,16.202c0.241,1.718,1.731,3.014,3.466,3.014h10.892
		c1.735,0,3.225-1.296,3.466-3.014l2.273-16.202h1.316c0.552,0,1-0.448,1-1S38.049,17.282,37.497,17.282z M17.716,14.998
		c0-0.827,0.673-1.5,1.5-1.5h11.563c0.827,0,1.5,0.673,1.5,1.5v2.284H17.716V14.998z M31.928,35.206
		c-0.103,0.736-0.742,1.292-1.485,1.292H19.551c-0.743,0-1.382-0.555-1.485-1.292l-2.234-15.924h18.33L31.928,35.206z
		 M21.433,31.771c0.062,0.507,0.493,0.878,0.991,0.878c0.041,0,0.082-0.002,0.123-0.007c0.548-0.067,0.938-0.566,0.871-1.114
		l-0.992-8.098c-0.067-0.548-0.568-0.937-1.114-0.871c-0.548,0.067-0.938,0.566-0.871,1.114L21.433,31.771z M27.446,32.643
		c0.042,0.005,0.082,0.007,0.123,0.007c0.498,0,0.929-0.372,0.991-0.878l0.992-8.098c0.067-0.548-0.323-1.047-0.871-1.114
		c-0.545-0.063-1.047,0.323-1.114,0.871l-0.992,8.098C26.508,32.077,26.898,32.575,27.446,32.643z"/>
</g>
<g id="Layer_1">
</g>
</svg>
