<?xml version="1.0" encoding="iso-8859-1"?>
<!-- Generator: Adobe Illustrator 21.1.0, SVG Export Plug-In . SVG Version: 6.00 Build 0)  -->
<svg version="1.1" xmlns="http://www.w3.org/2000/svg" xmlns:xlink="http://www.w3.org/1999/xlink" x="0px" y="0px"
	 viewBox="0 0 49.996 49.996" style="enable-background:new 0 0 49.996 49.996;" xml:space="preserve">
<g id="ClearAll">
	<path style="fill:#353942;" d="M2.5,0C1.119,0,0,1.119,0,2.5v44.996c0,1.381,1.119,2.5,2.5,2.5h44.996c1.381,0,2.5-1.119,2.5-2.5
		V2.5c0-1.381-1.119-2.5-2.5-2.5H2.5z"/>
	<path style="opacity:0.6;fill:#5B616B;" d="M34.997,38.498h-20c-1.93,0-3.5-1.57-3.5-3.5v-20c0-1.93,1.57-3.5,3.5-3.5h20
		c1.93,0,3.5,1.57,3.5,3.5v20C38.497,36.928,36.927,38.498,34.997,38.498z M14.997,13.498c-0.827,0-1.5,0.673-1.5,1.5v20
		c0,0.827,0.673,1.5,1.5,1.5h20c0.827,0,1.5-0.673,1.5-1.5v-20c0-0.827-0.673-1.5-1.5-1.5H14.997z"/>
	<path style="fill:#5B616B;" d="M33.309,19.532h-1.806v-1.184c0-1.468-1.194-2.663-2.662-2.663h-7.689
		c-1.468,0-2.663,1.194-2.663,2.663v1.184h-1.805c-0.552,0-1,0.448-1,1s0.448,1,1,1h0.584l1.471,10.486
		c0.183,1.307,1.317,2.292,2.637,2.292h7.243c1.32,0,2.454-0.986,2.636-2.292l1.471-10.486h0.584c0.552,0,1-0.448,1-1
		S33.862,19.532,33.309,19.532z M20.49,18.348c0-0.365,0.297-0.663,0.663-0.663h7.689c0.365,0,0.662,0.297,0.662,0.663v1.184H20.49
		V18.348z M29.274,31.74c-0.045,0.325-0.328,0.57-0.656,0.57h-7.243c-0.328,0-0.611-0.245-0.656-0.57l-1.432-10.208h11.419
		L29.274,31.74z M22.295,29.543c0.062,0.507,0.493,0.878,0.991,0.878c0.041,0,0.082-0.002,0.123-0.007
		c0.548-0.067,0.938-0.566,0.871-1.114l-0.66-5.385c-0.067-0.548-0.567-0.935-1.114-0.871c-0.548,0.067-0.938,0.566-0.871,1.114
		L22.295,29.543z M26.585,30.414c0.042,0.005,0.082,0.007,0.123,0.007c0.498,0,0.929-0.372,0.991-0.878l0.66-5.385
		c0.067-0.548-0.323-1.047-0.871-1.114c-0.545-0.063-1.047,0.323-1.114,0.871l-0.66,5.385
		C25.647,29.848,26.036,30.347,26.585,30.414z"/>
</g>
<g id="Layer_1">
</g>
</svg>
