<?xml version="1.0" encoding="iso-8859-1"?>
<!-- Generator: Adobe Illustrator 21.1.0, SVG Export Plug-In . SVG Version: 6.00 Build 0)  -->
<svg version="1.1" xmlns="http://www.w3.org/2000/svg" xmlns:xlink="http://www.w3.org/1999/xlink" x="0px" y="0px"
	 viewBox="0 0 49.996 49.996" style="enable-background:new 0 0 49.996 49.996;" xml:space="preserve">
<g id="Comment">
	<path style="fill:#353942;" d="M2.5,0C1.119,0,0,1.119,0,2.5v44.996c0,1.381,1.119,2.5,2.5,2.5h44.996c1.381,0,2.5-1.119,2.5-2.5
		V2.5c0-1.381-1.119-2.5-2.5-2.5H2.5z"/>
	<path style="fill:#5B616B;" d="M32.262,26.929c0.552,0,1-0.448,1-1V12.551c0-0.552-0.448-1-1-1H12.497c-0.552,0-1,0.448-1,1v13.378
		c0,0.552,0.448,1,1,1h3.462l0.014,3.642c0.001,0.394,0.234,0.75,0.594,0.91c0.13,0.058,0.268,0.086,0.405,0.086
		c0.242,0,0.481-0.088,0.668-0.256l4.879-4.382H32.262z M21.469,25.185l-3.504,3.147l-0.009-2.407c-0.002-0.551-0.449-0.996-1-0.996
		h-3.458V13.551h17.765v11.378h-9.125C21.89,24.929,21.652,25.02,21.469,25.185z M37.497,18.499h-2.208c-0.552,0-1,0.448-1,1
		s0.448,1,1,1h1.208v11.378h-3.458c-0.551,0-0.998,0.445-1,0.996l-0.009,2.407l-3.503-3.147c-0.184-0.165-0.422-0.256-0.668-0.256
		h-9.125c-0.552,0-1,0.448-1,1s0.448,1,1,1h8.742l4.878,4.382c0.188,0.168,0.426,0.256,0.668,0.256c0.137,0,0.275-0.028,0.406-0.086
		c0.36-0.16,0.593-0.516,0.594-0.91l0.014-3.642h3.462c0.552,0,1-0.448,1-1V19.499C38.497,18.947,38.049,18.499,37.497,18.499z
		 M27.966,20.595H16.793c-0.552,0-1,0.448-1,1s0.448,1,1,1h11.173c0.552,0,1-0.448,1-1S28.518,20.595,27.966,20.595z M16.793,17.849
		h8.829c0.552,0,1-0.448,1-1s-0.448-1-1-1h-8.829c-0.552,0-1,0.448-1,1S16.241,17.849,16.793,17.849z"/>
</g>
<g id="Layer_1">
</g>
</svg>
