<?xml version="1.0" encoding="iso-8859-1"?>
<!-- Generator: Adobe Illustrator 21.1.0, SVG Export Plug-In . SVG Version: 6.00 Build 0)  -->
<svg version="1.1" xmlns="http://www.w3.org/2000/svg" xmlns:xlink="http://www.w3.org/1999/xlink" x="0px" y="0px"
	 viewBox="0 0 49.996 49.996" style="enable-background:new 0 0 49.996 49.996;" xml:space="preserve">
<g id="CopyTemplate">
	<path style="fill:#353942;" d="M2.5,0C1.119,0,0,1.119,0,2.5v44.996c0,1.381,1.119,2.5,2.5,2.5h44.996c1.381,0,2.5-1.119,2.5-2.5
		V2.5c0-1.381-1.119-2.5-2.5-2.5H2.5z"/>
	<path style="fill:#5B616B;" d="M34.997,19.831h-4.833v-4.833c0-1.93-1.57-3.5-3.5-3.5H14.997c-1.93,0-3.5,1.57-3.5,3.5v11.667
		c0,1.93,1.57,3.5,3.5,3.5h13.336l-1.46,1.46c-0.391,0.391-0.391,1.024,0,1.414c0.195,0.195,0.451,0.293,0.707,0.293
		s0.512-0.098,0.707-0.293l3.167-3.167c0.391-0.391,0.391-1.023,0-1.414l-3.167-3.167c-0.391-0.391-1.023-0.391-1.414,0
		s-0.391,1.023,0,1.414l1.459,1.459H21.83v-4.833c0-0.827,0.673-1.5,1.5-1.5h11.667c0.827,0,1.5,0.673,1.5,1.5v11.667
		c0,0.827-0.673,1.5-1.5,1.5H23.33c-0.827,0-1.5-0.673-1.5-1.5v-1.833c0-0.552-0.448-1-1-1s-1,0.448-1,1v1.833
		c0,1.93,1.57,3.5,3.5,3.5h11.667c1.93,0,3.5-1.57,3.5-3.5V23.331C38.497,21.401,36.927,19.831,34.997,19.831z M19.83,23.331v4.833
		h-4.833c-0.827,0-1.5-0.673-1.5-1.5V14.998c0-0.827,0.673-1.5,1.5-1.5h11.667c0.827,0,1.5,0.673,1.5,1.5v4.833H23.33
		C21.4,19.831,19.83,21.401,19.83,23.331z"/>
</g>
<g id="Layer_1">
</g>
</svg>
