<?xml version="1.0" encoding="iso-8859-1"?>
<!-- Generator: Adobe Illustrator 21.1.0, SVG Export Plug-In . SVG Version: 6.00 Build 0)  -->
<svg version="1.1" xmlns="http://www.w3.org/2000/svg" xmlns:xlink="http://www.w3.org/1999/xlink" x="0px" y="0px"
	 viewBox="0 0 49.996 49.996" style="enable-background:new 0 0 49.996 49.996;" xml:space="preserve">
<g id="Create3D">
	<path style="fill:#353942;" d="M2.5,0C1.119,0,0,1.119,0,2.5v44.996c0,1.381,1.119,2.5,2.5,2.5h44.996c1.381,0,2.5-1.119,2.5-2.5
		V2.5c0-1.381-1.119-2.5-2.5-2.5H2.5z"/>
	<g>
		<path style="opacity:0.6;fill:#5B616B;" d="M12.497,32.877c-0.486,0-0.879-0.394-0.879-0.879c0-0.437,0.121-0.865,0.358-1.273
			c0.245-0.42,0.783-0.562,1.202-0.317c0.419,0.244,0.561,0.782,0.317,1.202c-0.08,0.138-0.119,0.265-0.119,0.388
			C13.376,32.483,12.982,32.877,12.497,32.877z M37.345,32.211c-0.332,0-0.649-0.189-0.798-0.51
			c-0.067-0.145-0.18-0.297-0.336-0.453c-0.343-0.343-0.344-0.899-0.001-1.243c0.342-0.343,0.899-0.344,1.243-0.001
			c0.303,0.302,0.535,0.624,0.689,0.958c0.205,0.44,0.013,0.963-0.428,1.167C37.594,32.184,37.469,32.211,37.345,32.211z
			 M15.579,30.083c-0.352,0-0.684-0.213-0.82-0.561c-0.176-0.452,0.048-0.962,0.501-1.138c0.278-0.108,0.57-0.211,0.877-0.311
			c0.461-0.148,0.958,0.104,1.107,0.566c0.149,0.462-0.104,0.958-0.566,1.107c-0.273,0.088-0.533,0.18-0.781,0.276
			C15.793,30.063,15.685,30.083,15.579,30.083z M33.763,29.848c-0.092,0-0.186-0.015-0.277-0.045
			c-0.256-0.085-0.523-0.167-0.8-0.244c-0.467-0.131-0.741-0.616-0.61-1.083s0.617-0.74,1.083-0.61
			c0.306,0.085,0.6,0.176,0.881,0.27c0.461,0.153,0.71,0.651,0.557,1.111C34.474,29.614,34.131,29.848,33.763,29.848z
			 M19.832,29.006c-0.427,0-0.801-0.311-0.868-0.745c-0.074-0.48,0.255-0.929,0.735-1.003c0.293-0.045,0.592-0.087,0.897-0.125
			c0.483-0.06,0.92,0.282,0.98,0.765c0.06,0.481-0.282,0.92-0.764,0.98c-0.287,0.035-0.569,0.075-0.845,0.117
			C19.921,29.003,19.876,29.006,19.832,29.006z M29.475,28.908c-0.038,0-0.077-0.002-0.116-0.007
			c-0.278-0.037-0.561-0.069-0.848-0.099c-0.483-0.049-0.834-0.481-0.785-0.964c0.05-0.483,0.481-0.833,0.964-0.785
			c0.305,0.031,0.604,0.066,0.899,0.104c0.481,0.063,0.82,0.505,0.757,0.986C30.288,28.586,29.91,28.908,29.475,28.908z
			 M24.21,28.635c-0.477,0-0.869-0.381-0.879-0.861c-0.01-0.485,0.375-0.887,0.861-0.897c0.266-0.005,0.534-0.008,0.804-0.008h0.093
			c0.485,0,0.879,0.394,0.879,0.879s-0.394,0.879-0.879,0.879h-0.093c-0.258,0-0.514,0.003-0.768,0.008
			C24.223,28.635,24.217,28.635,24.21,28.635z"/>
		<path style="fill:#5B616B;" d="M24.997,11.498c-7.696,0-13.5,2.794-13.5,6.5v14c0,3.706,5.804,6.5,13.5,6.5s13.5-2.794,13.5-6.5
			v-14C38.497,14.292,32.693,11.498,24.997,11.498z M24.997,13.498c6.777,0,11.5,2.372,11.5,4.5s-4.723,4.5-11.5,4.5
			c-6.777,0-11.5-2.372-11.5-4.5S18.22,13.498,24.997,13.498z M24.997,36.498c-6.777,0-11.5-2.372-11.5-4.5v-10.5
			c2.336,1.83,6.52,3,11.5,3s9.164-1.171,11.5-3v10.5C36.497,34.126,31.774,36.498,24.997,36.498z"/>
	</g>
</g>
<g id="Layer_1">
</g>
</svg>
