<?xml version="1.0" encoding="iso-8859-1"?>
<!-- Generator: Adobe Illustrator 21.1.0, SVG Export Plug-In . SVG Version: 6.00 Build 0)  -->
<svg version="1.1" xmlns="http://www.w3.org/2000/svg" xmlns:xlink="http://www.w3.org/1999/xlink" x="0px" y="0px"
	 viewBox="0 0 49.996 49.996" style="enable-background:new 0 0 49.996 49.996;" xml:space="preserve">
<g id="CrossHair">
	<path style="fill:#353942;" d="M2.5,0C1.119,0,0,1.119,0,2.5v44.996c0,1.381,1.119,2.5,2.5,2.5h44.996c1.381,0,2.5-1.119,2.5-2.5
		V2.5c0-1.381-1.119-2.5-2.5-2.5H2.5z"/>
	<path style="fill:#5B616B;" d="M37.497,23.998h-2.426c-0.472-4.786-4.288-8.603-9.074-9.074v-2.426c0-0.552-0.448-1-1-1
		s-1,0.448-1,1v2.426c-4.786,0.472-8.603,4.288-9.074,9.074h-2.426c-0.552,0-1,0.448-1,1s0.448,1,1,1h2.426
		c0.472,4.786,4.288,8.603,9.074,9.074v2.426c0,0.552,0.448,1,1,1s1-0.448,1-1v-2.426c4.786-0.472,8.603-4.288,9.074-9.074h2.426
		c0.552,0,1-0.448,1-1S38.049,23.998,37.497,23.998z M30.747,25.998h2.307c-0.455,3.681-3.376,6.602-7.057,7.057v-2.307
		c0-0.552-0.448-1-1-1s-1,0.448-1,1v2.307c-3.681-0.455-6.602-3.376-7.057-7.057h2.307c0.552,0,1-0.448,1-1s-0.448-1-1-1H16.94
		c0.455-3.681,3.376-6.602,7.057-7.057v2.307c0,0.552,0.448,1,1,1s1-0.448,1-1v-2.307c3.681,0.455,6.602,3.376,7.057,7.057h-2.307
		c-0.552,0-1,0.448-1,1S30.195,25.998,30.747,25.998z M24.997,23.701c-0.716,0-1.297,0.581-1.297,1.297s0.581,1.297,1.297,1.297
		s1.297-0.581,1.297-1.297S25.713,23.701,24.997,23.701z"/>
</g>
<g id="Layer_1">
</g>
</svg>
