<?xml version="1.0" encoding="iso-8859-1"?>
<!-- Generator: Adobe Illustrator 21.1.0, SVG Export Plug-In . SVG Version: 6.00 Build 0)  -->
<svg version="1.1" xmlns="http://www.w3.org/2000/svg" xmlns:xlink="http://www.w3.org/1999/xlink" x="0px" y="0px"
	 viewBox="0 0 49.996 49.996" style="enable-background:new 0 0 49.996 49.996;" xml:space="preserve">
<g id="CustomLayout">
	<path style="fill:#353942;" d="M2.5,0C1.119,0,0,1.119,0,2.5v44.996c0,1.381,1.119,2.5,2.5,2.5h44.996c1.381,0,2.5-1.119,2.5-2.5
		V2.5c0-1.381-1.119-2.5-2.5-2.5H2.5z"/>
	<path style="fill:#5B616B;" d="M22.622,11.498H12.497c-0.552,0-1,0.448-1,1v12.625c0,0.552,0.448,1,1,1h10.125c0.552,0,1-0.448,1-1
		V12.498C23.622,11.946,23.174,11.498,22.622,11.498z M21.622,24.123h-8.125V13.498h8.125V24.123z M22.622,28.873H12.497
		c-0.552,0-1,0.448-1,1v7.625c0,0.552,0.448,1,1,1h10.125c0.552,0,1-0.448,1-1v-7.625C23.622,29.321,23.174,28.873,22.622,28.873z
		 M21.622,36.498h-8.125v-5.625h8.125V36.498z M37.497,11.498H27.372c-0.552,0-1,0.448-1,1v7.625c0,0.552,0.448,1,1,1h10.125
		c0.552,0,1-0.448,1-1v-7.625C38.497,11.946,38.049,11.498,37.497,11.498z M36.497,19.123h-8.125v-5.625h8.125V19.123z
		 M37.497,23.873H27.372c-0.552,0-1,0.448-1,1v12.625c0,0.552,0.448,1,1,1h10.125c0.552,0,1-0.448,1-1V24.873
		C38.497,24.321,38.049,23.873,37.497,23.873z M36.497,36.498h-8.125V25.873h8.125V36.498z"/>
</g>
<g id="Layer_1">
</g>
</svg>
