<?xml version="1.0" encoding="iso-8859-1"?>
<!-- Generator: Adobe Illustrator 21.1.0, SVG Export Plug-In . SVG Version: 6.00 Build 0)  -->
<svg version="1.1" xmlns="http://www.w3.org/2000/svg" xmlns:xlink="http://www.w3.org/1999/xlink" x="0px" y="0px"
	 viewBox="0 0 49.996 49.996" style="enable-background:new 0 0 49.996 49.996;" xml:space="preserve">
<g id="DeleteStudyLayout">
	<path style="fill:#353942;" d="M2.5,0C1.119,0,0,1.119,0,2.5v44.996c0,1.381,1.119,2.5,2.5,2.5h44.996c1.381,0,2.5-1.119,2.5-2.5
		V2.5c0-1.381-1.119-2.5-2.5-2.5H2.5z"/>
	<g>
		<path style="opacity:0.6;fill:#5B616B;" d="M30.309,11.498H12.497c-0.552,0-1,0.448-1,1V30.31c0,0.552,0.448,1,1,1h10.625
			c0.552,0,1-0.448,1-1s-0.448-1-1-1h-1.906v-6.719c0-0.552-0.448-1-1-1h-6.719v-8.094h15.813v9.625c0,0.552,0.448,1,1,1
			s1-0.448,1-1V12.498C31.309,11.946,30.862,11.498,30.309,11.498z M19.216,23.592v5.719h-5.719v-5.719H19.216z"/>
		<path style="fill:#5B616B;" d="M30.309,22.123c-4.515,0-8.188,3.673-8.188,8.188s3.673,8.187,8.188,8.187s8.188-3.673,8.188-8.187
			S34.824,22.123,30.309,22.123z M30.309,36.498c-3.412,0-6.188-2.776-6.188-6.187s2.776-6.188,6.188-6.188s6.188,2.776,6.188,6.188
			S33.721,36.498,30.309,36.498z M33.516,27.103c-0.391-0.391-1.023-0.391-1.414,0l-1.793,1.793l-1.793-1.793
			c-0.391-0.391-1.023-0.391-1.414,0s-0.391,1.023,0,1.414l1.793,1.793l-1.793,1.793c-0.391,0.391-0.391,1.023,0,1.414
			c0.195,0.195,0.451,0.293,0.707,0.293s0.512-0.098,0.707-0.293l1.793-1.793l1.793,1.793c0.195,0.195,0.451,0.293,0.707,0.293
			s0.512-0.098,0.707-0.293c0.391-0.391,0.391-1.023,0-1.414l-1.793-1.793l1.793-1.793C33.907,28.127,33.907,27.494,33.516,27.103z"
			/>
	</g>
</g>
<g id="Layer_1">
</g>
</svg>
