<?xml version="1.0" encoding="iso-8859-1"?>
<!-- Generator: Adobe Illustrator 21.1.0, SVG Export Plug-In . SVG Version: 6.00 Build 0)  -->
<svg version="1.1" xmlns="http://www.w3.org/2000/svg" xmlns:xlink="http://www.w3.org/1999/xlink" x="0px" y="0px"
	 viewBox="0 0 49.996 49.996" style="enable-background:new 0 0 49.996 49.996;" xml:space="preserve">
<g id="DeleteAnn">
	<path style="fill:#353942;" d="M2.5,0C1.119,0,0,1.119,0,2.5v44.996c0,1.381,1.119,2.5,2.5,2.5h44.996c1.381,0,2.5-1.119,2.5-2.5
		V2.5c0-1.381-1.119-2.5-2.5-2.5H2.5z"/>
	<g>
		<g style="opacity:0.6;">
			<g>
				<path style="fill:#5B616B;" d="M37.497,34.54h-4.75c-0.552,0-1-0.448-1-1s0.448-1,1-1h3.75V13.498h-18.25v2.958
					c0,0.552-0.448,1-1,1s-1-0.448-1-1v-3.958c0-0.552,0.448-1,1-1h20.25c0.552,0,1,0.448,1,1V33.54
					C38.497,34.092,38.049,34.54,37.497,34.54z"/>
			</g>
		</g>
		<path style="fill:#5B616B;" d="M32.747,15.456h-20.25c-0.552,0-1,0.448-1,1v21.042c0,0.552,0.448,1,1,1h20.25c0.552,0,1-0.448,1-1
			V16.456C33.747,15.904,33.299,15.456,32.747,15.456z M31.747,36.498h-18.25V17.456h18.25V36.498z M17.957,31.642
			c0.195,0.195,0.451,0.293,0.707,0.293s0.512-0.098,0.707-0.293l3.251-3.251l3.251,3.251c0.195,0.195,0.451,0.293,0.707,0.293
			s0.512-0.098,0.707-0.293c0.391-0.391,0.391-1.023,0-1.414l-3.251-3.251l3.251-3.251c0.391-0.39,0.391-1.024,0-1.414
			c-0.391-0.391-1.023-0.391-1.414,0l-3.251,3.251l-3.251-3.251c-0.39-0.391-1.024-0.391-1.414,0c-0.391,0.39-0.391,1.024,0,1.414
			l3.251,3.251l-3.251,3.251C17.566,30.619,17.566,31.251,17.957,31.642z"/>
	</g>
</g>
<g id="Layer_1">
</g>
</svg>
