<?xml version="1.0" encoding="iso-8859-1"?>
<!-- Generator: Adobe Illustrator 21.1.0, SVG Export Plug-In . SVG Version: 6.00 Build 0)  -->
<svg version="1.1" id="Layer_1" xmlns="http://www.w3.org/2000/svg" xmlns:xlink="http://www.w3.org/1999/xlink" x="0px" y="0px"
	 viewBox="0 0 49.996 49.996" style="enable-background:new 0 0 49.996 49.996;" xml:space="preserve">
<path style="fill:#353942;" d="M2.503,0.002c-1.381,0-2.5,1.119-2.5,2.5v44.996c0,1.381,1.119,2.5,2.5,2.5h44.996
	c1.381,0,2.5-1.119,2.5-2.5V2.502c0-1.381-1.119-2.5-2.5-2.5C47.499,0.002,2.503,0.002,2.503,0.002z"/>
<path style="fill:#5B616B;" d="M25,11.5c-7.444,0-13.5,6.056-13.5,13.5S17.556,38.5,25,38.5S38.5,32.444,38.5,25
	S32.444,11.5,25,11.5z M25,36.5c-6.341,0-11.5-5.159-11.5-11.5S18.659,13.5,25,13.5S36.5,18.659,36.5,25S31.341,36.5,25,36.5z
	 M30.291,19.71c-0.391-0.391-1.023-0.391-1.414,0L25,23.586l-3.876-3.876c-0.39-0.391-1.024-0.391-1.414,0
	c-0.391,0.39-0.391,1.024,0,1.414L23.586,25l-3.876,3.876c-0.391,0.391-0.391,1.023,0,1.414c0.195,0.195,0.451,0.293,0.707,0.293
	s0.512-0.098,0.707-0.293L25,26.414l3.876,3.876c0.195,0.195,0.451,0.293,0.707,0.293s0.512-0.098,0.707-0.293
	c0.391-0.391,0.391-1.023,0-1.414L26.414,25l3.876-3.876C30.681,20.733,30.681,20.1,30.291,19.71z"/>
<g id="Layer_1_1_">
</g>
</svg>
