<?xml version="1.0" encoding="iso-8859-1"?>
<!-- Generator: Adobe Illustrator 21.1.0, SVG Export Plug-In . SVG Version: 6.00 Build 0)  -->
<svg version="1.1" xmlns="http://www.w3.org/2000/svg" xmlns:xlink="http://www.w3.org/1999/xlink" x="0px" y="0px"
	 viewBox="0 0 49.996 49.996" style="enable-background:new 0 0 49.996 49.996;" xml:space="preserve">
<g id="DeleteSeriesLayout">
	<path style="fill:#353942;" d="M2.5,0C1.119,0,0,1.119,0,2.5v44.996c0,1.381,1.119,2.5,2.5,2.5h44.996c1.381,0,2.5-1.119,2.5-2.5
		V2.5c0-1.381-1.119-2.5-2.5-2.5H2.5z"/>
	<g>
		<path style="opacity:0.6;fill:#5B616B;" d="M22.617,11.498H12.492c-0.552,0-1,0.448-1,1v10.125c0,0.552,0.448,1,1,1h10.125
			c0.552,0,1-0.448,1-1V12.498C23.617,11.946,23.169,11.498,22.617,11.498z M21.617,21.623h-8.125v-8.125h8.125V21.623z
			 M22.59,26.373H12.465c-0.552,0-1,0.448-1,1v10.125c0,0.552,0.448,1,1,1H22.59c0.552,0,1-0.448,1-1V27.373
			C23.59,26.821,23.142,26.373,22.59,26.373z M21.59,36.498h-8.125v-8.125h8.125V36.498z M37.492,11.498H27.367
			c-0.552,0-1,0.448-1,1v10.125c0,0.552,0.448,1,1,1h10.125c0.552,0,1-0.448,1-1V12.498C38.492,11.946,38.044,11.498,37.492,11.498z
			 M36.492,21.623h-8.125v-8.125h8.125V21.623z"/>
		<path style="fill:#5B616B;" d="M33.843,32.42l4.371-4.371c0.391-0.391,0.391-1.023,0-1.414s-1.023-0.391-1.414,0l-4.371,4.371
			l-4.371-4.371c-0.391-0.391-1.023-0.391-1.414,0s-0.391,1.023,0,1.414l4.371,4.371l-4.371,4.371c-0.391,0.391-0.391,1.023,0,1.414
			c0.195,0.195,0.451,0.293,0.707,0.293s0.512-0.098,0.707-0.293l4.371-4.371l4.371,4.371c0.195,0.195,0.451,0.293,0.707,0.293
			s0.512-0.098,0.707-0.293c0.391-0.391,0.391-1.023,0-1.414L33.843,32.42z"/>
	</g>
</g>
<g id="Layer_1">
</g>
</svg>
