<?xml version="1.0" encoding="iso-8859-1"?>
<!-- Generator: Adobe Illustrator 21.1.0, SVG Export Plug-In . SVG Version: 6.00 Build 0)  -->
<svg version="1.1" xmlns="http://www.w3.org/2000/svg" xmlns:xlink="http://www.w3.org/1999/xlink" x="0px" y="0px"
	 viewBox="0 0 49.996 49.996" style="enable-background:new 0 0 49.996 49.996;" xml:space="preserve">
<g id="DeleteTemplate">
	<path style="fill:#353942;" d="M2.5,0C1.119,0,0,1.119,0,2.5v44.996c0,1.381,1.119,2.5,2.5,2.5h44.996c1.381,0,2.5-1.119,2.5-2.5
		V2.5c0-1.381-1.119-2.5-2.5-2.5H2.5z"/>
	<g>
		<g style="opacity:0.6;">
			<g>
				<path style="fill:#5B616B;" d="M34.997,38.498h-20c-1.93,0-3.5-1.57-3.5-3.5v-20c0-1.93,1.57-3.5,3.5-3.5h20
					c1.93,0,3.5,1.57,3.5,3.5v20C38.497,36.928,36.927,38.498,34.997,38.498z M14.997,13.498c-0.827,0-1.5,0.673-1.5,1.5v20
					c0,0.827,0.673,1.5,1.5,1.5h20c0.827,0,1.5-0.673,1.5-1.5v-20c0-0.827-0.673-1.5-1.5-1.5H14.997z"/>
			</g>
		</g>
		<path style="fill:#5B616B;" d="M26.411,24.998l3.876-3.876c0.391-0.39,0.391-1.024,0-1.414c-0.391-0.391-1.023-0.391-1.414,0
			l-3.876,3.876l-3.876-3.876c-0.39-0.391-1.024-0.391-1.414,0c-0.391,0.39-0.391,1.024,0,1.414l3.876,3.876l-3.876,3.876
			c-0.391,0.391-0.391,1.023,0,1.414c0.195,0.195,0.451,0.293,0.707,0.293s0.512-0.098,0.707-0.293l3.876-3.876l3.876,3.876
			c0.195,0.195,0.451,0.293,0.707,0.293s0.512-0.098,0.707-0.293c0.391-0.391,0.391-1.023,0-1.414L26.411,24.998z"/>
	</g>
</g>
<g id="Layer_1">
</g>
</svg>
