<?xml version="1.0" encoding="iso-8859-1"?>
<!-- Generator: Adobe Illustrator 21.1.0, SVG Export Plug-In . SVG Version: 6.00 Build 0)  -->
<svg version="1.1" xmlns="http://www.w3.org/2000/svg" xmlns:xlink="http://www.w3.org/1999/xlink" x="0px" y="0px"
	 viewBox="0 0 49.996 49.996" style="enable-background:new 0 0 49.996 49.996;" xml:space="preserve">
<g id="Dentin">
	<path style="fill:#353942;" d="M2.5,0C1.119,0,0,1.119,0,2.5v44.996c0,1.381,1.119,2.5,2.5,2.5h44.996c1.381,0,2.5-1.119,2.5-2.5
		V2.5c0-1.381-1.119-2.5-2.5-2.5H2.5z"/>
	<path style="fill:#5B616B;" d="M35.66,14.517c-2.436-3.477-6.45-3.994-10.773-1.399c-1.447-0.892-3.159-1.572-4.97-1.509
		c-2,0.071-3.742,1.035-5.179,2.865c-2.345,2.985-1.436,6.041-0.556,8.996c0.471,1.583,0.958,3.22,0.958,4.875
		c0,7.011,2.53,10.149,5.038,10.149c2.858,0,3.307-3.397,3.703-6.396c0.217-1.641,0.545-4.121,1.284-4.121
		c0.742,0,1.078,2.482,1.301,4.125c0.406,2.996,0.867,6.392,3.722,6.392c2.507,0,5.038-3.138,5.038-10.149
		c0-1.728,0.4-3.508,0.787-5.23C36.72,19.961,37.389,16.984,35.66,14.517z M34.061,22.675c-0.411,1.829-0.835,3.719-0.835,5.669
		c0,5.621-1.776,8.149-3.038,8.149c-1.108,0-1.458-2.584-1.74-4.661c-0.372-2.745-0.794-5.855-3.283-5.855
		c-2.492,0-2.904,3.113-3.267,5.859c-0.274,2.075-0.616,4.657-1.72,4.657c-1.261,0-3.038-2.528-3.038-8.149
		c0-1.946-0.53-3.725-1.042-5.445c-0.835-2.804-1.494-5.019,0.212-7.19c1.072-1.364,2.274-2.051,3.677-2.101
		c2.133-0.085,4.782,1.409,7.105,3.969c0.372,0.408,1.003,0.44,1.413,0.069c0.409-0.371,0.44-1.003,0.069-1.412
		c-0.425-0.468-1.077-1.136-1.899-1.82c2.114-1.07,5.201-1.81,7.347,1.252C35.244,17.408,34.695,19.849,34.061,22.675z
		 M19.913,15.193c-0.15,0.049-1.488,0.529-2.221,2.142c-0.751,1.653-0.568,3.823,0.544,6.448c0.162,0.381,0.532,0.61,0.921,0.61
		c0.13,0,0.262-0.026,0.39-0.079c0.509-0.216,0.746-0.802,0.531-1.311c-0.86-2.03-1.063-3.689-0.585-4.796
		c0.361-0.838,1.008-1.1,1.059-1.119c0.515-0.178,0.794-0.738,0.623-1.257C21.003,15.306,20.438,15.02,19.913,15.193z"/>
</g>
<g id="Layer_1">
</g>
</svg>
