<?xml version="1.0" encoding="iso-8859-1"?>
<!-- Generator: Adobe Illustrator 21.1.0, SVG Export Plug-In . SVG Version: 6.00 Build 0)  -->
<svg version="1.1" xmlns="http://www.w3.org/2000/svg" xmlns:xlink="http://www.w3.org/1999/xlink" x="0px" y="0px"
	 viewBox="0 0 49.996 49.996" style="enable-background:new 0 0 49.996 49.996;" xml:space="preserve">
<g id="DrawTemplateBox">
	<path style="fill:#353942;" d="M2.5,0C1.119,0,0,1.119,0,2.5v44.996c0,1.381,1.119,2.5,2.5,2.5h44.996c1.381,0,2.5-1.119,2.5-2.5
		V2.5c0-1.381-1.119-2.5-2.5-2.5H2.5z"/>
	<path style="fill:#5B616B;" d="M17.934,33.061h4.636c0.265,0,0.52-0.105,0.707-0.293l14.301-14.301
		c0.592-0.592,0.918-1.38,0.918-2.217c0-0.837-0.326-1.625-0.918-2.217l-1.617-1.617v0c-1.223-1.222-3.211-1.222-4.434,0
		L17.227,26.718c-0.188,0.188-0.293,0.442-0.293,0.707v4.636C16.934,32.614,17.382,33.061,17.934,33.061z M32.942,13.831
		c0.442-0.443,1.163-0.443,1.605,0l1.617,1.617c0.214,0.214,0.333,0.499,0.333,0.802c0,0.303-0.118,0.588-0.333,0.803l-1.257,1.257
		l-3.222-3.222L32.942,13.831z M32.589,18.82l0.904,0.904L22.156,31.061h-1.808L32.589,18.82z M18.934,27.839l11.337-11.337
		l0.904,0.904L18.934,29.647V27.839z M37.497,36.499h-25c-0.552,0-1,0.448-1,1s0.448,1,1,1h25c0.552,0,1-0.448,1-1
		S38.049,36.499,37.497,36.499z"/>
</g>
<g id="Layer_1">
</g>
</svg>
