<?xml version="1.0" encoding="iso-8859-1"?>
<!-- Generator: Adobe Illustrator 21.1.0, SVG Export Plug-In . SVG Version: 6.00 Build 0)  -->
<svg version="1.1" id="Layer_1" xmlns="http://www.w3.org/2000/svg" xmlns:xlink="http://www.w3.org/1999/xlink" x="0px" y="0px"
	 viewBox="0 0 49.996 49.996" style="enable-background:new 0 0 49.996 49.996;" xml:space="preserve">
<path style="fill:#353942;" d="M2.503,0.002c-1.381,0-2.5,1.119-2.5,2.5v44.996c0,1.381,1.119,2.5,2.5,2.5h44.996
	c1.381,0,2.5-1.119,2.5-2.5V2.502c0-1.381-1.119-2.5-2.5-2.5C47.499,0.002,2.503,0.002,2.503,0.002z"/>
<path style="fill:#5B616B;" d="M24.941,18.056c-0.795-0.45-1.722-0.776-2.701-0.743c-1.204,0.043-2.291,0.638-3.142,1.722
	c-1.414,1.799-0.864,3.645-0.379,5.273c0.256,0.861,0.498,1.675,0.498,2.501c0,4.385,1.713,5.941,3.18,5.941
	c1.947,0,2.241-2.227,2.456-3.854c0.055-0.415,0.134-1.015,0.239-1.438c0.107,0.424,0.188,1.025,0.245,1.441
	c0.22,1.625,0.522,3.85,2.466,3.85c1.467,0,3.18-1.556,3.18-5.941c0-0.882,0.21-1.818,0.414-2.723
	c0.387-1.725,0.788-3.508-0.262-5.007C29.731,17.076,27.384,16.701,24.941,18.056z M29.445,23.647
	c-0.228,1.012-0.462,2.058-0.462,3.162c0,2.956-0.93,3.941-1.141,3.96c-0.262-0.215-0.432-1.466-0.523-2.138
	c-0.215-1.586-0.482-3.56-2.229-3.56c-1.749,0-2.01,1.976-2.22,3.563c-0.086,0.651-0.244,1.847-0.492,2.114
	c-0.274-0.045-1.162-1.053-1.162-3.939c0-1.118-0.309-2.156-0.582-3.071c-0.472-1.585-0.703-2.528,0.035-3.467
	c0.49-0.624,1.027-0.937,1.641-0.959c1.198-0.052,2.581,1.002,3.48,1.993c0.372,0.409,1.004,0.44,1.413,0.069
	s0.44-1.003,0.069-1.412c-0.136-0.149-0.312-0.334-0.523-0.537c0.953-0.325,1.987-0.282,2.748,0.803
	C30.039,21.001,29.764,22.228,29.445,23.647z M35,11.5H15c-1.93,0-3.5,1.57-3.5,3.5v20c0,1.93,1.57,3.5,3.5,3.5h20
	c1.93,0,3.5-1.57,3.5-3.5V15C38.5,13.07,36.93,11.5,35,11.5z M36.5,35c0,0.827-0.673,1.5-1.5,1.5H15c-0.827,0-1.5-0.673-1.5-1.5V15
	c0-0.827,0.673-1.5,1.5-1.5h20c0.827,0,1.5,0.673,1.5,1.5V35z"/>
<g id="Layer_1_1_">
</g>
</svg>
