<?xml version="1.0" encoding="iso-8859-1"?>
<!-- Generator: Adobe Illustrator 21.1.0, SVG Export Plug-In . SVG Version: 6.00 Build 0)  -->
<svg version="1.1" xmlns="http://www.w3.org/2000/svg" xmlns:xlink="http://www.w3.org/1999/xlink" x="0px" y="0px"
	 viewBox="0 0 49.996 49.996" style="enable-background:new 0 0 49.996 49.996;" xml:space="preserve">
<g id="Export">
	<path style="fill:#353942;" d="M2.5,0C1.119,0,0,1.119,0,2.5v44.996c0,1.381,1.119,2.5,2.5,2.5h44.996c1.381,0,2.5-1.119,2.5-2.5
		V2.5c0-1.381-1.119-2.5-2.5-2.5H2.5z"/>
	<path style="fill:#5B616B;" d="M29.284,31.797l-3.287,3.287v-9.086c0-0.552-0.448-1-1-1s-1,0.448-1,1v9.086l-3.287-3.287
		c-0.39-0.391-1.024-0.391-1.414,0c-0.391,0.391-0.391,1.023,0,1.414l4.993,4.993c0.046,0.046,0.097,0.088,0.152,0.124
		c0.013,0.009,0.028,0.015,0.042,0.023c0.042,0.025,0.084,0.05,0.13,0.069c0.019,0.008,0.04,0.012,0.059,0.018
		c0.042,0.014,0.083,0.03,0.127,0.039c0.065,0.013,0.131,0.02,0.198,0.02s0.133-0.007,0.198-0.02
		c0.044-0.009,0.086-0.024,0.127-0.039c0.02-0.007,0.04-0.01,0.059-0.018c0.046-0.019,0.088-0.044,0.13-0.069
		c0.014-0.008,0.029-0.014,0.042-0.023c0.055-0.037,0.105-0.078,0.152-0.124l4.993-4.993c0.391-0.391,0.391-1.023,0-1.414
		C30.307,31.406,29.675,31.406,29.284,31.797z M34.997,11.498h-20c-1.93,0-3.5,1.57-3.5,3.5v20c0,1.93,1.57,3.5,3.5,3.5h2.688
		c0.552,0,1-0.448,1-1s-0.448-1-1-1h-2.688c-0.827,0-1.5-0.673-1.5-1.5V22.081c0-0.827,0.673-1.5,1.5-1.5h20
		c0.827,0,1.5,0.673,1.5,1.5v12.917c0,0.827-0.673,1.5-1.5,1.5h-2.688c-0.552,0-1,0.448-1,1s0.448,1,1,1h2.688
		c1.93,0,3.5-1.57,3.5-3.5v-20C38.497,13.068,36.927,11.498,34.997,11.498z M36.497,18.924c-0.455-0.217-0.963-0.343-1.5-0.343h-20
		c-0.537,0-1.045,0.125-1.5,0.342v-3.926c0-0.827,0.673-1.5,1.5-1.5h20c0.827,0,1.5,0.673,1.5,1.5V18.924z M27.27,15.079
		c-0.531,0-0.961,0.43-0.961,0.961c0,0.531,0.43,0.961,0.961,0.961c0.53,0,0.961-0.43,0.961-0.961
		C28.23,15.509,27.8,15.079,27.27,15.079z M30.622,15.079c-0.53,0-0.961,0.43-0.961,0.961c0,0.531,0.43,0.961,0.961,0.961
		s0.961-0.43,0.961-0.961C31.582,15.509,31.152,15.079,30.622,15.079z M33.974,15.079c-0.53,0-0.961,0.43-0.961,0.961
		c0,0.531,0.43,0.961,0.961,0.961c0.531,0,0.961-0.43,0.961-0.961C34.934,15.509,34.504,15.079,33.974,15.079z"/>
</g>
<g id="Layer_1">
</g>
</svg>
