<?xml version="1.0" encoding="iso-8859-1"?>
<!-- Generator: Adobe Illustrator 21.1.0, SVG Export Plug-In . SVG Version: 6.00 Build 0)  -->
<svg version="1.1" xmlns="http://www.w3.org/2000/svg" xmlns:xlink="http://www.w3.org/1999/xlink" x="0px" y="0px"
	 viewBox="0 0 49.996 49.996" style="enable-background:new 0 0 49.996 49.996;" xml:space="preserve">
<g id="FitImage">
	<path style="fill:#353942;" d="M2.5,0C1.119,0,0,1.119,0,2.5v44.996c0,1.381,1.119,2.5,2.5,2.5h44.996c1.381,0,2.5-1.119,2.5-2.5
		V2.5c0-1.381-1.119-2.5-2.5-2.5H2.5z"/>
	<path style="fill:#5B616B;" d="M20.872,14.073c-0.552,0-1,0.448-1,1v3.386l-6.668-6.668c-0.39-0.391-1.024-0.391-1.414,0
		c-0.391,0.39-0.391,1.024,0,1.414l6.668,6.668h-3.386c-0.552,0-1,0.448-1,1s0.448,1,1,1h5.8c0.066,0,0.131-0.007,0.196-0.02
		c0.03-0.006,0.057-0.017,0.085-0.025c0.034-0.01,0.068-0.018,0.101-0.031c0.033-0.014,0.063-0.033,0.095-0.05
		c0.026-0.014,0.053-0.025,0.077-0.042c0.11-0.073,0.204-0.167,0.277-0.277c0.016-0.024,0.027-0.051,0.041-0.076
		c0.017-0.032,0.036-0.062,0.05-0.096c0.014-0.033,0.021-0.067,0.031-0.101c0.008-0.029,0.02-0.056,0.025-0.086
		c0.013-0.065,0.02-0.13,0.02-0.196v-5.8C21.872,14.521,21.424,14.073,20.872,14.073z M28.167,21.154
		c0.01,0.034,0.018,0.068,0.031,0.101c0.014,0.034,0.033,0.064,0.05,0.096c0.014,0.025,0.025,0.052,0.041,0.076
		c0.073,0.11,0.168,0.204,0.277,0.277c0.024,0.016,0.049,0.027,0.074,0.04c0.032,0.018,0.064,0.037,0.098,0.052
		c0.033,0.013,0.066,0.021,0.1,0.031c0.029,0.009,0.057,0.02,0.087,0.026c0.065,0.013,0.13,0.02,0.196,0.02h5.8c0.552,0,1-0.448,1-1
		s-0.448-1-1-1h-3.386l6.668-6.668c0.391-0.39,0.391-1.024,0-1.414c-0.391-0.391-1.023-0.391-1.414,0l-6.668,6.668v-3.386
		c0-0.552-0.448-1-1-1s-1,0.448-1,1v5.8c0,0.066,0.007,0.131,0.02,0.196C28.148,21.098,28.159,21.126,28.167,21.154z M31.536,30.123
		h3.386c0.552,0,1-0.448,1-1s-0.448-1-1-1h-5.8c-0.066,0-0.131,0.007-0.196,0.02c-0.03,0.006-0.058,0.017-0.087,0.026
		c-0.033,0.01-0.067,0.018-0.1,0.031c-0.034,0.014-0.066,0.034-0.098,0.052c-0.025,0.014-0.05,0.024-0.074,0.04
		c-0.11,0.073-0.204,0.168-0.277,0.277c-0.016,0.024-0.027,0.049-0.04,0.074c-0.018,0.032-0.037,0.064-0.052,0.098
		c-0.013,0.033-0.021,0.066-0.031,0.1c-0.009,0.029-0.02,0.057-0.026,0.087c-0.013,0.065-0.02,0.13-0.02,0.196v5.8
		c0,0.552,0.448,1,1,1s1-0.448,1-1v-3.386l6.668,6.668c0.195,0.195,0.451,0.293,0.707,0.293s0.512-0.098,0.707-0.293
		c0.391-0.391,0.391-1.023,0-1.414L31.536,30.123z M21.826,28.841c-0.01-0.033-0.018-0.067-0.031-0.1
		c-0.014-0.034-0.034-0.066-0.052-0.098c-0.014-0.025-0.024-0.05-0.04-0.074c-0.073-0.11-0.167-0.204-0.277-0.277
		c-0.025-0.017-0.053-0.029-0.079-0.043c-0.031-0.017-0.06-0.036-0.093-0.049c-0.033-0.014-0.068-0.022-0.103-0.032
		c-0.028-0.008-0.055-0.019-0.084-0.025c-0.065-0.013-0.13-0.02-0.196-0.02h-5.8c-0.552,0-1,0.448-1,1s0.448,1,1,1h3.386
		l-6.668,6.668c-0.391,0.391-0.391,1.023,0,1.414c0.195,0.195,0.451,0.293,0.707,0.293s0.512-0.098,0.707-0.293l6.668-6.668v3.386
		c0,0.552,0.448,1,1,1s1-0.448,1-1v-5.8c0-0.066-0.007-0.131-0.02-0.196C21.846,28.897,21.835,28.869,21.826,28.841z M24.997,22.826
		c-1.199,0-2.172,0.972-2.172,2.172s0.972,2.172,2.172,2.172s2.172-0.972,2.172-2.172S26.196,22.826,24.997,22.826z"/>
</g>
<g id="Layer_1">
</g>
</svg>
