<?xml version="1.0" encoding="iso-8859-1"?>
<!-- Generator: Adobe Illustrator 21.1.0, SVG Export Plug-In . SVG Version: 6.00 Build 0)  -->
<svg version="1.1" xmlns="http://www.w3.org/2000/svg" xmlns:xlink="http://www.w3.org/1999/xlink" x="0px" y="0px"
	 viewBox="0 0 49.996 49.996" style="enable-background:new 0 0 49.996 49.996;" xml:space="preserve">
<g id="Flip">
	<path style="fill:#353942;" d="M2.5,0C1.119,0,0,1.119,0,2.5v44.996c0,1.381,1.119,2.5,2.5,2.5h44.996c1.381,0,2.5-1.119,2.5-2.5
		V2.5c0-1.381-1.119-2.5-2.5-2.5H2.5z"/>
	<path style="fill:#5B616B;" d="M27.497,25.998c0.552,0,1-0.448,1-1s-0.448-1-1-1h-5c-0.552,0-1,0.448-1,1s0.448,1,1,1H27.497z
		 M37.497,23.998h-5c-0.552,0-1,0.448-1,1s0.448,1,1,1h5c0.552,0,1-0.448,1-1S38.049,23.998,37.497,23.998z M17.497,23.998h-5
		c-0.552,0-1,0.448-1,1s0.448,1,1,1h5c0.552,0,1-0.448,1-1S18.049,23.998,17.497,23.998z M28.227,15.447l-2.23,2.23v-5.18
		c0-0.552-0.448-1-1-1s-1,0.448-1,1v5.18l-2.23-2.23c-0.39-0.391-1.024-0.391-1.414,0c-0.391,0.39-0.391,1.024,0,1.414l3.937,3.937
		c0.047,0.047,0.098,0.088,0.153,0.125c0.025,0.017,0.052,0.028,0.077,0.042c0.031,0.017,0.062,0.036,0.095,0.05
		c0.033,0.014,0.067,0.021,0.101,0.031c0.029,0.008,0.056,0.019,0.085,0.025c0.065,0.013,0.13,0.02,0.196,0.02
		s0.131-0.007,0.196-0.02c0.03-0.006,0.058-0.017,0.087-0.026c0.033-0.01,0.067-0.018,0.1-0.031
		c0.034-0.014,0.066-0.034,0.098-0.052c0.025-0.014,0.05-0.024,0.074-0.04c0.055-0.037,0.107-0.079,0.153-0.125l3.937-3.937
		c0.391-0.39,0.391-1.024,0-1.414C29.251,15.057,28.618,15.057,28.227,15.447z M25.704,29.197c-0.391-0.391-1.024-0.391-1.414,0
		l-3.938,3.937c-0.391,0.391-0.391,1.023,0,1.414c0.39,0.391,1.024,0.391,1.414,0l2.23-2.23v5.18c0,0.552,0.448,1,1,1s1-0.448,1-1
		v-5.18l2.23,2.23c0.195,0.195,0.451,0.293,0.707,0.293s0.512-0.098,0.707-0.293c0.391-0.391,0.391-1.023,0-1.414L25.704,29.197z"/>
</g>
<g id="Layer_1">
</g>
</svg>
