<?xml version="1.0" encoding="iso-8859-1"?>
<!-- Generator: Adobe Illustrator 21.1.0, SVG Export Plug-In . SVG Version: 6.00 Build 0)  -->
<svg version="1.1" xmlns="http://www.w3.org/2000/svg" xmlns:xlink="http://www.w3.org/1999/xlink" x="0px" y="0px"
	 viewBox="0 0 49.996 49.996" style="enable-background:new 0 0 49.996 49.996;" xml:space="preserve">
<g id="FMX18">
	<path style="fill:#353942;" d="M2.5,0C1.119,0,0,1.119,0,2.5v44.996c0,1.381,1.119,2.5,2.5,2.5h44.996c1.381,0,2.5-1.119,2.5-2.5
		V2.5c0-1.381-1.119-2.5-2.5-2.5H2.5z"/>
	<path style="fill:#5B616B;" d="M17.218,17.29v-0.961c0-0.276-0.224-0.5-0.5-0.5H12.79c-0.138,0-0.25-0.112-0.25-0.25v-1.587
		c0-0.139,0.112-0.25,0.25-0.25h4.558c0.276,0,0.5-0.224,0.5-0.5v-0.962c0-0.276-0.224-0.5-0.5-0.5h-6.465
		c-0.276,0-0.5,0.223-0.5,0.5v8.805c0,0.276,0.224,0.5,0.5,0.5h1.157c0.276,0,0.5-0.223,0.5-0.5V18.04c0-0.138,0.112-0.25,0.25-0.25
		h3.928C16.994,17.79,17.218,17.566,17.218,17.29z M24.44,19.373c0.017,0,0.034-0.009,0.043-0.023l2.607-3.956
		c0.041-0.063,0.138-0.033,0.138,0.041v5.651c0,0.276,0.224,0.5,0.5,0.5h1.143c0.276,0,0.5-0.223,0.5-0.5v-8.805
		c0-0.276-0.224-0.5-0.5-0.5h-1.325c-0.31,0-0.6,0.161-0.764,0.425L24.6,15.715c-0.06,0.098-0.203,0.098-0.264,0l-2.181-3.509
		c-0.164-0.264-0.454-0.425-0.764-0.425h-1.325c-0.276,0-0.5,0.223-0.5,0.5v8.805c0,0.276,0.224,0.5,0.5,0.5h1.115
		c0.276,0,0.5-0.223,0.5-0.5v-5.609c0-0.074,0.097-0.104,0.138-0.041l2.578,3.914C24.407,19.364,24.423,19.373,24.44,19.373z
		 M35.775,18.433l1.788,2.734c0.17,0.26,0.463,0.418,0.774,0.418h1.521c0.213,0,0.338-0.237,0.218-0.413l-2.995-4.395
		c-0.084-0.124-0.084-0.288,0.001-0.412l2.854-4.171c0.12-0.176-0.006-0.413-0.218-0.413h-1.451c-0.311,0-0.604,0.157-0.775,0.418
		l-1.676,2.553c-0.064,0.098-0.209,0.097-0.272-0.001l-1.639-2.549c-0.168-0.262-0.459-0.421-0.77-0.421h-1.521
		c-0.212,0-0.338,0.237-0.219,0.413l2.856,4.199c0.084,0.125,0.084,0.289-0.001,0.413l-2.993,4.368
		c-0.12,0.175,0.005,0.412,0.217,0.412h1.452c0.311,0,0.603-0.158,0.775-0.418l1.8-2.734C35.566,18.335,35.711,18.335,35.775,18.433
		z M31.28,31.177c-0.086-0.049-0.133-0.166-0.051-0.221c0.798-0.533,1.306-1.259,1.306-2.418v-0.034
		c0-1.781-1.617-3.166-4.058-3.166c-2.441,0-4.058,1.402-4.058,3.166v0.034c0,1.159,0.508,1.885,1.305,2.418
		c0.081,0.055,0.028,0.168-0.059,0.214c-1.077,0.558-1.642,1.364-1.642,2.678v0.034c0,2.012,1.897,3.331,4.454,3.331
		c2.556,0,4.453-1.254,4.453-3.396v-0.034C32.93,32.497,32.322,31.766,31.28,31.177z M26.828,28.767c0-0.709,0.61-1.335,1.65-1.335
		c1.039,0,1.649,0.643,1.649,1.353v0.032c0,0.809-0.643,1.403-1.649,1.403c-1.006,0-1.65-0.61-1.65-1.419V28.767z M30.473,33.683
		c0,0.809-0.742,1.435-1.996,1.435c-1.254,0-1.996-0.644-1.996-1.435V33.65c0-0.89,0.841-1.418,1.996-1.418
		c1.155,0,1.996,0.528,1.996,1.418V33.683z M15.233,26.171c0.22-0.165,0.283-0.472,0.13-0.701l-0.56-0.844
		c-0.152-0.229-0.452-0.315-0.689-0.175c-2.758,1.626-4.152,3.805-4.152,6.824s1.393,5.198,4.152,6.823
		c0.237,0.14,0.538,0.054,0.689-0.175l0.56-0.844c0.152-0.229,0.09-0.535-0.13-0.701c-1.94-1.453-2.781-2.923-2.781-5.103
		S13.293,27.624,15.233,26.171z M21.275,25.42h-0.746c-0.327,0-0.652,0.047-0.965,0.141l-2.371,0.708
		c-0.264,0.078-0.419,0.351-0.351,0.618l0.285,1.124c0.067,0.264,0.335,0.425,0.6,0.359l1.294-0.319
		c0.122-0.03,0.239,0.063,0.239,0.188v8.317c0,0.272,0.22,0.493,0.493,0.493h1.521c0.272,0,0.493-0.22,0.493-0.493V25.913
		C21.768,25.64,21.547,25.42,21.275,25.42z M35.882,24.451c-0.237-0.14-0.538-0.054-0.689,0.175l-0.56,0.844
		c-0.152,0.229-0.09,0.536,0.13,0.701c1.94,1.453,2.781,2.923,2.781,5.103s-0.841,3.651-2.781,5.103
		c-0.22,0.166-0.283,0.472-0.13,0.701l0.56,0.844c0.152,0.229,0.452,0.315,0.689,0.175c2.758-1.626,4.152-3.804,4.152-6.823
		S38.64,26.077,35.882,24.451z"/>
</g>
<g id="Layer_1">
</g>
</svg>
