<?xml version="1.0" encoding="iso-8859-1"?>
<!-- Generator: Adobe Illustrator 21.1.0, SVG Export Plug-In . SVG Version: 6.00 Build 0)  -->
<svg version="1.1" xmlns="http://www.w3.org/2000/svg" xmlns:xlink="http://www.w3.org/1999/xlink" x="0px" y="0px"
	 viewBox="0 0 49.996 49.996" style="enable-background:new 0 0 49.996 49.996;" xml:space="preserve">
<g id="FMX20">
	<path style="fill:#353942;" d="M2.5,0C1.119,0,0,1.119,0,2.5v44.996c0,1.381,1.119,2.5,2.5,2.5h44.996c1.381,0,2.5-1.119,2.5-2.5
		V2.5c0-1.381-1.119-2.5-2.5-2.5H2.5z"/>
	<path style="fill:#5B616B;" d="M10.853,22.632h1.158c0.276,0,0.5-0.224,0.5-0.5v-3.046c0-0.138,0.112-0.25,0.25-0.25h3.927
		c0.276,0,0.5-0.223,0.5-0.5v-0.961c0-0.276-0.224-0.5-0.5-0.5h-3.927c-0.138,0-0.25-0.112-0.25-0.25v-1.587
		c0-0.139,0.112-0.25,0.25-0.25h4.558c0.276,0,0.5-0.224,0.5-0.5v-0.962c0-0.276-0.224-0.5-0.5-0.5h-6.466
		c-0.276,0-0.5,0.223-0.5,0.5v8.805C10.353,22.408,10.576,22.632,10.853,22.632z M27.198,16.481v5.651c0,0.276,0.224,0.5,0.5,0.5
		h1.144c0.276,0,0.5-0.224,0.5-0.5v-8.805c0-0.276-0.224-0.5-0.5-0.5h-1.326c-0.311,0-0.601,0.161-0.764,0.425l-2.181,3.509
		c-0.061,0.098-0.203,0.098-0.264,0l-2.181-3.509c-0.163-0.264-0.453-0.425-0.764-0.425h-1.325c-0.276,0-0.5,0.223-0.5,0.5v8.805
		c0,0.276,0.224,0.5,0.5,0.5h1.115c0.276,0,0.5-0.224,0.5-0.5v-5.609c0-0.074,0.097-0.104,0.138-0.041l2.578,3.914
		c0.01,0.015,0.026,0.023,0.043,0.023c0.018,0,0.034-0.009,0.044-0.023l2.606-3.956C27.101,16.377,27.198,16.406,27.198,16.481z
		 M31.445,22.632h1.451c0.312,0,0.604-0.158,0.775-0.418l1.8-2.734c0.066-0.099,0.21-0.099,0.274,0l1.789,2.734
		c0.17,0.26,0.462,0.418,0.773,0.418h1.521c0.212,0,0.338-0.237,0.219-0.413l-2.996-4.395c-0.085-0.124-0.084-0.288,0.001-0.412
		l2.854-4.171c0.119-0.176-0.006-0.413-0.218-0.413h-1.451c-0.312,0-0.603,0.157-0.774,0.418l-1.676,2.553
		c-0.064,0.099-0.208,0.097-0.272-0.001l-1.639-2.549c-0.168-0.262-0.46-0.421-0.77-0.421h-1.521c-0.213,0-0.338,0.237-0.219,0.413
		l2.855,4.199c0.085,0.125,0.084,0.289-0.001,0.413l-2.994,4.368C31.108,22.394,31.233,22.632,31.445,22.632z M22.919,34.118h-3.577
		c-0.081,0-0.116-0.103-0.052-0.152l1.419-1.096c1.759-1.362,2.61-2.184,2.61-3.844v-0.028c0-1.858-1.361-3.064-3.419-3.064
		c-1.553,0-2.474,0.554-3.336,1.586c-0.197,0.236-0.218,0.593,0.022,0.785l0.753,0.607c0.198,0.159,0.489,0.187,0.657-0.005
		c0.604-0.69,1.091-1.016,1.761-1.016c0.78,0,1.334,0.453,1.334,1.291c0,0.823-0.482,1.362-1.717,2.383l-2.919,2.393
		c-0.244,0.2-0.387,0.502-0.387,0.817v0.73c0,0.276,0.224,0.5,0.5,0.5h6.349c0.276,0,0.5-0.224,0.5-0.5v-0.887
		C23.419,34.342,23.195,34.118,22.919,34.118z M29.401,25.904c-2.639,0-4.426,2.256-4.426,5.136v0.027
		c0,2.88,1.745,5.107,4.397,5.107c2.653,0,4.427-2.256,4.427-5.134v-0.029C33.799,28.13,32.025,25.904,29.401,25.904z
		 M31.557,31.067c0,1.802-0.837,3.135-2.156,3.135c-1.319,0-2.185-1.347-2.185-3.162v-0.029c0-1.816,0.851-3.135,2.156-3.135
		c1.306,0,2.185,1.362,2.185,3.165V31.067z M15.233,26.171c0.22-0.165,0.283-0.472,0.13-0.701l-0.56-0.844
		c-0.152-0.229-0.452-0.315-0.689-0.175c-2.758,1.626-4.152,3.805-4.152,6.824s1.393,5.198,4.152,6.823
		c0.237,0.14,0.538,0.054,0.689-0.175l0.56-0.844c0.152-0.229,0.09-0.535-0.13-0.701c-1.94-1.453-2.781-2.923-2.781-5.103
		S13.293,27.624,15.233,26.171z M35.882,24.451c-0.237-0.14-0.538-0.054-0.689,0.175l-0.56,0.844
		c-0.152,0.229-0.09,0.536,0.13,0.701c1.94,1.453,2.781,2.923,2.781,5.103s-0.841,3.651-2.781,5.103
		c-0.22,0.166-0.283,0.472-0.13,0.701l0.56,0.844c0.152,0.229,0.452,0.315,0.689,0.175c2.758-1.626,4.152-3.804,4.152-6.823
		S38.64,26.077,35.882,24.451z"/>
</g>
<g id="Layer_1">
</g>
</svg>
