<?xml version="1.0" encoding="iso-8859-1"?>
<!-- Generator: Adobe Illustrator 21.1.0, SVG Export Plug-In . SVG Version: 6.00 Build 0)  -->
<svg version="1.1" xmlns="http://www.w3.org/2000/svg" xmlns:xlink="http://www.w3.org/1999/xlink" x="0px" y="0px"
	 viewBox="0 0 49.996 49.996" style="enable-background:new 0 0 49.996 49.996;" xml:space="preserve">
<g id="Freehand">
	<path style="fill:#353942;" d="M2.5,0C1.119,0,0,1.119,0,2.5v44.996c0,1.381,1.119,2.5,2.5,2.5h44.996c1.381,0,2.5-1.119,2.5-2.5
		V2.5c0-1.381-1.119-2.5-2.5-2.5H2.5z"/>
	<g>
		<path style="opacity:0.6;fill:#5B616B;" d="M37.497,32.748c-0.552,0-1,0.448-1,1v2.75h-2.75c-0.552,0-1,0.448-1,1s0.448,1,1,1
			h3.75c0.552,0,1-0.448,1-1v-3.75C38.497,33.196,38.049,32.748,37.497,32.748z M27.913,36.498H22.08c-0.552,0-1,0.448-1,1
			s0.448,1,1,1h5.833c0.552,0,1-0.448,1-1S28.466,36.498,27.913,36.498z M16.247,36.498h-2.75v-2.75c0-0.552-0.448-1-1-1
			s-1,0.448-1,1v3.75c0,0.552,0.448,1,1,1h3.75c0.552,0,1-0.448,1-1S16.799,36.498,16.247,36.498z M12.497,28.914
			c0.552,0,1-0.448,1-1v-5.833c0-0.552-0.448-1-1-1s-1,0.448-1,1v5.833C11.497,28.467,11.945,28.914,12.497,28.914z M16.247,11.498
			h-3.75c-0.552,0-1,0.448-1,1v3.75c0,0.552,0.448,1,1,1s1-0.448,1-1v-2.75h2.75c0.552,0,1-0.448,1-1S16.799,11.498,16.247,11.498z
			 M27.913,11.498H22.08c-0.552,0-1,0.448-1,1s0.448,1,1,1h5.833c0.552,0,1-0.448,1-1S28.466,11.498,27.913,11.498z M37.497,11.498
			h-3.75c-0.552,0-1,0.448-1,1s0.448,1,1,1h2.75v2.75c0,0.552,0.448,1,1,1s1-0.448,1-1v-3.75
			C38.497,11.946,38.049,11.498,37.497,11.498z M37.497,21.081c-0.552,0-1,0.448-1,1v5.833c0,0.552,0.448,1,1,1s1-0.448,1-1v-5.833
			C38.497,21.529,38.049,21.081,37.497,21.081z"/>
		<g>
			<g>
				<path style="fill:#5B616B;" d="M24.679,33.56c-0.799,0-1.55-0.311-2.114-0.876l-6.4-6.4c-0.391-0.391-0.391-1.024,0-1.414
					c0.39-0.391,1.024-0.391,1.414,0l6.4,6.4c0.374,0.374,1.026,0.374,1.399,0c0.187-0.187,0.29-0.436,0.29-0.7
					s-0.103-0.513-0.29-0.7l-4.038-4.038c-1.166-1.166-1.166-3.062,0-4.228c1.165-1.166,3.062-1.165,4.228,0l2.585,2.585
					c0.386,0.386,1.014,0.386,1.399,0s0.386-1.014,0-1.399l-1.501-1.501c-1.166-1.166-1.166-3.062,0-4.228
					c1.165-1.166,3.063-1.166,4.228,0l0.8,0.8c0.391,0.39,0.391,1.024,0,1.414c-0.391,0.391-1.023,0.391-1.414,0l-0.8-0.8
					c-0.386-0.386-1.014-0.386-1.399,0c-0.386,0.386-0.386,1.014,0,1.4l1.501,1.501c1.166,1.166,1.166,3.062,0,4.228
					c-1.165,1.166-3.063,1.166-4.228,0l-2.585-2.584c-0.386-0.386-1.014-0.385-1.4,0c-0.386,0.385-0.386,1.013,0,1.399l4.038,4.038
					c1.166,1.166,1.166,3.062,0,4.228C26.228,33.249,25.477,33.56,24.679,33.56z"/>
			</g>
		</g>
	</g>
</g>
<g id="Layer_1">
</g>
</svg>
