<?xml version="1.0" encoding="iso-8859-1"?>
<!-- Generator: Adobe Illustrator 21.1.0, SVG Export Plug-In . SVG Version: 6.00 Build 0)  -->
<svg version="1.1" xmlns="http://www.w3.org/2000/svg" xmlns:xlink="http://www.w3.org/1999/xlink" x="0px" y="0px"
	 viewBox="0 0 49.996 49.996" style="enable-background:new 0 0 49.996 49.996;" xml:space="preserve">
<g id="FullScreen">
	<path style="fill:#353942;" d="M2.5,0C1.119,0,0,1.119,0,2.5v44.996c0,1.381,1.119,2.5,2.5,2.5h44.996c1.381,0,2.5-1.119,2.5-2.5
		V2.5c0-1.381-1.119-2.5-2.5-2.5H2.5z"/>
	<path style="fill:#5B616B;" d="M38.477,12.302c-0.006-0.03-0.017-0.057-0.025-0.086c-0.01-0.034-0.018-0.068-0.031-0.101
		c-0.014-0.034-0.033-0.064-0.05-0.096c-0.014-0.025-0.025-0.052-0.041-0.076c-0.073-0.11-0.168-0.204-0.277-0.277
		c-0.024-0.016-0.049-0.027-0.074-0.04c-0.032-0.018-0.064-0.037-0.098-0.052c-0.033-0.013-0.066-0.021-0.1-0.031
		c-0.029-0.009-0.057-0.02-0.087-0.026c-0.065-0.013-0.13-0.02-0.196-0.02h-7.375c-0.552,0-1,0.448-1,1s0.448,1,1,1h4.961
		l-7.543,7.543c-0.391,0.39-0.391,1.024,0,1.414c0.195,0.195,0.451,0.293,0.707,0.293s0.512-0.098,0.707-0.293l7.543-7.543v4.961
		c0,0.552,0.448,1,1,1s1-0.448,1-1v-7.375C38.497,12.432,38.49,12.367,38.477,12.302z M21.04,27.541l-7.543,7.543v-4.961
		c0-0.552-0.448-1-1-1s-1,0.448-1,1v7.375c0,0.066,0.007,0.131,0.02,0.196c0.006,0.03,0.017,0.058,0.026,0.087
		c0.01,0.033,0.018,0.067,0.031,0.1c0.014,0.034,0.034,0.066,0.052,0.098c0.014,0.025,0.024,0.05,0.04,0.074
		c0.073,0.11,0.167,0.204,0.277,0.277c0.025,0.017,0.052,0.028,0.077,0.042c0.031,0.017,0.062,0.036,0.095,0.05
		c0.033,0.014,0.067,0.021,0.101,0.031c0.029,0.008,0.056,0.019,0.085,0.025c0.065,0.013,0.13,0.02,0.196,0.02h7.375
		c0.552,0,1-0.448,1-1s-0.448-1-1-1h-4.961l7.543-7.543c0.391-0.391,0.391-1.023,0-1.414C22.064,27.15,21.43,27.15,21.04,27.541z"/>
</g>
<g id="Layer_1">
</g>
</svg>
