<?xml version="1.0" encoding="iso-8859-1"?>
<!-- Generator: Adobe Illustrator 21.1.0, SVG Export Plug-In . SVG Version: 6.00 Build 0)  -->
<svg version="1.1" xmlns="http://www.w3.org/2000/svg" xmlns:xlink="http://www.w3.org/1999/xlink" x="0px" y="0px"
	 viewBox="0 0 49.996 49.996" style="enable-background:new 0 0 49.996 49.996;" xml:space="preserve">
<g id="HeadOrientation">
	<path style="fill:#353942;" d="M2.5,0C1.119,0,0,1.119,0,2.5v44.996c0,1.381,1.119,2.5,2.5,2.5h44.996c1.381,0,2.5-1.119,2.5-2.5
		V2.5c0-1.381-1.119-2.5-2.5-2.5H2.5z"/>
	<path style="fill:#5B616B;" d="M35.497,11.498c-0.552,0-1,0.448-1,1v11.5h-19v-11.5c0-0.552-0.448-1-1-1s-1,0.448-1,1v25
		c0,0.552,0.448,1,1,1s1-0.448,1-1v-11.5h19v11.5c0,0.552,0.448,1,1,1s1-0.448,1-1v-25C36.497,11.946,36.049,11.498,35.497,11.498z"
		/>
</g>
<g id="Layer_1">
</g>
</svg>
