<?xml version="1.0" encoding="iso-8859-1"?>
<!-- Generator: Adobe Illustrator 21.1.0, SVG Export Plug-In . SVG Version: 6.00 Build 0)  -->
<svg version="1.1" xmlns="http://www.w3.org/2000/svg" xmlns:xlink="http://www.w3.org/1999/xlink" x="0px" y="0px"
	 viewBox="0 0 49.996 49.996" style="enable-background:new 0 0 49.996 49.996;" xml:space="preserve">
<g id="Highlight">
	<path style="fill:#353942;" d="M2.5,0C1.119,0,0,1.119,0,2.5v44.996c0,1.381,1.119,2.5,2.5,2.5h44.996c1.381,0,2.5-1.119,2.5-2.5
		V2.5c0-1.381-1.119-2.5-2.5-2.5H2.5z"/>
	<path style="fill:#5B616B;" d="M37.483,36.506H17.88c1.96-1.209,4.551-0.645,4.578-0.638c0.004,0.001,0.008,0,0.012,0.001
		c0.07,0.015,0.142,0.025,0.215,0.025c0.013,0,0.026,0,0.039-0.001c0.012,0,0.024-0.004,0.037-0.005
		c0.02-0.002,0.039-0.006,0.059-0.008c0.083-0.011,0.163-0.032,0.239-0.063c0.014-0.006,0.028-0.009,0.041-0.015
		c0.084-0.039,0.161-0.09,0.232-0.151c0.016-0.014,0.031-0.029,0.047-0.044c0.022-0.021,0.046-0.039,0.066-0.063l14.221-16.661
		c1.15-1.252,1.108-3.176-0.095-4.379l-2.054-2.054c-1.202-1.203-3.126-1.244-4.405-0.069L15.527,27.725
		c-0.009,0.009-0.015,0.019-0.023,0.028c-0.013,0.014-0.023,0.028-0.035,0.042c-0.057,0.068-0.106,0.14-0.143,0.22
		c-0.004,0.008-0.009,0.015-0.013,0.024c-0.037,0.085-0.059,0.176-0.071,0.27c-0.003,0.02-0.005,0.04-0.006,0.06
		c-0.001,0.022-0.007,0.043-0.007,0.065c0,0.074,0.01,0.147,0.025,0.218c0.001,0.004,0,0.008,0.001,0.013
		c0.008,0.033,0.753,3.349-1.228,5.33l-2.235,2.235c-0.26,0.26-0.357,0.643-0.25,0.996c0.106,0.353,0.397,0.618,0.759,0.691
		l2.8,0.569c0.001,0,0.003,0.001,0.004,0.001l0,0c0.066,0.014,0.133,0.02,0.199,0.02h22.179c0.552,0,1-0.448,1-1
		S38.035,36.506,37.483,36.506z M32.491,13.828c0.461-0.424,1.169-0.409,1.612,0.034l2.054,2.054
		c0.443,0.443,0.458,1.151,0.011,1.639L22.626,33.421l-0.48-0.48l-4.498-4.499L32.491,13.828z"/>
</g>
<g id="Layer_1">
</g>
</svg>
