<?xml version="1.0" encoding="iso-8859-1"?>
<!-- Generator: Adobe Illustrator 21.1.0, SVG Export Plug-In . SVG Version: 6.00 Build 0)  -->
<svg version="1.1" xmlns="http://www.w3.org/2000/svg" xmlns:xlink="http://www.w3.org/1999/xlink" x="0px" y="0px"
	 viewBox="0 0 49.996 49.996" style="enable-background:new 0 0 49.996 49.996;" xml:space="preserve">
<g id="Invert">
	<path style="fill:#353942;" d="M2.5,0C1.119,0,0,1.119,0,2.5v44.996c0,1.381,1.119,2.5,2.5,2.5h44.996c1.381,0,2.5-1.119,2.5-2.5
		V2.5c0-1.381-1.119-2.5-2.5-2.5H2.5z"/>
	<g>
		<path style="fill:#5B616B;" d="M33.477,19.157c-0.175-0.322-0.512-0.522-0.878-0.522H17.396c-0.366,0-0.704,0.2-0.879,0.522
			s-0.16,0.714,0.04,1.021l7.601,11.727c0.184,0.284,0.5,0.456,0.839,0.456s0.655-0.172,0.839-0.456l7.602-11.727
			C33.637,19.871,33.652,19.479,33.477,19.157z M24.997,29.523v-8.888h5.762L24.997,29.523z"/>
		<g style="opacity:0.6;">
			<g>
				<path style="fill:#5B616B;" d="M34.997,38.498h-20c-1.93,0-3.5-1.57-3.5-3.5v-20c0-1.93,1.57-3.5,3.5-3.5h20
					c1.93,0,3.5,1.57,3.5,3.5v20C38.497,36.928,36.927,38.498,34.997,38.498z M14.997,13.498c-0.827,0-1.5,0.673-1.5,1.5v20
					c0,0.827,0.673,1.5,1.5,1.5h20c0.827,0,1.5-0.673,1.5-1.5v-20c0-0.827-0.673-1.5-1.5-1.5H14.997z"/>
			</g>
		</g>
	</g>
</g>
<g id="Layer_1">
</g>
</svg>
