<?xml version="1.0" encoding="iso-8859-1"?>
<!-- Generator: Adobe Illustrator 21.1.0, SVG Export Plug-In . SVG Version: 6.00 Build 0)  -->
<svg version="1.1" xmlns="http://www.w3.org/2000/svg" xmlns:xlink="http://www.w3.org/1999/xlink" x="0px" y="0px"
	 viewBox="0 0 49.996 49.996" style="enable-background:new 0 0 49.996 49.996;" xml:space="preserve">
<g id="InvertColor">
	<path style="fill:#353942;" d="M2.5,0C1.119,0,0,1.119,0,2.5v44.996c0,1.381,1.119,2.5,2.5,2.5h44.996c1.381,0,2.5-1.119,2.5-2.5
		V2.5c0-1.381-1.119-2.5-2.5-2.5H2.5z"/>
	<path style="fill:#5B616B;" d="M38.497,24.998c0-7.107-5.522-12.945-12.5-13.459v-0.041h-1c-7.444,0-13.5,6.056-13.5,13.5
		s6.056,13.5,13.5,13.5h1v-0.041C32.975,37.943,38.497,32.105,38.497,24.998z M25.997,36.452V13.544
		c5.874,0.509,10.5,5.45,10.5,11.454C36.497,31.002,31.871,35.943,25.997,36.452z"/>
</g>
<g id="Layer_1">
</g>
</svg>
