<?xml version="1.0" encoding="iso-8859-1"?>
<!-- Generator: Adobe Illustrator 21.1.0, SVG Export Plug-In . SVG Version: 6.00 Build 0)  -->
<svg version="1.1" xmlns="http://www.w3.org/2000/svg" xmlns:xlink="http://www.w3.org/1999/xlink" x="0px" y="0px"
	 viewBox="0 0 49.996 49.996" style="enable-background:new 0 0 49.996 49.996;" xml:space="preserve">
<g id="LeftOrientation">
	<path style="fill:#353942;" d="M2.5,0C1.119,0,0,1.119,0,2.5v44.996c0,1.381,1.119,2.5,2.5,2.5h44.996c1.381,0,2.5-1.119,2.5-2.5
		V2.5c0-1.381-1.119-2.5-2.5-2.5H2.5z"/>
	<g>
		<g>
			<path style="fill:#5B616B;" d="M31.247,38.498h-12.5c-0.552,0-1-0.448-1-1v-25c0-0.552,0.448-1,1-1s1,0.448,1,1v24h11.5
				c0.552,0,1,0.448,1,1S31.799,38.498,31.247,38.498z"/>
		</g>
	</g>
</g>
<g id="Layer_1">
</g>
</svg>
