<?xml version="1.0" encoding="iso-8859-1"?>
<!-- Generator: Adobe Illustrator 21.1.0, SVG Export Plug-In . SVG Version: 6.00 Build 0)  -->
<svg version="1.1" xmlns="http://www.w3.org/2000/svg" xmlns:xlink="http://www.w3.org/1999/xlink" x="0px" y="0px"
	 viewBox="0 0 49.996 49.996" style="enable-background:new 0 0 49.996 49.996;" xml:space="preserve">
<g id="LineProfile">
	<path style="fill:#353942;" d="M2.5,0C1.119,0,0,1.119,0,2.5v44.996c0,1.381,1.119,2.5,2.5,2.5h44.996c1.381,0,2.5-1.119,2.5-2.5
		V2.5c0-1.381-1.119-2.5-2.5-2.5H2.5z"/>
	<path style="fill:#5B616B;" d="M29.24,18.87c-0.391-0.391-1.023-0.391-1.414,0c-0.391,0.39-0.391,1.024,0,1.414l3.182,3.182
		c0.845,0.845,0.845,2.22,0,3.064c-0.409,0.409-0.953,0.635-1.532,0.635s-1.123-0.226-1.532-0.635l-4.479-4.479
		c-1.625-1.624-4.268-1.624-5.893,0c-1.624,1.625-1.624,4.268,0,5.893l3.182,3.182c0.195,0.195,0.451,0.293,0.707,0.293
		s0.512-0.098,0.707-0.293c0.391-0.391,0.391-1.023,0-1.414l-3.182-3.182c-0.845-0.845-0.845-2.219,0-3.064
		c0.845-0.845,2.22-0.844,3.064,0l4.479,4.479c0.787,0.787,1.833,1.221,2.946,1.221s2.159-0.434,2.946-1.221
		c1.625-1.625,1.625-4.268,0-5.893L29.24,18.87z M34.997,11.498h-20c-1.93,0-3.5,1.57-3.5,3.5v20c0,1.93,1.57,3.5,3.5,3.5h20
		c1.93,0,3.5-1.57,3.5-3.5v-20C38.497,13.068,36.927,11.498,34.997,11.498z M36.497,34.998c0,0.827-0.673,1.5-1.5,1.5h-20
		c-0.827,0-1.5-0.673-1.5-1.5v-20c0-0.827,0.673-1.5,1.5-1.5h20c0.827,0,1.5,0.673,1.5,1.5V34.998z"/>
</g>
<g id="Layer_1">
</g>
</svg>
