<?xml version="1.0" encoding="iso-8859-1"?>
<!-- Generator: Adobe Illustrator 21.1.0, SVG Export Plug-In . SVG Version: 6.00 Build 0)  -->
<svg version="1.1" xmlns="http://www.w3.org/2000/svg" xmlns:xlink="http://www.w3.org/1999/xlink" x="0px" y="0px"
	 viewBox="0 0 49.996 49.996" style="enable-background:new 0 0 49.996 49.996;" xml:space="preserve">
<g id="LinkStudies">
	<path style="fill:#353942;" d="M2.5,0C1.119,0,0,1.119,0,2.5v44.996c0,1.381,1.119,2.5,2.5,2.5h44.996c1.381,0,2.5-1.119,2.5-2.5
		V2.5c0-1.381-1.119-2.5-2.5-2.5H2.5z"/>
	<g>
		<path style="opacity:0.6;fill:#5B616B;" d="M30.83,11.498H12.497c-0.552,0-1,0.448-1,1v25c0,0.552,0.448,1,1,1h7.667
			c0.552,0,1-0.448,1-1s-0.448-1-1-1h-6.667v-23H29.83v7.125c0,0.552,0.448,1,1,1s1-0.448,1-1v-8.125
			C31.83,11.946,31.383,11.498,30.83,11.498z M20.414,23.998h-4.208c-0.552,0-1,0.448-1,1v4.208c0,0.552,0.448,1,1,1h4.208
			c0.552,0,1-0.448,1-1v-4.208C21.414,24.446,20.966,23.998,20.414,23.998z M19.414,28.206h-2.208v-2.208h2.208V28.206z
			 M27.122,15.581H16.205c-0.552,0-1,0.448-1,1s0.448,1,1,1h10.917c0.552,0,1-0.448,1-1S27.674,15.581,27.122,15.581z M27.122,19.79
			H16.205c-0.552,0-1,0.448-1,1s0.448,1,1,1h10.917c0.552,0,1-0.448,1-1S27.674,19.79,27.122,19.79z M27.122,23.998H23.83
			c-0.552,0-1,0.448-1,1s0.448,1,1,1h3.292c0.552,0,1-0.448,1-1S27.674,23.998,27.122,23.998z M20.414,32.414h-4.208
			c-0.552,0-1,0.448-1,1s0.448,1,1,1h4.208c0.552,0,1-0.448,1-1S20.966,32.414,20.414,32.414z"/>
		<path style="fill:#5B616B;" d="M30.977,34.355l-2.036,2.036c-0.093,0.093-0.201,0.106-0.257,0.106s-0.165-0.014-0.258-0.107
			l-2.322-2.322c-0.093-0.093-0.106-0.202-0.106-0.258s0.014-0.165,0.107-0.258l2.036-2.036c0.391-0.391,0.391-1.023,0-1.414
			s-1.023-0.391-1.414,0L24.69,32.14c-0.447,0.446-0.693,1.04-0.693,1.672s0.246,1.226,0.693,1.672l2.322,2.321
			c0.447,0.447,1.041,0.693,1.672,0.693s1.226-0.246,1.672-0.693l2.036-2.036c0.391-0.391,0.391-1.023,0-1.414
			S31.367,33.965,30.977,34.355z M37.804,27.013l-2.322-2.322c-0.446-0.447-1.04-0.693-1.672-0.693s-1.226,0.246-1.672,0.693
			l-2.036,2.036c-0.391,0.391-0.391,1.023,0,1.414s1.023,0.391,1.414,0l2.036-2.036c0.093-0.093,0.202-0.106,0.258-0.106
			s0.165,0.014,0.258,0.107l2.322,2.322c0.093,0.093,0.106,0.201,0.106,0.257s-0.014,0.165-0.107,0.258l-2.036,2.036
			c-0.391,0.391-0.391,1.023,0,1.414c0.195,0.195,0.451,0.293,0.707,0.293s0.512-0.098,0.707-0.293l2.035-2.035
			c0.447-0.447,0.693-1.041,0.693-1.672S38.251,27.459,37.804,27.013z M32.178,28.903l-3.275,3.275
			c-0.391,0.391-0.391,1.023,0,1.414c0.195,0.195,0.451,0.293,0.707,0.293s0.512-0.098,0.707-0.293l3.275-3.275
			c0.391-0.391,0.391-1.023,0-1.414S32.568,28.513,32.178,28.903z"/>
	</g>
</g>
<g id="Layer_1">
</g>
</svg>
