<?xml version="1.0" encoding="iso-8859-1"?>
<!-- Generator: Adobe Illustrator 21.1.0, SVG Export Plug-In . SVG Version: 6.00 Build 0)  -->
<svg version="1.1" xmlns="http://www.w3.org/2000/svg" xmlns:xlink="http://www.w3.org/1999/xlink" x="0px" y="0px"
	 viewBox="0 0 49.996 49.996" style="enable-background:new 0 0 49.996 49.996;" xml:space="preserve">
<g id="Linked">
	<path style="fill:#353942;" d="M2.5,0C1.119,0,0,1.119,0,2.5v44.996c0,1.381,1.119,2.5,2.5,2.5h44.996c1.381,0,2.5-1.119,2.5-2.5
		V2.5c0-1.381-1.119-2.5-2.5-2.5H2.5z"/>
	<path style="fill:#5B616B;" d="M25.271,32.851l-1.963,1.963c-2.241,2.24-5.887,2.24-8.128,0c-2.241-2.241-2.241-5.887,0-8.127
		l1.963-1.963c0.391-0.391,0.391-1.024,0-1.414c-0.391-0.391-1.024-0.391-1.414,0l-1.963,1.963c-3.021,3.021-3.021,7.935,0,10.956
		c1.51,1.51,3.494,2.265,5.478,2.265c1.984,0,3.968-0.755,5.478-2.265l1.963-1.963c0.391-0.391,0.391-1.023,0-1.414
		S25.661,32.461,25.271,32.851z M36.228,13.767c-3.021-3.021-7.936-3.02-10.956,0l-1.963,1.963c-0.391,0.39-0.391,1.024,0,1.414
		c0.39,0.391,1.024,0.391,1.414,0l1.963-1.963c2.241-2.24,5.887-2.241,8.127,0s2.241,5.887,0,8.128l-1.963,1.963
		c-0.391,0.391-0.391,1.023,0,1.414c0.195,0.195,0.451,0.293,0.707,0.293s0.512-0.098,0.707-0.293l1.963-1.963
		C39.248,21.703,39.248,16.788,36.228,13.767z M27.965,20.616l-7.35,7.35c-0.391,0.391-0.391,1.023,0,1.414
		c0.195,0.195,0.451,0.293,0.707,0.293s0.512-0.098,0.707-0.293l7.35-7.35c0.391-0.39,0.391-1.024,0-1.414
		C28.988,20.225,28.355,20.225,27.965,20.616z"/>
</g>
<g id="Layer_1">
</g>
</svg>
