<?xml version="1.0" encoding="iso-8859-1"?>
<!-- Generator: Adobe Illustrator 21.1.0, SVG Export Plug-In . SVG Version: 6.00 Build 0)  -->
<svg version="1.1" xmlns="http://www.w3.org/2000/svg" xmlns:xlink="http://www.w3.org/1999/xlink" x="0px" y="0px"
	 viewBox="0 0 49.996 49.996" style="enable-background:new 0 0 49.996 49.996;" xml:space="preserve">
<g id="LoadAnn">
	<path style="fill:#353942;" d="M2.5,0C1.119,0,0,1.119,0,2.5v44.996c0,1.381,1.119,2.5,2.5,2.5h44.996c1.381,0,2.5-1.119,2.5-2.5
		V2.5c0-1.381-1.119-2.5-2.5-2.5H2.5z"/>
	<path style="fill:#5B616B;" d="M37.497,17.522h-9.53c-0.395,0-0.782-0.16-1.061-0.439l-2.309-2.309
		c-0.661-0.661-1.54-1.025-2.475-1.025h-9.625c-0.552,0-1,0.448-1,1v20.5c0,0.552,0.448,1,1,1h25c0.552,0,1-0.448,1-1V18.522
		C38.497,17.969,38.049,17.522,37.497,17.522z M36.497,34.248h-23v-9.881h23V34.248z M36.497,22.367h-23v-6.619h8.625
		c0.401,0,0.777,0.156,1.061,0.439l2.309,2.309c0.661,0.661,1.54,1.025,2.475,1.025h8.53V22.367z M16.799,31.794h6.479
		c0.276,0,0.5-0.224,0.5-0.5v-3.842c0-0.276-0.224-0.5-0.5-0.5h-6.479c-0.276,0-0.5,0.224-0.5,0.5v3.842
		C16.299,31.57,16.523,31.794,16.799,31.794z"/>
</g>
<g id="Layer_1">
</g>
</svg>
