<?xml version="1.0" encoding="iso-8859-1"?>
<!-- Generator: Adobe Illustrator 21.1.0, SVG Export Plug-In . SVG Version: 6.00 Build 0)  -->
<svg version="1.1" xmlns="http://www.w3.org/2000/svg" xmlns:xlink="http://www.w3.org/1999/xlink" x="0px" y="0px"
	 viewBox="0 0 49.996 49.996" style="enable-background:new 0 0 49.996 49.996;" xml:space="preserve">
<g id="Magnify">
	<path style="fill:#353942;" d="M2.5,0C1.119,0,0,1.119,0,2.5v44.996c0,1.381,1.119,2.5,2.5,2.5h44.996c1.381,0,2.5-1.119,2.5-2.5
		V2.5c0-1.381-1.119-2.5-2.5-2.5H2.5z"/>
	<path style="fill:#5B616B;" d="M38.204,36.791l-5.123-5.123c1.816-2.137,2.916-4.902,2.916-7.92c0-6.755-5.495-12.25-12.25-12.25
		c-6.755,0-12.25,5.495-12.25,12.25c0,6.755,5.495,12.25,12.25,12.25c3.018,0,5.783-1.099,7.92-2.916l5.123,5.123
		c0.195,0.195,0.451,0.293,0.707,0.293s0.512-0.098,0.707-0.293C38.595,37.814,38.595,37.182,38.204,36.791z M31.664,30.251
		l-6.503-6.503l6.503-6.503c1.457,1.771,2.333,4.036,2.333,6.503C33.997,26.215,33.12,28.48,31.664,30.251z M30.249,15.831
		l-6.503,6.503l-6.502-6.502c1.771-1.457,4.036-2.333,6.503-2.333C26.213,13.498,28.479,14.374,30.249,15.831z M15.83,17.245
		l6.502,6.502L15.83,30.25c-1.457-1.771-2.333-4.036-2.333-6.502C13.497,21.281,14.373,19.016,15.83,17.245z M17.244,31.665
		l6.503-6.503l6.503,6.503c-1.771,1.457-4.036,2.333-6.503,2.333C21.28,33.998,19.015,33.122,17.244,31.665z"/>
</g>
<g id="Layer_1">
</g>
</svg>
