<?xml version="1.0" encoding="iso-8859-1"?>
<!-- Generator: Adobe Illustrator 21.1.0, SVG Export Plug-In . SVG Version: 6.00 Build 0)  -->
<svg version="1.1" xmlns="http://www.w3.org/2000/svg" xmlns:xlink="http://www.w3.org/1999/xlink" x="0px" y="0px"
	 viewBox="0 0 49.996 49.996" style="enable-background:new 0 0 49.996 49.996;" xml:space="preserve">
<g id="MakeSameHeight">
	<path style="fill:#353942;" d="M2.5,0C1.119,0,0,1.119,0,2.5v44.996c0,1.381,1.119,2.5,2.5,2.5h44.996c1.381,0,2.5-1.119,2.5-2.5
		V2.5c0-1.381-1.119-2.5-2.5-2.5H2.5z"/>
	<path style="fill:#5B616B;" d="M37.497,11.498h-8.5c-0.552,0-1,0.448-1,1v25c0,0.552,0.448,1,1,1h8.5c0.552,0,1-0.448,1-1v-25
		C38.497,11.946,38.049,11.498,37.497,11.498z M36.497,36.498h-6.5v-23h6.5V36.498z M14.497,22.998h-2c-0.552,0-1,0.448-1,1v2
		c0,0.552,0.448,1,1,1s1-0.448,1-1v-1h1c0.552,0,1-0.448,1-1S15.049,22.998,14.497,22.998z M20.997,22.998h-2c-0.552,0-1,0.448-1,1
		s0.448,1,1,1h1v1c0,0.552,0.448,1,1,1s1-0.448,1-1v-2C21.997,23.446,21.549,22.998,20.997,22.998z M20.997,34.498
		c-0.552,0-1,0.448-1,1v1h-1c-0.552,0-1,0.448-1,1s0.448,1,1,1h2c0.552,0,1-0.448,1-1v-2C21.997,34.946,21.549,34.498,20.997,34.498
		z M14.497,36.498h-1v-1c0-0.552-0.448-1-1-1s-1,0.448-1,1v2c0,0.552,0.448,1,1,1h2c0.552,0,1-0.448,1-1
		S15.049,36.498,14.497,36.498z M20.497,17.498c0.256,0,0.512-0.098,0.707-0.293c0.391-0.39,0.391-1.024,0-1.414l-4-4
		c-0.39-0.391-1.024-0.391-1.414,0l-4,4c-0.391,0.39-0.391,1.024,0,1.414c0.39,0.391,1.024,0.391,1.414,0l2.293-2.293v4.799
		c0,0.552,0.448,1,1,1c0.552,0,1-0.448,1-1v-4.799l2.293,2.293C19.985,17.4,20.241,17.498,20.497,17.498z M12.497,32.498
		c0.552,0,1-0.448,1-1v-1.5c0-0.552-0.448-1-1-1s-1,0.448-1,1v1.5C11.497,32.05,11.945,32.498,12.497,32.498z M20.747,32.498
		c0.552,0,1-0.448,1-1v-1.5c0-0.552-0.448-1-1-1s-1,0.448-1,1v1.5C19.747,32.05,20.195,32.498,20.747,32.498z"/>
</g>
<g id="Layer_1">
</g>
</svg>
