<?xml version="1.0" encoding="iso-8859-1"?>
<!-- Generator: Adobe Illustrator 21.1.0, SVG Export Plug-In . SVG Version: 6.00 Build 0)  -->
<svg version="1.1" xmlns="http://www.w3.org/2000/svg" xmlns:xlink="http://www.w3.org/1999/xlink" x="0px" y="0px"
	 viewBox="0 0 49.996 49.996" style="enable-background:new 0 0 49.996 49.996;" xml:space="preserve">
<g id="MakeSameWidth">
	<path style="fill:#353942;" d="M2.5,0C1.119,0,0,1.119,0,2.5v44.996c0,1.381,1.119,2.5,2.5,2.5h44.996c1.381,0,2.5-1.119,2.5-2.5
		V2.5c0-1.381-1.119-2.5-2.5-2.5H2.5z"/>
	<path style="fill:#5B616B;" d="M37.497,27.998h-25c-0.552,0-1,0.448-1,1v8.5c0,0.552,0.448,1,1,1h25c0.552,0,1-0.448,1-1v-8.5
		C38.497,28.446,38.049,27.998,37.497,27.998z M36.497,36.498h-23v-6.5h23V36.498z M23.997,21.998h2c0.552,0,1-0.448,1-1v-2
		c0-0.552-0.448-1-1-1s-1,0.448-1,1v1h-1c-0.552,0-1,0.448-1,1S23.445,21.998,23.997,21.998z M23.997,13.498h1v1
		c0,0.552,0.448,1,1,1s1-0.448,1-1v-2c0-0.552-0.448-1-1-1h-2c-0.552,0-1,0.448-1,1S23.445,13.498,23.997,13.498z M12.497,21.998h2
		c0.552,0,1-0.448,1-1s-0.448-1-1-1h-1v-1c0-0.552-0.448-1-1-1s-1,0.448-1,1v2C11.497,21.55,11.945,21.998,12.497,21.998z
		 M12.497,15.498c0.552,0,1-0.448,1-1v-1h1c0.552,0,1-0.448,1-1s-0.448-1-1-1h-2c-0.552,0-1,0.448-1,1v2
		C11.497,15.05,11.945,15.498,12.497,15.498z M30.284,17.498h4.799l-2.293,2.293c-0.391,0.39-0.391,1.024,0,1.414
		c0.195,0.195,0.451,0.293,0.707,0.293s0.512-0.098,0.707-0.293l4-4c0.391-0.39,0.391-1.024,0-1.414l-4-4
		c-0.391-0.391-1.023-0.391-1.414,0c-0.391,0.39-0.391,1.024,0,1.414l2.293,2.293h-4.799c-0.552,0-1,0.448-1,1
		C29.284,17.05,29.732,17.498,30.284,17.498z M18.497,13.498h1.5c0.552,0,1-0.448,1-1s-0.448-1-1-1h-1.5c-0.552,0-1,0.448-1,1
		S17.945,13.498,18.497,13.498z M18.497,21.748h1.5c0.552,0,1-0.448,1-1s-0.448-1-1-1h-1.5c-0.552,0-1,0.448-1,1
		S17.945,21.748,18.497,21.748z"/>
</g>
<g id="Layer_1">
</g>
</svg>
