<svg xmlns="http://www.w3.org/2000/svg" viewBox="0 0 50 50"><defs><style>.cls-1{fill:#353942;}.cls-2{fill:#5b616b;}</style></defs><title>mip-disabled</title><g id="Layer_2" data-name="Layer 2"><g id="VRT3"><rect class="cls-1" width="50" height="50" rx="2.5" ry="2.5"/><path class="cls-2" d="M34,14.58a.54.54,0,0,0,0-.18.57.57,0,0,0,0-.1.56.56,0,0,0-.21-.21L25.27,9.22a.56.56,0,0,0-.56,0l-8.4,4.88h0s-.06.06-.09.09a.3.3,0,0,0-.15.25.54.54,0,0,0,0,.15l0,9.71a.56.56,0,0,0,.28.49l8.45,4.88a.56.56,0,0,0,.56,0h0l8.4-4.88a.56.56,0,0,0,.28-.48l0-9.71h0ZM24.45,28.2,17.12,24l0-8.41,7.32,4.23ZM25,18.81l-5.42-3.13-1.9-1.1L25,10.35l7.32,4.23ZM32.85,24l-7.28,4.23,0-8.4,7.24-4.21,0,0Z"/><path class="cls-2" d="M22.25,40.85v-5.6L20,40.85h-.74L17,35.25v5.6h-1.7v-8h2.39l1.94,4.83,1.94-4.83H24v8Z"/><path class="cls-2" d="M25.55,40.85v-8h1.7v8Z"/><path class="cls-2" d="M28.84,40.85v-8h3.74a2.58,2.58,0,1,1,0,5.16h-2v2.84Zm4.69-5.42a1.07,1.07,0,0,0-1.18-1.08H30.54v2.16h1.81A1.08,1.08,0,0,0,33.53,35.43Z"/></g></g></svg>