<?xml version="1.0" encoding="iso-8859-1"?>
<!-- Generator: Adobe Illustrator 21.1.0, SVG Export Plug-In . SVG Version: 6.00 Build 0)  -->
<svg version="1.1" xmlns="http://www.w3.org/2000/svg" xmlns:xlink="http://www.w3.org/1999/xlink" x="0px" y="0px"
	 viewBox="0 0 49.996 49.996" style="enable-background:new 0 0 49.996 49.996;" xml:space="preserve">
<g id="MPR">
	<path style="fill:#353942;" d="M2.5,0C1.119,0,0,1.119,0,2.5v44.996c0,1.381,1.119,2.5,2.5,2.5h44.996c1.381,0,2.5-1.119,2.5-2.5
		V2.5c0-1.381-1.119-2.5-2.5-2.5H2.5z"/>
	<path style="fill:#5B616B;" d="M37.759,21.977l-4.377-1.186v-3.542c0-0.451-0.302-0.846-0.737-0.965l-1.754-0.478v-3.309
		c0-0.356-0.19-0.686-0.498-0.865c-0.309-0.179-0.688-0.18-0.998-0.004l-4.469,2.552l-7.139-1.945
		c-0.301-0.083-0.623-0.019-0.87,0.17c-0.248,0.189-0.393,0.483-0.393,0.795v7.957l-4.52,2.56c-0.353,0.2-0.55,0.593-0.499,0.995
		c0.051,0.402,0.339,0.734,0.731,0.84l4.288,1.161v5.872c0,0.451,0.302,0.846,0.737,0.965l1.799,0.49v3.455
		c0,0.356,0.19,0.686,0.498,0.865c0.155,0.09,0.329,0.135,0.502,0.135c0.171,0,0.342-0.044,0.496-0.131l4.643-2.651l6.92,1.885
		c0.086,0.023,0.175,0.035,0.263,0.035c0.217,0,0.431-0.071,0.607-0.206c0.248-0.189,0.393-0.483,0.393-0.794V26.423l4.608-2.61
		c0.353-0.2,0.55-0.593,0.5-0.995C38.438,22.415,38.15,22.083,37.759,21.977z M27.309,27.564l-4.592-1.244l2.48-1.405l4.591,1.244
		L27.309,27.564z M24.062,23.261l-3.002,1.701v-6.27l3.002-1.714V23.261z M31.381,24.52l-5.32-1.441v-6.515l5.32,1.449V24.52z
		 M28.89,14.221v1.041l-1.234-0.336L28.89,14.221z M22.468,15.584l-2.904,1.658c-0.312,0.178-0.504,0.51-0.504,0.868v3.01
		l-0.536-0.145V14.51L22.468,15.584z M17.659,22.814l1.4,0.38v2.137l-3.952-1.07L17.659,22.814z M18.523,31.824v-4.566l0.536,0.145
		v4.567L18.523,31.824z M21.059,27.944l3.002,0.813v5.304l-3.002,1.715V27.944z M31.381,35.327l-5.32-1.449v-4.579l1.121,0.304
		c0.001,0,0.002,0,0.003,0c0.039,0.01,0.08,0.01,0.12,0.016c0.046,0.007,0.093,0.019,0.139,0.019c0.004,0,0.007-0.002,0.011-0.002
		c0.093-0.001,0.186-0.018,0.278-0.046c0.032-0.01,0.061-0.024,0.091-0.037c0.037-0.016,0.076-0.025,0.112-0.046l3.445-1.951V35.327
		z M33.381,24.124v-1.261l1.506,0.408L33.381,24.124z"/>
</g>
<g id="Layer_1">
</g>
</svg>
