<?xml version="1.0" encoding="iso-8859-1"?>
<!-- Generator: Adobe Illustrator 21.1.0, SVG Export Plug-In . SVG Version: 6.00 Build 0)  -->
<svg version="1.1" xmlns="http://www.w3.org/2000/svg" xmlns:xlink="http://www.w3.org/1999/xlink" x="0px" y="0px"
	 viewBox="0 0 49.996 49.996" style="enable-background:new 0 0 49.996 49.996;" xml:space="preserve">
<g id="NextImage">
	<path style="fill:#353942;" d="M2.5,0C1.119,0,0,1.119,0,2.5v44.996c0,1.381,1.119,2.5,2.5,2.5h44.996c1.381,0,2.5-1.119,2.5-2.5
		V2.5c0-1.381-1.119-2.5-2.5-2.5H2.5z"/>
	<path style="fill:#5B616B;" d="M38.477,24.8c-0.009-0.044-0.024-0.086-0.039-0.127c-0.007-0.02-0.01-0.04-0.018-0.059
		c-0.019-0.046-0.044-0.088-0.069-0.13c-0.008-0.014-0.014-0.029-0.023-0.042c-0.037-0.055-0.078-0.105-0.124-0.152l-4.993-4.993
		c-0.391-0.391-1.023-0.391-1.414,0c-0.391,0.39-0.391,1.024,0,1.414l3.287,3.287H21.497c-0.552,0-1,0.448-1,1s0.448,1,1,1h13.586
		l-3.287,3.287c-0.391,0.391-0.391,1.023,0,1.414c0.195,0.195,0.451,0.293,0.707,0.293s0.512-0.098,0.707-0.293l4.993-4.993
		c0.046-0.046,0.088-0.097,0.124-0.152c0.009-0.013,0.015-0.028,0.023-0.042c0.025-0.042,0.05-0.084,0.069-0.13
		c0.008-0.019,0.012-0.04,0.018-0.059c0.014-0.042,0.03-0.083,0.039-0.127c0.013-0.065,0.02-0.131,0.02-0.198
		S38.49,24.865,38.477,24.8z M30.497,36.498h-17v-23h17c0.552,0,1-0.448,1-1s-0.448-1-1-1h-18c-0.552,0-1,0.448-1,1v25
		c0,0.552,0.448,1,1,1h18c0.552,0,1-0.448,1-1S31.049,36.498,30.497,36.498z"/>
</g>
<g id="Layer_1">
</g>
</svg>
