<?xml version="1.0" encoding="iso-8859-1"?>
<!-- Generator: Adobe Illustrator 21.1.0, SVG Export Plug-In . SVG Version: 6.00 Build 0)  -->
<svg version="1.1" xmlns="http://www.w3.org/2000/svg" xmlns:xlink="http://www.w3.org/1999/xlink" x="0px" y="0px"
	 viewBox="0 0 49.996 49.996" style="enable-background:new 0 0 49.996 49.996;" xml:space="preserve">
<g id="NextPoint">
	<path style="fill:#353942;" d="M2.5,0C1.119,0,0,1.119,0,2.5v44.996c0,1.381,1.119,2.5,2.5,2.5h44.996c1.381,0,2.5-1.119,2.5-2.5
		V2.5c0-1.381-1.119-2.5-2.5-2.5H2.5z"/>
	<path style="fill:#5B616B;" d="M33.997,20.498c-2.481,0-4.5,2.019-4.5,4.5c0,2.481,2.019,4.5,4.5,4.5s4.5-2.019,4.5-4.5
		C38.497,22.517,36.478,20.498,33.997,20.498z M33.997,27.498c-1.378,0-2.5-1.122-2.5-2.5s1.122-2.5,2.5-2.5s2.5,1.122,2.5,2.5
		S35.375,27.498,33.997,27.498z M11.497,24.998c0,0.552,0.448,1,1,1h11.388l-1.887,1.887c-0.391,0.391-0.391,1.023,0,1.414
		c0.195,0.195,0.451,0.293,0.707,0.293s0.512-0.098,0.707-0.293l3.594-3.594c0.046-0.046,0.088-0.097,0.124-0.152
		c0.009-0.013,0.015-0.028,0.023-0.042c0.025-0.042,0.05-0.084,0.069-0.13c0.008-0.019,0.012-0.04,0.018-0.059
		c0.014-0.042,0.03-0.083,0.039-0.127c0.013-0.065,0.02-0.131,0.02-0.198s-0.007-0.133-0.02-0.198
		c-0.009-0.044-0.024-0.086-0.039-0.127c-0.007-0.02-0.01-0.04-0.018-0.059c-0.019-0.046-0.044-0.088-0.069-0.13
		c-0.008-0.014-0.014-0.029-0.023-0.042c-0.037-0.055-0.078-0.105-0.124-0.152l-3.594-3.594c-0.39-0.391-1.024-0.391-1.414,0
		c-0.391,0.39-0.391,1.024,0,1.414l1.887,1.887H12.497C11.945,23.998,11.497,24.446,11.497,24.998z M37.497,31.998
		c-0.552,0-1,0.448-1,1v2c0,0.827-0.673,1.5-1.5,1.5h-20c-0.827,0-1.5-0.673-1.5-1.5v-4.5c0-0.552-0.448-1-1-1s-1,0.448-1,1v4.5
		c0,1.93,1.57,3.5,3.5,3.5h20c1.93,0,3.5-1.57,3.5-3.5v-2C38.497,32.446,38.049,31.998,37.497,31.998z M34.997,11.498h-20
		c-1.93,0-3.5,1.57-3.5,3.5v4.5c0,0.552,0.448,1,1,1s1-0.448,1-1v-4.5c0-0.827,0.673-1.5,1.5-1.5h20c0.827,0,1.5,0.673,1.5,1.5v2
		c0,0.552,0.448,1,1,1s1-0.448,1-1v-2C38.497,13.068,36.927,11.498,34.997,11.498z"/>
</g>
<g id="Layer_1">
</g>
</svg>
