<?xml version="1.0" encoding="iso-8859-1"?>
<!-- Generator: Adobe Illustrator 21.1.0, SVG Export Plug-In . SVG Version: 6.00 Build 0)  -->
<svg version="1.1" xmlns="http://www.w3.org/2000/svg" xmlns:xlink="http://www.w3.org/1999/xlink" x="0px" y="0px"
	 viewBox="0 0 49.996 49.996" style="enable-background:new 0 0 49.996 49.996;" xml:space="preserve">
<g id="Note">
	<path style="fill:#353942;" d="M2.5,0C1.119,0,0,1.119,0,2.5v44.996c0,1.381,1.119,2.5,2.5,2.5h44.996c1.381,0,2.5-1.119,2.5-2.5
		V2.5c0-1.381-1.119-2.5-2.5-2.5H2.5z"/>
	<path style="fill:#5B616B;" d="M25.663,17.56h-8c-0.552,0-1,0.448-1,1s0.448,1,1,1h8c0.552,0,1-0.448,1-1
		S26.216,17.56,25.663,17.56z M25.663,22.998h-8c-0.552,0-1,0.448-1,1s0.448,1,1,1h8c0.552,0,1-0.448,1-1
		S26.216,22.998,25.663,22.998z M36.997,28.498h-17c-0.827,0-1.5,0.673-1.5,1.5v4c0,1.378-1.122,2.5-2.5,2.5s-2.5-1.122-2.5-2.5
		v-20.5H29.83v10.5c0,0.552,0.448,1,1,1s1-0.448,1-1v-11.5c0-0.552-0.448-1-1-1H12.497c-0.552,0-1,0.448-1,1v21.5
		c0,2.481,2.019,4.5,4.5,4.5h18c2.481,0,4.5-2.019,4.5-4.5v-4C38.497,29.171,37.824,28.498,36.997,28.498z M36.497,33.998
		c0,1.378-1.122,2.5-2.5,2.5h-14.26c0.48-0.715,0.76-1.576,0.76-2.5v-3.5h16V33.998z"/>
</g>
<g id="Layer_1">
</g>
</svg>
