<?xml version="1.0" encoding="iso-8859-1"?>
<!-- Generator: Adobe Illustrator 21.1.0, SVG Export Plug-In . SVG Version: 6.00 Build 0)  -->
<svg version="1.1" xmlns="http://www.w3.org/2000/svg" xmlns:xlink="http://www.w3.org/1999/xlink" x="0px" y="0px"
	 viewBox="0 0 49.996 49.996" style="enable-background:new 0 0 49.996 49.996;" xml:space="preserve">
<g id="OneToOne">
	<path style="fill:#353942;" d="M2.5,0C1.119,0,0,1.119,0,2.5v44.996c0,1.381,1.119,2.5,2.5,2.5h44.996c1.381,0,2.5-1.119,2.5-2.5
		V2.5c0-1.381-1.119-2.5-2.5-2.5H2.5z"/>
	<path style="fill:#5B616B;" d="M12.497,11.498c-0.552,0-1,0.448-1,1v25c0,0.552,0.448,1,1,1s1-0.448,1-1v-25
		C13.497,11.946,13.049,11.498,12.497,11.498z M37.497,11.498c-0.552,0-1,0.448-1,1v25c0,0.552,0.448,1,1,1s1-0.448,1-1v-25
		C38.497,11.946,38.049,11.498,37.497,11.498z M25.636,14.024h-1.278c-1.93,0-3.5,1.57-3.5,3.5v1.278c0,1.93,1.57,3.5,3.5,3.5h1.278
		c1.93,0,3.5-1.57,3.5-3.5v-1.278C29.136,15.594,27.566,14.024,25.636,14.024z M27.136,18.802c0,0.827-0.673,1.5-1.5,1.5h-1.278
		c-0.827,0-1.5-0.673-1.5-1.5v-1.278c0-0.827,0.673-1.5,1.5-1.5h1.278c0.827,0,1.5,0.673,1.5,1.5V18.802z M25.636,27.694h-1.278
		c-1.93,0-3.5,1.57-3.5,3.5v1.278c0,1.93,1.57,3.5,3.5,3.5h1.278c1.93,0,3.5-1.57,3.5-3.5v-1.278
		C29.136,29.264,27.566,27.694,25.636,27.694z M27.136,32.472c0,0.827-0.673,1.5-1.5,1.5h-1.278c-0.827,0-1.5-0.673-1.5-1.5v-1.278
		c0-0.827,0.673-1.5,1.5-1.5h1.278c0.827,0,1.5,0.673,1.5,1.5V32.472z"/>
</g>
<g id="Layer_1">
</g>
</svg>
