<?xml version="1.0" encoding="iso-8859-1"?>
<!-- Generator: Adobe Illustrator 21.1.0, SVG Export Plug-In . SVG Version: 6.00 Build 0)  -->
<svg version="1.1" xmlns="http://www.w3.org/2000/svg" xmlns:xlink="http://www.w3.org/1999/xlink" x="0px" y="0px"
	 viewBox="0 0 49.996 49.996" style="enable-background:new 0 0 49.996 49.996;" xml:space="preserve">
<g id="Pan">
	<path style="fill:#353942;" d="M2.5,0C1.119,0,0,1.119,0,2.5v44.996c0,1.381,1.119,2.5,2.5,2.5h44.996c1.381,0,2.5-1.119,2.5-2.5
		V2.5c0-1.381-1.119-2.5-2.5-2.5H2.5z"/>
	<path style="fill:#5B616B;" d="M37.389,29.696c0.047-0.409,0.136-1.15,0.244-2.059c0.264-2.217,0.663-5.567,0.851-7.332
		c0.116-1.076-0.575-2.074-1.606-2.322c-0.662-0.159-1.324,0.014-1.812,0.418l0.087-0.85c0.115-1.275-0.739-2.443-1.985-2.717
		c-0.616-0.136-1.247-0.02-1.776,0.324c-0.14,0.092-0.269,0.196-0.384,0.312v-1.202c0-1.525-1.239-2.768-2.761-2.771h-0.004
		c-0.734,0-1.425,0.287-1.945,0.808c-0.524,0.525-0.811,1.223-0.809,1.966l0.008,2.207l-0.151-0.589
		c-0.297-1.272-1.574-2.083-2.848-1.807c-1.26,0.272-2.116,1.49-1.948,2.78l1.08,7.799c-0.193-0.176-0.406-0.375-0.641-0.602
		c-0.971-0.938-2.479-0.98-3.509-0.095l-0.767,0.659c-0.607,0.521-0.713,1.419-0.245,2.089c0.835,1.195,2.365,3.359,3.227,4.417
		c0.748,0.919,1.893,1.728,2.686,2.219c0.173,0.168,0.449,0.974,0.449,1.42v0.383c-0.707,0.442-1.182,1.222-1.182,2.117v0.229
		c0,0.552,0.448,1,1,1s1-0.448,1-1v-0.229c0-0.276,0.221-0.5,0.493-0.5h11.032c0.272,0,0.493,0.224,0.493,0.5v0.229
		c0,0.552,0.448,1,1,1s1-0.448,1-1v-0.229c0-0.891-0.471-1.669-1.172-2.112c0.048-1.687,0.29-2.667,0.526-3.613
		C37.169,30.948,37.31,30.384,37.389,29.696z M35.647,27.401c-0.108,0.911-0.197,1.655-0.244,2.065
		c-0.065,0.559-0.185,1.038-0.324,1.594c-0.236,0.946-0.5,1.999-0.575,3.709h-9.675c0-0.6-0.321-2.446-1.354-3.091
		c-0.99-0.618-1.781-1.261-2.23-1.812c-0.77-0.945-2.172-2.921-2.922-3.991l0.46-0.395c0.241-0.208,0.592-0.2,0.817,0.017
		c1.194,1.152,1.938,1.727,2.427,2.027l0.148,1.069c0.076,0.547,0.578,0.927,1.128,0.854c0.547-0.076,0.929-0.581,0.853-1.128
		l-0.202-1.457c-0.001-0.084-0.013-0.168-0.034-0.248l-1.388-10.018c-0.034-0.259,0.137-0.504,0.389-0.559
		c0.214-0.046,0.427,0.092,0.483,0.328l1.92,7.489c0.128,0.551,0.644,0.918,1.211,0.854c0.563-0.064,0.987-0.541,0.987-1.111
		l-0.032-9.334c0-0.207,0.079-0.401,0.224-0.546c0.142-0.142,0.33-0.221,0.53-0.221c0,0,0,0,0.001,0
		c0.421,0.001,0.764,0.346,0.764,0.771v7.563c0,0.567,0.426,1.038,0.99,1.094c0.562,0.057,1.074-0.32,1.182-0.85l1.157-5.023
		c0.025-0.123,0.103-0.19,0.148-0.219c0.054-0.035,0.14-0.072,0.253-0.046c0.266,0.058,0.447,0.31,0.424,0.573l-0.617,6.051
		c-0.052,0.563,0.326,1.079,0.878,1.199c0.541,0.118,1.084-0.178,1.283-0.69l1.588-3.883c0.007-0.017,0.014-0.035,0.02-0.052
		c0.014-0.041,0.056-0.065,0.096-0.056c0.054,0.013,0.093,0.088,0.085,0.165C36.308,21.847,35.91,25.189,35.647,27.401z
		 M13.497,22.248c0-4.825,3.925-8.75,8.75-8.75c0.552,0,1-0.448,1-1s-0.448-1-1-1c-5.927,0-10.75,4.823-10.75,10.75
		c0,2.284,0.707,4.465,2.045,6.309c0.196,0.27,0.501,0.413,0.81,0.413c0.204,0,0.409-0.062,0.587-0.19
		c0.447-0.325,0.546-0.95,0.222-1.397C14.072,25.882,13.497,24.107,13.497,22.248z M17.216,22.166
		c0.189-1.291,0.76-2.483,1.652-3.448c0.375-0.406,0.35-1.038-0.055-1.413c-0.406-0.375-1.038-0.351-1.413,0.055
		c-1.167,1.262-1.915,2.823-2.163,4.515c-0.08,0.546,0.298,1.054,0.844,1.135c0.049,0.007,0.098,0.011,0.146,0.011
		C16.716,23.021,17.143,22.663,17.216,22.166z"/>
</g>
<g id="Layer_1">
</g>
</svg>
