<?xml version="1.0" encoding="utf-8"?>
<!-- Generator: Adobe Illustrator 21.1.0, SVG Export Plug-In . SVG Version: 6.00 Build 0)  -->
<svg version="1.1" id="Layer_1" xmlns="http://www.w3.org/2000/svg" xmlns:xlink="http://www.w3.org/1999/xlink" x="0px" y="0px"
	 viewBox="0 0 50 50" style="enable-background:new 0 0 50 50;" xml:space="preserve">
<style type="text/css">
	.st0{fill:#353942;}
	.st1{fill:#5B616B;}
</style>
<path class="st0" d="M25,50C11.2,50,0,38.8,0,25S11.2,0,25,0s25,11.2,25,25S38.8,50,25,50z"/>
<path class="st1" d="M37.9,29.4c0-1-0.2-1.8-0.6-2.3c0.2-0.2,0.3-0.5,0.3-0.9c0.1-0.3,0.5-3.3-0.7-4.5c-0.1-0.1-0.3-0.2-0.5-0.3
	c0.1-0.3,0.1-0.5,0-0.9c0,0-0.5-3.5-2.4-4c-0.1,0-0.2,0-0.3-0.1c-0.1-0.4-0.2-0.8-0.5-1.1L33,15.1c-0.6-0.7-1.3-1.6-2.4-1.7
	c-0.2,0-0.5,0-0.7,0.1c-0.1-0.2-0.1-0.3-0.2-0.4c-0.5-0.7-1.6-1.1-2.8-1.1c-0.7,0-1.5,0.1-2.1,0.5c-0.6-0.4-1.3-0.5-2.1-0.5
	c-1.2,0-2.3,0.4-2.8,1.1c-0.1,0.1-0.1,0.2-0.2,0.4c-0.2-0.1-0.5-0.1-0.7-0.1c-1,0.1-1.7,0.9-2.4,1.7l-0.2,0.2
	c-0.3,0.4-0.5,0.8-0.5,1.1c-0.1,0-0.2,0-0.4,0.1c-1.9,0.5-2.4,4-2.4,4c0,0.3,0,0.6,0,0.9c-0.2,0.1-0.3,0.2-0.5,0.3
	c-1.2,1.2-0.7,4.1-0.7,4.5c0.1,0.3,0.2,0.6,0.3,0.9c-0.4,0.5-0.6,1.3-0.6,2.3c0,1.2,0.2,2.1,0.5,2.6c-0.3,0.5-0.5,1.3-0.5,2.2
	c0,3.1,1.4,3.6,2.2,3.6h1.1c1.9,0,1.9-2.5,1.9-3.4c0-1-0.2-1.7-0.5-2.3c0.5-0.8,0.5-2,0.5-2.6c0-1.1-0.2-1.9-0.6-2.4
	c0.5-1,0.8-2.4,0.6-3.8c0-0.3-0.1-0.5-0.2-0.7c1-0.8,1.6-2.4,1.7-3.4v-0.1c1.1-0.4,2.3-1.3,2.7-2.3c0.3,0,0.6,0.1,0.9,0.1
	c0.8,0,1.7-0.2,2.1-0.3c0.2-0.1,0.4-0.2,0.5-0.3c0.2,0.1,0.3,0.2,0.5,0.3c0.5,0.2,1.3,0.3,2.1,0.3c0.3,0,0.6,0,0.9-0.1
	c0.5,1,1.6,1.9,2.7,2.3v0.1c0.1,1,0.7,2.6,1.7,3.4c-0.1,0.2-0.2,0.5-0.2,0.7c-0.2,1.4,0,2.8,0.6,3.8c-0.4,0.6-0.6,1.3-0.6,2.4
	c0,0.6,0,1.8,0.5,2.6c-0.3,0.5-0.5,1.3-0.5,2.3c0,0.9,0,3.4,1.9,3.4h1.1c0.8,0,2.2-0.5,2.2-3.6c0-1-0.2-1.7-0.5-2.2
	C37.6,31.5,37.9,30.7,37.9,29.4z M34.6,23.7c0-0.3,0.2-0.5,0.5-0.6c0,0,0,0,0.1,0l0,0c0.1,0,0.1,0,0.2,0c0.1,0,0.2,0,0.3,0.1
	c0.2,0.3,0.3,1.6,0.2,2.8c0,0.2-0.2,0.3-0.3,0.3l0,0c-0.2,0-0.4,0-0.5,0C34.6,25.7,34.5,24.8,34.6,23.7z M34.8,31.1
	c-0.1-0.2-0.1-0.6-0.1-1.5c0-1.5,0.2-1.5,0.8-1.5h0.1l0,0c0.2,0,0.4,0.2,0.4,1.2c0,1.2-0.2,1.6-0.3,1.7
	C35.7,31.1,34.8,31.1,34.8,31.1z M34.7,20.8c0,0.2-0.1,0.4-0.2,0.5h-0.1c-0.3,0-1.1-1.2-1.2-2.2c0-0.3,0.1-0.5,0.2-0.7
	c0.1-0.1,0.2-0.1,0.2-0.1h0.1C34,18.6,34.5,19.9,34.7,20.8z M16.3,18.4h0.1c0.1,0,0.2,0,0.2,0.1c0.2,0.1,0.2,0.4,0.2,0.7
	c-0.1,1-0.9,2.2-1.2,2.2h-0.1c-0.1-0.1-0.3-0.3-0.2-0.5C15.5,19.9,16,18.6,16.3,18.4z M14.3,31.1c0-0.1-0.3-0.5-0.3-1.7
	c0-1.3,0.3-1.3,0.5-1.3c0.6,0,0.8,0,0.8,1.5c0,0.9-0.1,1.3-0.1,1.5H14.3z M14.5,26.3L14.5,26.3c-0.1,0-0.3-0.1-0.3-0.3
	c-0.2-1.2-0.1-2.5,0.2-2.8c0,0,0.1-0.1,0.3-0.1c0.1,0,0.2,0,0.3,0c0.3,0.1,0.4,0.3,0.5,0.6c0.1,1.1,0,2-0.3,2.6
	C14.9,26.3,14.7,26.3,14.5,26.3z M15.2,36h-0.9c-0.1-0.1-0.3-0.5-0.3-1.7c0-1.3,0.3-1.3,0.5-1.3c0.6,0,0.8,0,0.8,1.5
	C15.4,35.4,15.3,35.8,15.2,36z M18.2,17.4c0-0.1-0.1-0.1-0.2-0.2c0-0.2,0-0.4,0.2-0.6l0.2-0.2c0.3-0.3,0.8-1,1-1l0,0
	c0,0,0.1,0,0.2,0.1s0.2,0.2,0.2,0.5C19.8,16.4,19,17,18.2,17.4z M24,14.7c0,0.1-0.1,0.1-0.2,0.2c-0.6,0.2-1.7,0.3-2.1,0.2
	c0-0.3,0-0.5,0-0.7c0.1-0.1,0.5-0.3,1.2-0.3s1,0.1,1,0.2C24,14.3,24.1,14.5,24,14.7z M26.2,14.9c-0.1,0-0.1-0.1-0.2-0.2
	c-0.1-0.2,0-0.4,0-0.5s0.3-0.2,1-0.2s1.1,0.2,1.2,0.3c0,0.1,0,0.4,0,0.7C27.9,15.1,26.8,15.1,26.2,14.9z M30.2,16.1
	c0-0.3,0.1-0.5,0.2-0.5c0.1-0.1,0.2-0.1,0.2-0.1l0,0c0.2,0,0.7,0.6,1,1l0.2,0.2c0.1,0.2,0.2,0.4,0.1,0.6c-0.1,0.1-0.1,0.1-0.1,0.2
	C31,17,30.2,16.4,30.2,16.1z M35.7,36h-0.9c-0.1-0.2-0.1-0.6-0.1-1.5c0-1.5,0.2-1.5,0.8-1.5c0.2,0,0.5,0,0.5,1.3
	C36,35.5,35.7,35.9,35.7,36z"/>
<g id="Layer_1_1_">
</g>
</svg>
