<?xml version="1.0" encoding="iso-8859-1"?>
<!-- Generator: Adobe Illustrator 21.1.0, SVG Export Plug-In . SVG Version: 6.00 Build 0)  -->
<svg version="1.1" xmlns="http://www.w3.org/2000/svg" xmlns:xlink="http://www.w3.org/1999/xlink" x="0px" y="0px"
	 viewBox="0 0 49.996 49.996" style="enable-background:new 0 0 49.996 49.996;" xml:space="preserve">
<g id="Perio">
	<path style="fill:#353942;" d="M2.5,0C1.119,0,0,1.119,0,2.5v44.996c0,1.381,1.119,2.5,2.5,2.5h44.996c1.381,0,2.5-1.119,2.5-2.5
		V2.5c0-1.381-1.119-2.5-2.5-2.5H2.5z"/>
	<path style="fill:#5B616B;" d="M34.997,11.498h-3.333c-0.979,0-1.864,0.405-2.5,1.055c-0.636-0.65-1.521-1.055-2.5-1.055H23.33
		c-0.979,0-1.864,0.405-2.5,1.055c-0.636-0.65-1.521-1.055-2.5-1.055h-3.333c-1.93,0-3.5,1.57-3.5,3.5v18.335
		c0,2.848,2.317,5.165,5.165,5.165h0.003c1.71,0,3.224-0.839,4.165-2.123c0.941,1.284,2.455,2.123,4.165,2.123h0.003
		c1.71,0,3.224-0.839,4.165-2.123c0.941,1.284,2.455,2.123,4.165,2.123h0.003c2.848,0,5.165-2.317,5.165-5.165V14.998
		C38.497,13.068,36.927,11.498,34.997,11.498z M16.665,36.498h-0.003c-1.745,0-3.165-1.42-3.165-3.165V14.998
		c0-0.827,0.673-1.5,1.5-1.5h3.333c0.827,0,1.5,0.673,1.5,1.5v18.335C19.83,35.078,18.41,36.498,16.665,36.498z M24.999,36.498
		h-0.003c-1.745,0-3.165-1.42-3.165-3.165V14.998c0-0.827,0.673-1.5,1.5-1.5h3.333c0.827,0,1.5,0.673,1.5,1.5v18.335
		C28.163,35.078,26.743,36.498,24.999,36.498z M36.497,33.333c0,1.745-1.42,3.165-3.165,3.165h-0.003
		c-1.745,0-3.165-1.42-3.165-3.165V14.998c0-0.827,0.673-1.5,1.5-1.5h3.333c0.827,0,1.5,0.673,1.5,1.5V33.333z"/>
</g>
<g id="Layer_1">
</g>
</svg>
