<?xml version="1.0" encoding="iso-8859-1"?>
<!-- Generator: Adobe Illustrator 21.1.0, SVG Export Plug-In . SVG Version: 6.00 Build 0)  -->
<svg version="1.1" xmlns="http://www.w3.org/2000/svg" xmlns:xlink="http://www.w3.org/1999/xlink" x="0px" y="0px"
	 viewBox="0 0 49.996 49.996" style="enable-background:new 0 0 49.996 49.996;" xml:space="preserve">
<g id="Polygon">
	<path style="fill:#353942;" d="M2.5,0C1.119,0,0,1.119,0,2.5v44.996c0,1.381,1.119,2.5,2.5,2.5h44.996c1.381,0,2.5-1.119,2.5-2.5
		V2.5c0-1.381-1.119-2.5-2.5-2.5H2.5z"/>
	<g>
		<path style="opacity:0.6;fill:#5B616B;" d="M37.497,32.748c-0.552,0-1,0.448-1,1v2.75h-2.75c-0.552,0-1,0.448-1,1s0.448,1,1,1
			h3.75c0.552,0,1-0.448,1-1v-3.75C38.497,33.196,38.049,32.748,37.497,32.748z M27.913,36.498H22.08c-0.552,0-1,0.448-1,1
			s0.448,1,1,1h5.833c0.552,0,1-0.448,1-1S28.466,36.498,27.913,36.498z M16.247,36.498h-2.75v-2.75c0-0.552-0.448-1-1-1
			s-1,0.448-1,1v3.75c0,0.552,0.448,1,1,1h3.75c0.552,0,1-0.448,1-1S16.799,36.498,16.247,36.498z M12.497,28.914
			c0.552,0,1-0.448,1-1v-5.833c0-0.552-0.448-1-1-1s-1,0.448-1,1v5.833C11.497,28.467,11.945,28.914,12.497,28.914z M16.247,11.498
			h-3.75c-0.552,0-1,0.448-1,1v3.75c0,0.552,0.448,1,1,1s1-0.448,1-1v-2.75h2.75c0.552,0,1-0.448,1-1S16.799,11.498,16.247,11.498z
			 M27.913,11.498H22.08c-0.552,0-1,0.448-1,1s0.448,1,1,1h5.833c0.552,0,1-0.448,1-1S28.466,11.498,27.913,11.498z M37.497,11.498
			h-3.75c-0.552,0-1,0.448-1,1s0.448,1,1,1h2.75v2.75c0,0.552,0.448,1,1,1s1-0.448,1-1v-3.75
			C38.497,11.946,38.049,11.498,37.497,11.498z M37.497,21.081c-0.552,0-1,0.448-1,1v5.833c0,0.552,0.448,1,1,1s1-0.448,1-1v-5.833
			C38.497,21.529,38.049,21.081,37.497,21.081z"/>
		<g>
			<g>
				<path style="fill:#5B616B;" d="M30.302,32.998h-10.61c-0.5,0-0.922-0.369-0.991-0.863l-1.179-8.547
					c-0.047-0.34,0.084-0.681,0.347-0.902l6.484-5.453c0.372-0.313,0.915-0.313,1.287,0l6.484,5.453
					c0.263,0.221,0.394,0.562,0.347,0.902l-1.179,8.547C31.224,32.629,30.802,32.998,30.302,32.998z M20.563,30.998h8.867
					l0.985-7.137l-5.418-4.556l-5.418,4.556L20.563,30.998z"/>
			</g>
		</g>
	</g>
</g>
<g id="Layer_1">
</g>
</svg>
