<?xml version="1.0" encoding="iso-8859-1"?>
<!-- Generator: Adobe Illustrator 21.1.0, SVG Export Plug-In . SVG Version: 6.00 Build 0)  -->
<svg version="1.1" xmlns="http://www.w3.org/2000/svg" xmlns:xlink="http://www.w3.org/1999/xlink" x="0px" y="0px"
	 viewBox="0 0 49.996 49.996" style="enable-background:new 0 0 49.996 49.996;" xml:space="preserve">
<g id="PolyRuler">
	<path style="fill:#353942;" d="M2.5,0C1.119,0,0,1.119,0,2.5v44.996c0,1.381,1.119,2.5,2.5,2.5h44.996c1.381,0,2.5-1.119,2.5-2.5
		V2.5c0-1.381-1.119-2.5-2.5-2.5H2.5z"/>
	<path style="fill:#5B616B;" d="M37.497,11.498h-25c-0.552,0-1,0.448-1,1v25c0,0.552,0.448,1,1,1h8.458c0.552,0,1-0.448,1-1V21.956
		l15.542,0c0,0,0,0,0.001,0h0c0,0,0.001,0,0.001,0c0,0,0,0,0.001,0h0c0,0,0,0,0.001,0h0c0,0,0.001,0,0.001,0
		c0.507-0.003,0.925-0.384,0.986-0.876v0c0-0.001,0-0.003,0.001-0.004c0-0.002,0-0.003,0-0.005c0-0.003,0-0.006,0.001-0.009v-0.002
		c0-0.003,0-0.006,0.001-0.009c0-0.001,0-0.003,0-0.004c0-0.003,0-0.006,0-0.008v0c0.002-0.027,0.003-0.054,0.003-0.082v-8.458
		C38.497,11.946,38.049,11.498,37.497,11.498z M36.497,19.955l-2.438,0v-1.888c0-0.552-0.448-1-1-1s-1,0.448-1,1v1.888l-2.035,0
		v-3.815c0-0.552-0.448-1-1-1s-1,0.448-1,1v3.815l-2.035,0v-1.888c0-0.552-0.448-1-1-1c-0.552,0-1,0.448-1,1v1.888l-2.035,0v-3.815
		c0-0.552-0.448-1-1-1s-1,0.448-1,1v3.815h-3.815c-0.552,0-1,0.448-1,1s0.448,1,1,1h3.815v2.035h-1.888c-0.552,0-1,0.448-1,1
		c0,0.552,0.448,1,1,1h1.888v2.035h-3.815c-0.552,0-1,0.448-1,1s0.448,1,1,1h3.815v2.035h-1.888c-0.552,0-1,0.448-1,1s0.448,1,1,1
		h1.888v2.438h-6.458v-23h23V19.955z"/>
</g>
<g id="Layer_1">
</g>
</svg>
