<?xml version="1.0" encoding="iso-8859-1"?>
<!-- Generator: Adobe Illustrator 21.1.0, SVG Export Plug-In . SVG Version: 6.00 Build 0)  -->
<svg version="1.1" xmlns="http://www.w3.org/2000/svg" xmlns:xlink="http://www.w3.org/1999/xlink" x="0px" y="0px"
	 viewBox="0 0 49.996 49.996" style="enable-background:new 0 0 49.996 49.996;" xml:space="preserve">
<g id="PopupCapture">
	<path style="fill:#353942;" d="M2.5,0C1.119,0,0,1.119,0,2.5v44.996c0,1.381,1.119,2.5,2.5,2.5h44.996c1.381,0,2.5-1.119,2.5-2.5
		V2.5c0-1.381-1.119-2.5-2.5-2.5H2.5z"/>
	<path style="fill:#5B616B;" d="M35.997,16.498h-2.979l-3.201-4.573c-0.187-0.267-0.493-0.427-0.819-0.427h-8
		c-0.326,0-0.632,0.159-0.819,0.427l-3.201,4.573h-2.979c-1.378,0-2.5,1.122-2.5,2.5v17c0,1.378,1.122,2.5,2.5,2.5h22
		c1.378,0,2.5-1.122,2.5-2.5v-17C38.497,17.62,37.375,16.498,35.997,16.498z M36.497,35.998c0,0.276-0.224,0.5-0.5,0.5h-22
		c-0.276,0-0.5-0.224-0.5-0.5v-17c0-0.276,0.224-0.5,0.5-0.5h3.5c0.326,0,0.632-0.159,0.819-0.427l3.201-4.573h6.959l3.201,4.573
		c0.187,0.267,0.493,0.427,0.819,0.427h3.5c0.276,0,0.5,0.224,0.5,0.5V35.998z M24.997,20.581c-3.914,0-7.099,3.185-7.099,7.099
		c0,3.915,3.185,7.099,7.099,7.099c3.915,0,7.099-3.185,7.099-7.099C32.096,23.766,28.911,20.581,24.997,20.581z M24.997,32.779
		c-2.812,0-5.099-2.288-5.099-5.099s2.287-5.099,5.099-5.099s5.099,2.287,5.099,5.099S27.808,32.779,24.997,32.779z M24.997,25.131
		c-1.406,0-2.55,1.144-2.55,2.549s1.144,2.55,2.55,2.55s2.549-1.144,2.549-2.55S26.403,25.131,24.997,25.131z M21.747,18.498h6.5
		c0.552,0,1-0.448,1-1s-0.448-1-1-1h-6.5c-0.552,0-1,0.448-1,1S21.195,18.498,21.747,18.498z"/>
</g>
<g id="Layer_1">
</g>
</svg>
