<?xml version="1.0" encoding="iso-8859-1"?>
<!-- Generator: Adobe Illustrator 21.1.0, SVG Export Plug-In . SVG Version: 6.00 Build 0)  -->
<svg version="1.1" xmlns="http://www.w3.org/2000/svg" xmlns:xlink="http://www.w3.org/1999/xlink" x="0px" y="0px"
	 viewBox="0 0 49.996 49.996" style="enable-background:new 0 0 49.996 49.996;" xml:space="preserve">
<g id="PosteriorOrientation">
	<path style="fill:#353942;" d="M2.5,0C1.119,0,0,1.119,0,2.5v44.996c0,1.381,1.119,2.5,2.5,2.5h44.996c1.381,0,2.5-1.119,2.5-2.5
		V2.5c0-1.381-1.119-2.5-2.5-2.5H2.5z"/>
	<g>
		<g>
			<path style="fill:#5B616B;" d="M17.247,38.498c-0.552,0-1-0.448-1-1v-25c0-0.552,0.448-1,1-1h9.25c3.998,0,7.25,3.252,7.25,7.25
				s-3.252,7.25-7.25,7.25h-8.25v11.5C18.247,38.05,17.799,38.498,17.247,38.498z M18.247,23.998h8.25c2.895,0,5.25-2.355,5.25-5.25
				s-2.355-5.25-5.25-5.25h-8.25V23.998z"/>
		</g>
	</g>
</g>
<g id="Layer_1">
</g>
</svg>
