<?xml version="1.0" encoding="iso-8859-1"?>
<!-- Generator: Adobe Illustrator 21.1.0, SVG Export Plug-In . SVG Version: 6.00 Build 0)  -->
<svg version="1.1" xmlns="http://www.w3.org/2000/svg" xmlns:xlink="http://www.w3.org/1999/xlink" x="0px" y="0px"
	 viewBox="0 0 49.996 49.996" style="enable-background:new 0 0 49.996 49.996;" xml:space="preserve">
<g id="PreviousImage">
	<path style="fill:#353942;" d="M2.5,0C1.119,0,0,1.119,0,2.5v44.996c0,1.381,1.119,2.5,2.5,2.5h44.996c1.381,0,2.5-1.119,2.5-2.5
		V2.5c0-1.381-1.119-2.5-2.5-2.5H2.5z"/>
	<path style="fill:#5B616B;" d="M14.911,25.998h13.586c0.552,0,1-0.448,1-1s-0.448-1-1-1H14.911l3.287-3.287
		c0.391-0.39,0.391-1.024,0-1.414c-0.39-0.391-1.024-0.391-1.414,0l-4.993,4.993c-0.047,0.047-0.088,0.098-0.125,0.153
		c-0.016,0.024-0.027,0.051-0.041,0.076c-0.017,0.032-0.036,0.062-0.05,0.096c-0.014,0.033-0.021,0.067-0.031,0.101
		c-0.008,0.029-0.02,0.056-0.025,0.086c-0.026,0.129-0.026,0.262,0,0.392c0.006,0.03,0.017,0.057,0.025,0.086
		c0.01,0.034,0.018,0.068,0.031,0.101c0.014,0.034,0.033,0.064,0.05,0.096c0.014,0.025,0.025,0.052,0.041,0.076
		c0.037,0.055,0.079,0.107,0.125,0.153l4.993,4.993c0.195,0.195,0.451,0.293,0.707,0.293s0.512-0.098,0.707-0.293
		c0.391-0.391,0.391-1.023,0-1.414L14.911,25.998z M37.497,11.498h-18c-0.552,0-1,0.448-1,1s0.448,1,1,1h17v23h-17
		c-0.552,0-1,0.448-1,1s0.448,1,1,1h18c0.552,0,1-0.448,1-1v-25C38.497,11.946,38.049,11.498,37.497,11.498z"/>
</g>
<g id="Layer_1">
</g>
</svg>
