<?xml version="1.0" encoding="iso-8859-1"?>
<!-- Generator: Adobe Illustrator 21.1.0, SVG Export Plug-In . SVG Version: 6.00 Build 0)  -->
<svg version="1.1" xmlns="http://www.w3.org/2000/svg" xmlns:xlink="http://www.w3.org/1999/xlink" x="0px" y="0px"
	 viewBox="0 0 49.996 49.996" style="enable-background:new 0 0 49.996 49.996;" xml:space="preserve">
<g id="PreviousPoint">
	<path style="fill:#353942;" d="M2.5,0C1.119,0,0,1.119,0,2.5v44.996c0,1.381,1.119,2.5,2.5,2.5h44.996c1.381,0,2.5-1.119,2.5-2.5
		V2.5c0-1.381-1.119-2.5-2.5-2.5H2.5z"/>
	<path style="fill:#5B616B;" d="M15.997,29.498c2.481,0,4.5-2.019,4.5-4.5c0-2.481-2.019-4.5-4.5-4.5s-4.5,2.019-4.5,4.5
		C11.497,27.479,13.516,29.498,15.997,29.498z M15.997,22.498c1.378,0,2.5,1.122,2.5,2.5s-1.122,2.5-2.5,2.5s-2.5-1.122-2.5-2.5
		S14.618,22.498,15.997,22.498z M37.497,23.998H26.108l1.887-1.887c0.391-0.39,0.391-1.024,0-1.414
		c-0.391-0.391-1.023-0.391-1.414,0l-3.594,3.594c-0.047,0.047-0.088,0.098-0.125,0.153c-0.016,0.024-0.027,0.051-0.041,0.076
		c-0.017,0.032-0.036,0.062-0.05,0.096c-0.014,0.033-0.021,0.067-0.031,0.101c-0.008,0.029-0.02,0.056-0.025,0.086
		c-0.026,0.129-0.026,0.262,0,0.392c0.006,0.03,0.017,0.057,0.025,0.086c0.01,0.034,0.018,0.068,0.031,0.101
		c0.014,0.034,0.033,0.064,0.05,0.096c0.014,0.025,0.025,0.052,0.041,0.076c0.037,0.055,0.079,0.107,0.125,0.153l3.594,3.594
		c0.195,0.195,0.451,0.293,0.707,0.293s0.512-0.098,0.707-0.293c0.391-0.391,0.391-1.023,0-1.414l-1.887-1.887h11.389
		c0.552,0,1-0.448,1-1S38.049,23.998,37.497,23.998z M34.997,11.498h-20c-1.93,0-3.5,1.57-3.5,3.5v2c0,0.552,0.448,1,1,1
		s1-0.448,1-1v-2c0-0.827,0.673-1.5,1.5-1.5h20c0.827,0,1.5,0.673,1.5,1.5v4.5c0,0.552,0.448,1,1,1s1-0.448,1-1v-4.5
		C38.497,13.068,36.927,11.498,34.997,11.498z M37.497,29.498c-0.552,0-1,0.448-1,1v4.5c0,0.827-0.673,1.5-1.5,1.5h-20
		c-0.827,0-1.5-0.673-1.5-1.5v-2c0-0.552-0.448-1-1-1s-1,0.448-1,1v2c0,1.93,1.57,3.5,3.5,3.5h20c1.93,0,3.5-1.57,3.5-3.5v-4.5
		C38.497,29.946,38.049,29.498,37.497,29.498z"/>
</g>
<g id="Layer_1">
</g>
</svg>
