<?xml version="1.0" encoding="iso-8859-1"?>
<!-- Generator: Adobe Illustrator 21.1.0, SVG Export Plug-In . SVG Version: 6.00 Build 0)  -->
<svg version="1.1" xmlns="http://www.w3.org/2000/svg" xmlns:xlink="http://www.w3.org/1999/xlink" x="0px" y="0px"
	 viewBox="0 0 49.996 49.996" style="enable-background:new 0 0 49.996 49.996;" xml:space="preserve">
<g id="Print">
	<path style="fill:#353942;" d="M2.5,0C1.119,0,0,1.119,0,2.5v44.996c0,1.381,1.119,2.5,2.5,2.5h44.996c1.381,0,2.5-1.119,2.5-2.5
		V2.5c0-1.381-1.119-2.5-2.5-2.5H2.5z"/>
	<path style="fill:#5B616B;" d="M35.997,23.998H34.08v-5.521c0-0.065-0.007-0.13-0.019-0.193c0-0.001,0-0.002,0-0.002
		c-0.017-0.085-0.048-0.165-0.086-0.242c-0.01-0.02-0.02-0.039-0.031-0.058c-0.044-0.076-0.094-0.148-0.157-0.212l-5.979-5.979
		c-0.063-0.063-0.136-0.113-0.212-0.157c-0.019-0.011-0.038-0.021-0.057-0.031c-0.077-0.038-0.157-0.069-0.242-0.086
		c-0.001,0-0.003,0-0.004,0c-0.063-0.012-0.127-0.019-0.191-0.019H16.914c-0.552,0-1,0.448-1,1v11.5h-1.917
		c-1.378,0-2.5,1.122-2.5,2.5v9.5c0,1.378,1.122,2.5,2.5,2.5h22c1.378,0,2.5-1.122,2.5-2.5v-9.5
		C38.497,25.12,37.375,23.998,35.997,23.998z M28.101,14.912l2.565,2.565h-2.565V14.912z M17.914,13.498h8.187v4.979
		c0,0.552,0.448,1,1,1h4.979v4.521H17.914V13.498z M32.08,36.498H17.914v-2c0-0.827,0.673-1.5,1.5-1.5H30.58
		c0.827,0,1.5,0.673,1.5,1.5V36.498z M36.497,35.998c0,0.276-0.224,0.5-0.5,0.5H34.08v-2c0-1.93-1.57-3.5-3.5-3.5H19.414
		c-1.93,0-3.5,1.57-3.5,3.5v2h-1.917c-0.276,0-0.5-0.224-0.5-0.5v-9.5c0-0.276,0.224-0.5,0.5-0.5h22c0.276,0,0.5,0.224,0.5,0.5
		V35.998z M34.174,27.206c-0.615,0-1.115,0.5-1.115,1.114c0,0.615,0.5,1.115,1.115,1.115c0.614,0,1.114-0.5,1.114-1.115
		C35.288,27.706,34.788,27.206,34.174,27.206z M24.997,27.321h-8.083c-0.552,0-1,0.448-1,1s0.448,1,1,1h8.083c0.552,0,1-0.448,1-1
		S25.549,27.321,24.997,27.321z"/>
</g>
<g id="Layer_1">
</g>
</svg>
