<?xml version="1.0" encoding="iso-8859-1"?>
<!-- Generator: Adobe Illustrator 21.1.0, SVG Export Plug-In . SVG Version: 6.00 Build 0)  -->
<svg version="1.1" xmlns="http://www.w3.org/2000/svg" xmlns:xlink="http://www.w3.org/1999/xlink" x="0px" y="0px"
	 viewBox="0 0 49.996 49.996" style="enable-background:new 0 0 49.996 49.996;" xml:space="preserve">
<g id="ProbeTool">
	<path style="fill:#353942;" d="M2.5,0C1.119,0,0,1.119,0,2.5v44.996c0,1.381,1.119,2.5,2.5,2.5h44.996c1.381,0,2.5-1.119,2.5-2.5
		V2.5c0-1.381-1.119-2.5-2.5-2.5H2.5z"/>
	<path style="fill:#5B616B;" d="M29.283,15.046c-0.188-0.188-0.442-0.293-0.707-0.293s-0.52,0.105-0.707,0.293L15.907,27.007
		c-0.652,0.651-1.025,1.553-1.025,2.475v4.217l-3.092,3.092c-0.391,0.391-0.391,1.023,0,1.414c0.195,0.195,0.451,0.293,0.707,0.293
		s0.512-0.098,0.707-0.293l3.092-3.092h4.217c0.935,0,1.813-0.364,2.475-1.025l11.961-11.961c0.391-0.39,0.391-1.024,0-1.414
		L29.283,15.046z M21.574,32.673c-0.284,0.284-0.66,0.44-1.061,0.44h-3.631v-3.631c0-0.395,0.16-0.781,0.439-1.061l11.255-11.254
		l4.252,4.252L21.574,32.673z M38.204,17.457l-5.667-5.667c-0.391-0.391-1.023-0.391-1.414,0c-0.391,0.39-0.391,1.024,0,1.414
		l5.667,5.667c0.195,0.195,0.451,0.293,0.707,0.293s0.512-0.098,0.707-0.293C38.595,18.481,38.595,17.848,38.204,17.457z"/>
</g>
<g id="Layer_1">
</g>
</svg>
