<?xml version="1.0" encoding="iso-8859-1"?>
<!-- Generator: Adobe Illustrator 21.1.0, SVG Export Plug-In . SVG Version: 6.00 Build 0)  -->
<svg version="1.1" xmlns="http://www.w3.org/2000/svg" xmlns:xlink="http://www.w3.org/1999/xlink" x="0px" y="0px"
	 viewBox="0 0 49.996 49.996" style="enable-background:new 0 0 49.996 49.996;" xml:space="preserve">
<g id="Protractor">
	<path style="fill:#353942;" d="M2.5,0C1.119,0,0,1.119,0,2.5v44.996c0,1.381,1.119,2.5,2.5,2.5h44.996c1.381,0,2.5-1.119,2.5-2.5
		V2.5c0-1.381-1.119-2.5-2.5-2.5H2.5z"/>
	<path style="fill:#5B616B;" d="M19.551,19.55c-1.172,1.171-1.818,2.729-1.819,4.386s0.645,3.214,1.816,4.386
		c0.188,0.188,0.442,0.293,0.707,0.293c0.265,0,0.52-0.105,0.707-0.293l7.359-7.358c0.188-0.188,0.293-0.442,0.293-0.707
		s-0.105-0.52-0.293-0.707C25.902,17.132,21.966,17.132,19.551,19.55z M20.341,26.117c-0.396-0.651-0.608-1.399-0.608-2.18
		c0-1.123,0.438-2.178,1.233-2.972c0.818-0.819,1.894-1.229,2.97-1.229c0.756,0,1.513,0.202,2.18,0.607L20.341,26.117z
		 M38.204,20.613l-5.475-5.472c-2.349-2.349-5.472-3.643-8.794-3.644c0,0,0,0,0,0c-3.322,0-6.445,1.294-8.794,3.643
		c-2.35,2.35-3.644,5.473-3.644,8.796c0,3.323,1.294,6.447,3.644,8.796l5.472,5.473c0.188,0.188,0.442,0.293,0.707,0.293
		c0.265,0,0.52-0.105,0.707-0.293l2.844-2.844c0,0,0,0,0,0s0,0,0,0l5.239-5.239c0,0,0.001-0.001,0.001-0.001
		s0.001-0.001,0.001-0.001l2.617-2.617c0.001-0.001,0.001-0.001,0.002-0.001s0.001-0.001,0.001-0.002l2.618-2.618
		c0,0,0.001,0,0.001-0.001s0-0.001,0.001-0.001l2.851-2.851c0.188-0.188,0.293-0.442,0.293-0.707
		C38.497,21.055,38.391,20.801,38.204,20.613z M34.645,22.758l-1.331-1.331c-0.391-0.391-1.023-0.391-1.414,0
		c-0.391,0.39-0.391,1.023,0,1.414l1.331,1.331l-1.206,1.206l-1.331-1.331c-0.391-0.391-1.023-0.391-1.414,0
		c-0.391,0.39-0.391,1.023,0,1.414l1.331,1.331l-1.206,1.206l-2.06-2.059c-0.391-0.391-1.023-0.391-1.414,0s-0.391,1.024,0,1.414
		l2.06,2.059l-1.206,1.206l-1.331-1.331c-0.39-0.391-1.024-0.391-1.414,0c-0.391,0.391-0.391,1.023,0,1.414l1.331,1.331
		l-1.206,1.206l-1.331-1.331c-0.39-0.391-1.023-0.391-1.414,0c-0.391,0.39-0.391,1.023,0,1.414l1.331,1.332l-1.43,1.43l-4.765-4.766
		c-1.972-1.972-3.058-4.593-3.058-7.382c0-2.788,1.086-5.41,3.058-7.382c1.971-1.971,4.592-3.057,7.38-3.057
		c2.788,0,5.409,1.086,7.38,3.058v0l4.767,4.765L34.645,22.758z"/>
</g>
<g id="Layer_1">
</g>
</svg>
