<?xml version="1.0" encoding="iso-8859-1"?>
<!-- Generator: Adobe Illustrator 21.1.0, SVG Export Plug-In . SVG Version: 6.00 Build 0)  -->
<svg version="1.1" xmlns="http://www.w3.org/2000/svg" xmlns:xlink="http://www.w3.org/1999/xlink" x="0px" y="0px"
	 viewBox="0 0 49.996 49.996" style="enable-background:new 0 0 49.996 49.996;" xml:space="preserve">
<g id="ReferenceLine">
	<path style="fill:#353942;" d="M2.5,0C1.119,0,0,1.119,0,2.5v44.996c0,1.381,1.119,2.5,2.5,2.5h44.996c1.381,0,2.5-1.119,2.5-2.5
		V2.5c0-1.381-1.119-2.5-2.5-2.5H2.5z"/>
	<g>
		<path style="opacity:0.6;fill:#5B616B;" d="M37.497,30.248c-0.552,0-1,0.448-1,1v5.25h-5.25c-0.552,0-1,0.448-1,1s0.448,1,1,1
			h6.25c0.552,0,1-0.448,1-1v-6.25C38.497,30.696,38.049,30.248,37.497,30.248z M18.747,36.498h-5.25v-5.25c0-0.552-0.448-1-1-1
			s-1,0.448-1,1v6.25c0,0.552,0.448,1,1,1h6.25c0.552,0,1-0.448,1-1S19.299,36.498,18.747,36.498z M18.747,11.498h-6.25
			c-0.552,0-1,0.448-1,1v6.25c0,0.552,0.448,1,1,1s1-0.448,1-1v-5.25h5.25c0.552,0,1-0.448,1-1S19.299,11.498,18.747,11.498z
			 M37.497,11.498h-6.25c-0.552,0-1,0.448-1,1s0.448,1,1,1h5.25v5.25c0,0.552,0.448,1,1,1s1-0.448,1-1v-6.25
			C38.497,11.946,38.049,11.498,37.497,11.498z"/>
		<g>
			<g>
				<path style="fill:#5B616B;" d="M37.497,25.998h-25c-0.552,0-1-0.448-1-1s0.448-1,1-1h25c0.552,0,1,0.448,1,1
					S38.049,25.998,37.497,25.998z"/>
			</g>
		</g>
	</g>
</g>
<g id="Layer_1">
</g>
</svg>
