<?xml version="1.0" encoding="iso-8859-1"?>
<!-- Generator: Adobe Illustrator 21.1.0, SVG Export Plug-In . SVG Version: 6.00 Build 0)  -->
<svg version="1.1" xmlns="http://www.w3.org/2000/svg" xmlns:xlink="http://www.w3.org/1999/xlink" x="0px" y="0px"
	 viewBox="0 0 49.996 49.996" style="enable-background:new 0 0 49.996 49.996;" xml:space="preserve">
<g id="Reload">
	<path style="fill:#353942;" d="M2.5,0C1.119,0,0,1.119,0,2.5v44.996c0,1.381,1.119,2.5,2.5,2.5h44.996c1.381,0,2.5-1.119,2.5-2.5
		V2.5c0-1.381-1.119-2.5-2.5-2.5H2.5z"/>
	<path style="fill:#5B616B;" d="M20.605,32.106c-3.92,0-7.108-3.189-7.108-7.108c0-3.92,3.189-7.108,7.108-7.108h1.673l-2.684,2.685
		c-0.391,0.39-0.391,1.024,0,1.414c0.195,0.195,0.451,0.293,0.707,0.293s0.512-0.098,0.707-0.293l4.391-4.391
		c0.047-0.047,0.088-0.098,0.125-0.153c0.016-0.024,0.027-0.051,0.041-0.076c0.017-0.032,0.036-0.062,0.05-0.096
		c0.014-0.033,0.021-0.067,0.031-0.101c0.008-0.029,0.02-0.056,0.025-0.086c0.026-0.129,0.026-0.262,0-0.392
		c-0.006-0.03-0.017-0.057-0.025-0.086c-0.01-0.034-0.018-0.068-0.031-0.101c-0.014-0.034-0.033-0.064-0.05-0.096
		c-0.014-0.025-0.025-0.052-0.041-0.076c-0.037-0.055-0.079-0.107-0.125-0.153l-4.391-4.391c-0.39-0.391-1.024-0.391-1.414,0
		c-0.391,0.39-0.391,1.024,0,1.414l2.684,2.685h-1.673c-5.022,0-9.108,4.086-9.108,9.108s4.086,9.108,9.108,9.108
		c0.552,0,1-0.448,1-1S21.158,32.106,20.605,32.106z M38.497,24.998c0-5.022-4.086-9.108-9.108-9.108c-0.552,0-1,0.448-1,1
		s0.448,1,1,1c3.919,0,7.108,3.189,7.108,7.108c0,3.919-3.189,7.108-7.108,7.108h-1.673l2.685-2.685
		c0.391-0.391,0.391-1.023,0-1.414s-1.023-0.391-1.414,0l-4.391,4.391c-0.047,0.047-0.089,0.098-0.125,0.153
		c-0.016,0.024-0.027,0.049-0.04,0.074c-0.018,0.032-0.037,0.064-0.052,0.098c-0.013,0.033-0.021,0.066-0.031,0.1
		c-0.009,0.029-0.02,0.057-0.026,0.087c-0.026,0.129-0.026,0.262,0,0.392c0.006,0.03,0.017,0.058,0.026,0.087
		c0.01,0.033,0.018,0.067,0.031,0.1c0.014,0.034,0.034,0.066,0.052,0.098c0.014,0.025,0.024,0.05,0.04,0.074
		c0.037,0.055,0.079,0.107,0.125,0.153l4.391,4.391c0.195,0.195,0.451,0.293,0.707,0.293s0.512-0.098,0.707-0.293
		c0.391-0.391,0.391-1.023,0-1.414l-2.685-2.685h1.673C34.411,34.106,38.497,30.02,38.497,24.998z"/>
</g>
<g id="Layer_1">
</g>
</svg>
