<?xml version="1.0" encoding="iso-8859-1"?>
<!-- Generator: Adobe Illustrator 21.1.0, SVG Export Plug-In . SVG Version: 6.00 Build 0)  -->
<svg version="1.1" xmlns="http://www.w3.org/2000/svg" xmlns:xlink="http://www.w3.org/1999/xlink" x="0px" y="0px"
	 viewBox="0 0 49.996 49.996" style="enable-background:new 0 0 49.996 49.996;" xml:space="preserve">
<g id="ReloadAll">
	<path style="fill:#353942;" d="M2.5,0C1.119,0,0,1.119,0,2.5v44.996c0,1.381,1.119,2.5,2.5,2.5h44.996c1.381,0,2.5-1.119,2.5-2.5
		V2.5c0-1.381-1.119-2.5-2.5-2.5H2.5z"/>
	<path style="fill:#5B616B;" d="M26.663,11.498h-5.167c-5.514,0-10,4.486-10,10c0,5.514,4.486,10,10,10h5.589l-5.293,5.293
		c-0.391,0.391-0.391,1.023,0,1.414c0.195,0.195,0.451,0.293,0.707,0.293s0.512-0.098,0.707-0.293l7-7
		c0.391-0.391,0.391-1.023,0-1.414l-7-7c-0.39-0.391-1.024-0.391-1.414,0c-0.391,0.39-0.391,1.024,0,1.414l5.293,5.293h-5.589
		c-4.411,0-8-3.589-8-8s3.589-8,8-8h5.167c5.422,0,9.833,4.411,9.833,9.833v14.167c0,0.552,0.448,1,1,1s1-0.448,1-1V23.331
		C38.497,16.806,33.188,11.498,26.663,11.498z"/>
</g>
<g id="Layer_1">
</g>
</svg>
