<?xml version="1.0" encoding="iso-8859-1"?>
<!-- Generator: Adobe Illustrator 21.1.0, SVG Export Plug-In . SVG Version: 6.00 Build 0)  -->
<svg version="1.1" xmlns="http://www.w3.org/2000/svg" xmlns:xlink="http://www.w3.org/1999/xlink" x="0px" y="0px"
	 viewBox="0 0 49.996 49.996" style="enable-background:new 0 0 49.996 49.996;" xml:space="preserve">
<g id="RenameTemplate">
	<path style="fill:#353942;" d="M2.5,0C1.119,0,0,1.119,0,2.5v44.996c0,1.381,1.119,2.5,2.5,2.5h44.996c1.381,0,2.5-1.119,2.5-2.5
		V2.5c0-1.381-1.119-2.5-2.5-2.5H2.5z"/>
	<g>
		<g style="opacity:0.5;">
			<g>
				<path style="fill:#5B616B;" d="M34.997,38.498h-20c-1.93,0-3.5-1.57-3.5-3.5v-20c0-1.93,1.57-3.5,3.5-3.5h20
					c1.93,0,3.5,1.57,3.5,3.5v20C38.497,36.928,36.927,38.498,34.997,38.498z M14.997,13.498c-0.827,0-1.5,0.673-1.5,1.5v20
					c0,0.827,0.673,1.5,1.5,1.5h20c0.827,0,1.5-0.673,1.5-1.5v-20c0-0.827-0.673-1.5-1.5-1.5H14.997z"/>
			</g>
		</g>
		<path style="fill:#5B616B;" d="M21.002,18.304c0.395-0.245,0.883-0.433,1.451-0.559c0.492-0.109,0.802-0.596,0.692-1.088
			c-0.109-0.492-0.599-0.802-1.088-0.692c-0.769,0.171-1.447,0.437-2.016,0.789c-0.236,0.146-0.45,0.324-0.638,0.526
			c-0.188-0.202-0.402-0.379-0.638-0.526c-0.569-0.353-1.248-0.619-2.016-0.79c-0.488-0.107-0.979,0.2-1.088,0.692
			c-0.109,0.491,0.201,0.979,0.692,1.088c0.568,0.126,1.056,0.314,1.451,0.559c0.424,0.262,0.687,0.768,0.687,1.318V30.55
			c0,0.551-0.263,1.056-0.687,1.319c-0.396,0.245-0.884,0.433-1.451,0.559c-0.492,0.109-0.802,0.597-0.692,1.088
			c0.094,0.425,0.471,0.714,0.889,0.714c0.066,0,0.132-0.007,0.199-0.022c0.768-0.171,1.446-0.437,2.016-0.79
			c0.236-0.146,0.45-0.324,0.638-0.526c0.189,0.202,0.402,0.38,0.638,0.526c0.57,0.353,1.248,0.619,2.016,0.79
			c0.067,0.015,0.133,0.022,0.199,0.022c0.418,0,0.795-0.29,0.889-0.714c0.109-0.491-0.201-0.979-0.692-1.088
			c-0.567-0.126-1.055-0.314-1.451-0.559c-0.424-0.263-0.687-0.768-0.687-1.319V19.622C20.315,19.072,20.578,18.566,21.002,18.304z
			 M26.205,32.421c-0.495,0-0.896,0.401-0.896,0.896s0.401,0.896,0.896,0.896c0.495,0,0.896-0.401,0.896-0.896
			S26.7,32.421,26.205,32.421z M29.986,32.421c-0.495,0-0.896,0.401-0.896,0.896s0.401,0.896,0.896,0.896
			c0.495,0,0.896-0.401,0.896-0.896S30.481,32.421,29.986,32.421z M33.768,32.421c-0.495,0-0.896,0.401-0.896,0.896
			s0.401,0.896,0.896,0.896s0.896-0.401,0.896-0.896S34.263,32.421,33.768,32.421z"/>
	</g>
</g>
<g id="Layer_1">
</g>
</svg>
