<?xml version="1.0" encoding="iso-8859-1"?>
<!-- Generator: Adobe Illustrator 21.1.0, SVG Export Plug-In . SVG Version: 6.00 Build 0)  -->
<svg version="1.1" xmlns="http://www.w3.org/2000/svg" xmlns:xlink="http://www.w3.org/1999/xlink" x="0px" y="0px"
	 viewBox="0 0 49.996 49.996" style="enable-background:new 0 0 49.996 49.996;" xml:space="preserve">
<g id="Reverse">
	<path style="fill:#353942;" d="M2.5,0C1.119,0,0,1.119,0,2.5v44.996c0,1.381,1.119,2.5,2.5,2.5h44.996c1.381,0,2.5-1.119,2.5-2.5
		V2.5c0-1.381-1.119-2.5-2.5-2.5H2.5z"/>
	<path style="fill:#5B616B;" d="M24.997,31.498c-0.552,0-1,0.448-1,1v5c0,0.552,0.448,1,1,1s1-0.448,1-1v-5
		C25.997,31.946,25.549,31.498,24.997,31.498z M24.997,21.498c-0.552,0-1,0.448-1,1v5c0,0.552,0.448,1,1,1s1-0.448,1-1v-5
		C25.997,21.946,25.549,21.498,24.997,21.498z M24.997,11.498c-0.552,0-1,0.448-1,1v5c0,0.552,0.448,1,1,1s1-0.448,1-1v-5
		C25.997,11.946,25.549,11.498,24.997,11.498z M21.045,24.717c-0.01-0.034-0.018-0.068-0.031-0.101
		c-0.014-0.034-0.033-0.064-0.05-0.096c-0.014-0.025-0.025-0.052-0.041-0.076c-0.037-0.055-0.079-0.107-0.125-0.153l-3.937-3.937
		c-0.39-0.391-1.024-0.391-1.414,0c-0.391,0.39-0.391,1.024,0,1.414l2.23,2.23h-5.18c-0.552,0-1,0.448-1,1s0.448,1,1,1h5.18
		l-2.23,2.23c-0.391,0.391-0.391,1.023,0,1.414c0.195,0.195,0.451,0.293,0.707,0.293c0.256,0,0.512-0.098,0.707-0.293l3.937-3.937
		c0.047-0.047,0.088-0.098,0.125-0.153c0.016-0.024,0.027-0.051,0.041-0.076c0.017-0.032,0.036-0.062,0.05-0.096
		c0.014-0.033,0.021-0.067,0.031-0.101c0.008-0.029,0.02-0.056,0.025-0.086c0.026-0.129,0.026-0.262,0-0.392
		C21.065,24.773,21.054,24.745,21.045,24.717z M37.497,23.998h-5.18l2.23-2.23c0.391-0.39,0.391-1.024,0-1.414
		c-0.391-0.391-1.023-0.391-1.414,0l-3.938,3.938c-0.391,0.39-0.391,1.024,0,1.414l3.938,3.938c0.195,0.195,0.451,0.293,0.707,0.293
		s0.512-0.098,0.707-0.293c0.391-0.391,0.391-1.023,0-1.414l-2.23-2.23h5.18c0.552,0,1-0.448,1-1S38.049,23.998,37.497,23.998z"/>
</g>
<g id="Layer_1">
</g>
</svg>
