<?xml version="1.0" encoding="iso-8859-1"?>
<!-- Generator: Adobe Illustrator 21.1.0, SVG Export Plug-In . SVG Version: 6.00 Build 0)  -->
<svg version="1.1" xmlns="http://www.w3.org/2000/svg" xmlns:xlink="http://www.w3.org/1999/xlink" x="0px" y="0px"
	 viewBox="0 0 49.996 49.996" style="enable-background:new 0 0 49.996 49.996;" xml:space="preserve">
<g id="RightOrientation">
	<path style="fill:#353942;" d="M2.5,0C1.119,0,0,1.119,0,2.5v44.996c0,1.381,1.119,2.5,2.5,2.5h44.996c1.381,0,2.5-1.119,2.5-2.5
		V2.5c0-1.381-1.119-2.5-2.5-2.5H2.5z"/>
	<path style="fill:#5B616B;" d="M28.032,25.831c3.262-0.706,5.715-3.612,5.715-7.083c0-3.998-3.252-7.25-7.25-7.25h-9.25
		c-0.552,0-1,0.448-1,1v25c0,0.552,0.448,1,1,1s1-0.448,1-1v-11.5h7.632l5.974,11.947c0.175,0.351,0.528,0.553,0.896,0.553
		c0.15,0,0.303-0.034,0.446-0.105c0.494-0.247,0.694-0.848,0.447-1.342L28.032,25.831z M18.247,13.498h8.25
		c2.895,0,5.25,2.355,5.25,5.25s-2.355,5.25-5.25,5.25h-8.25V13.498z"/>
</g>
<g id="Layer_1">
</g>
</svg>
