<?xml version="1.0" encoding="iso-8859-1"?>
<!-- Generator: Adobe Illustrator 21.1.0, SVG Export Plug-In . SVG Version: 6.00 Build 0)  -->
<svg version="1.1" xmlns="http://www.w3.org/2000/svg" xmlns:xlink="http://www.w3.org/1999/xlink" x="0px" y="0px"
	 viewBox="0 0 49.996 49.996" style="enable-background:new 0 0 49.996 49.996;" xml:space="preserve">
<g id="RotateClock">
	<path style="fill:#353942;" d="M2.5,0C1.119,0,0,1.119,0,2.5v44.996c0,1.381,1.119,2.5,2.5,2.5h44.996c1.381,0,2.5-1.119,2.5-2.5
		V2.5c0-1.381-1.119-2.5-2.5-2.5H2.5z"/>
	<path style="fill:#5B616B;" d="M37.627,11.506c-0.546-0.075-1.05,0.314-1.122,0.862l-0.643,4.909
		c-2.47-3.546-6.613-5.779-11.106-5.779c-7.311,0-13.259,6.056-13.259,13.5s5.948,13.5,13.259,13.5
		c4.688,0,9.075-2.562,11.447-6.685c0.275-0.479,0.111-1.09-0.368-1.365c-0.479-0.275-1.089-0.11-1.365,0.368
		c-2.017,3.504-5.739,5.682-9.714,5.682c-6.208,0-11.259-5.159-11.259-11.5c0-6.341,5.051-11.5,11.259-11.5
		c4.19,0,8.023,2.268,10.018,5.787l-6.212-0.813c-0.545-0.073-1.05,0.314-1.122,0.862c-0.071,0.548,0.314,1.05,0.862,1.121
		l8.015,1.049c0.02,0.003,0.04,0.003,0.06,0.004c0.015,0.001,0.03,0.003,0.046,0.003c0.009,0,0.017,0.002,0.026,0.002
		c0.03,0,0.059-0.005,0.088-0.008c0.026-0.002,0.052-0.003,0.078-0.007c0.054-0.009,0.107-0.024,0.158-0.042
		c0.008-0.003,0.016-0.003,0.024-0.006c0.001,0,0.001-0.001,0.002-0.001c0.06-0.022,0.116-0.051,0.17-0.084
		c0.02-0.012,0.037-0.027,0.056-0.041c0.032-0.023,0.064-0.045,0.093-0.072c0.019-0.018,0.036-0.037,0.054-0.056
		c0.025-0.027,0.05-0.054,0.072-0.083c0.015-0.02,0.028-0.041,0.041-0.062c0.02-0.032,0.04-0.064,0.057-0.098
		c0.011-0.022,0.02-0.045,0.029-0.068c0.014-0.034,0.026-0.069,0.036-0.105c0.007-0.027,0.013-0.054,0.018-0.081
		c0.004-0.019,0.01-0.037,0.013-0.057l1.049-8.015C38.56,12.08,38.174,11.578,37.627,11.506z"/>
</g>
<g id="Layer_1">
</g>
</svg>
