<?xml version="1.0" encoding="iso-8859-1"?>
<!-- Generator: Adobe Illustrator 21.1.0, SVG Export Plug-In . SVG Version: 6.00 Build 0)  -->
<svg version="1.1" xmlns="http://www.w3.org/2000/svg" xmlns:xlink="http://www.w3.org/1999/xlink" x="0px" y="0px"
	 viewBox="0 0 49.996 49.996" style="enable-background:new 0 0 49.996 49.996;" xml:space="preserve">
<g id="RotateCounterClock">
	<path style="fill:#353942;" d="M2.5,0C1.119,0,0,1.119,0,2.5v44.996c0,1.381,1.119,2.5,2.5,2.5h44.996c1.381,0,2.5-1.119,2.5-2.5
		V2.5c0-1.381-1.119-2.5-2.5-2.5H2.5z"/>
	<path style="fill:#5B616B;" d="M25.238,11.498c-4.494,0-8.636,2.233-11.106,5.779l-0.643-4.909
		c-0.072-0.547-0.572-0.933-1.121-0.862c-0.548,0.072-0.933,0.574-0.862,1.121l1.049,8.015c0.002,0.018,0.008,0.034,0.012,0.051
		c0.006,0.031,0.012,0.061,0.021,0.091c0.009,0.033,0.021,0.064,0.033,0.095c0.01,0.026,0.021,0.051,0.033,0.076
		c0.016,0.032,0.034,0.062,0.053,0.092c0.014,0.023,0.028,0.045,0.044,0.067c0.021,0.028,0.045,0.054,0.069,0.079
		c0.019,0.02,0.036,0.04,0.057,0.059c0.028,0.026,0.059,0.047,0.09,0.07c0.02,0.014,0.038,0.03,0.059,0.043
		c0.054,0.033,0.11,0.061,0.17,0.084c0.001,0,0.001,0.001,0.002,0.001c0.008,0.003,0.016,0.004,0.024,0.006
		c0.051,0.018,0.104,0.032,0.158,0.041c0.027,0.005,0.053,0.005,0.08,0.007c0.029,0.003,0.057,0.008,0.087,0.008
		c0.008,0,0.017-0.001,0.025-0.002c0.016,0,0.032-0.002,0.048-0.003c0.019-0.001,0.038-0.001,0.058-0.004l8.015-1.049
		c0.548-0.072,0.933-0.574,0.862-1.121s-0.572-0.934-1.121-0.862l-6.212,0.813c1.995-3.52,5.829-5.787,10.018-5.787
		c6.208,0,11.259,5.159,11.259,11.5c0,6.341-5.051,11.5-11.259,11.5c-3.975,0-7.697-2.177-9.714-5.682
		c-0.275-0.478-0.887-0.643-1.365-0.368s-0.643,0.887-0.368,1.366c2.373,4.123,6.759,6.684,11.448,6.684
		c7.311,0,13.259-6.056,13.259-13.5S32.549,11.498,25.238,11.498z"/>
</g>
<g id="Layer_1">
</g>
</svg>
