<?xml version="1.0" encoding="iso-8859-1"?>
<!-- Generator: Adobe Illustrator 21.1.0, SVG Export Plug-In . SVG Version: 6.00 Build 0)  -->
<svg version="1.1" xmlns="http://www.w3.org/2000/svg" xmlns:xlink="http://www.w3.org/1999/xlink" x="0px" y="0px"
	 viewBox="0 0 49.996 49.996" style="enable-background:new 0 0 49.996 49.996;" xml:space="preserve">
<g id="Rotate3D">
	<path style="fill:#353942;" d="M2.5,0C1.119,0,0,1.119,0,2.5v44.996c0,1.381,1.119,2.5,2.5,2.5h44.996c1.381,0,2.5-1.119,2.5-2.5
		V2.5c0-1.381-1.119-2.5-2.5-2.5H2.5z"/>
	<g>
		<path style="opacity:0.6;fill:#5B616B;" d="M17.491,25.034l-0.286,0.148c-0.245,0.127-0.341,0.429-0.214,0.674
			c0.089,0.171,0.263,0.27,0.444,0.27c0.077,0,0.156-0.018,0.23-0.056l0.286-0.148c0.245-0.127,0.341-0.429,0.214-0.674
			C18.038,25.003,17.736,24.907,17.491,25.034z M23.186,22.08l-0.633,0.328c-0.245,0.127-0.341,0.429-0.214,0.674
			c0.089,0.172,0.263,0.27,0.444,0.27c0.077,0,0.156-0.018,0.23-0.056l0.633-0.328c0.245-0.127,0.341-0.429,0.214-0.674
			C23.733,22.049,23.431,21.953,23.186,22.08z M19.389,24.05l-0.633,0.328c-0.245,0.127-0.341,0.429-0.214,0.674
			c0.089,0.172,0.263,0.27,0.444,0.27c0.077,0,0.156-0.018,0.23-0.056l0.633-0.328c0.245-0.127,0.341-0.429,0.214-0.674
			C19.936,24.019,19.636,23.923,19.389,24.05z M21.288,23.065l-0.633,0.328c-0.245,0.127-0.341,0.429-0.214,0.674
			c0.089,0.172,0.263,0.27,0.444,0.27c0.077,0,0.156-0.018,0.23-0.056l0.633-0.328c0.245-0.127,0.341-0.429,0.214-0.674
			C21.835,23.034,21.533,22.938,21.288,23.065z M25.484,21.423l-0.286-0.148c-0.144-0.074-0.316-0.074-0.46,0l-0.286,0.148
			c-0.245,0.127-0.341,0.429-0.214,0.674c0.089,0.172,0.263,0.27,0.444,0.27c0.077,0,0.156-0.018,0.23-0.056l0.056-0.029
			l0.056,0.029c0.246,0.127,0.547,0.031,0.674-0.214C25.825,21.852,25.729,21.55,25.484,21.423z M27.389,22.408l-0.635-0.328
			c-0.246-0.127-0.547-0.031-0.674,0.215c-0.126,0.245-0.031,0.547,0.215,0.674l0.635,0.328c0.073,0.038,0.152,0.056,0.229,0.056
			c0.181,0,0.356-0.099,0.445-0.271C27.731,22.837,27.635,22.535,27.389,22.408z M31.2,24.378l-0.635-0.328
			c-0.245-0.127-0.547-0.031-0.674,0.215s-0.031,0.547,0.215,0.674l0.635,0.328c0.073,0.038,0.152,0.056,0.229,0.056
			c0.181,0,0.356-0.099,0.445-0.271C31.542,24.806,31.446,24.504,31.2,24.378z M29.295,23.393l-0.635-0.328
			c-0.245-0.127-0.546-0.031-0.674,0.214c-0.126,0.245-0.031,0.547,0.214,0.674l0.635,0.328c0.073,0.038,0.152,0.056,0.229,0.056
			c0.181,0,0.355-0.098,0.445-0.27C29.636,23.821,29.54,23.52,29.295,23.393z M32.757,25.182l-0.286-0.148
			c-0.245-0.127-0.547-0.031-0.674,0.214c-0.126,0.245-0.031,0.547,0.215,0.674l0.286,0.148c0.073,0.038,0.152,0.056,0.229,0.056
			c0.181,0,0.356-0.099,0.445-0.271C33.098,25.611,33.003,25.309,32.757,25.182z M24.968,13.488c0.276,0,0.5-0.224,0.5-0.5v-0.322
			c0-0.276-0.224-0.5-0.5-0.5s-0.5,0.224-0.5,0.5v0.322C24.468,13.264,24.692,13.488,24.968,13.488z M24.968,15.443
			c0.276,0,0.5-0.224,0.5-0.5v-0.652c0-0.276-0.224-0.5-0.5-0.5s-0.5,0.224-0.5,0.5v0.652
			C24.468,15.219,24.692,15.443,24.968,15.443z M24.968,19.354c0.276,0,0.5-0.224,0.5-0.5v-0.652c0-0.276-0.224-0.5-0.5-0.5
			s-0.5,0.224-0.5,0.5v0.652C24.468,19.13,24.692,19.354,24.968,19.354z M24.968,17.399c0.276,0,0.5-0.224,0.5-0.5v-0.652
			c0-0.276-0.224-0.5-0.5-0.5s-0.5,0.224-0.5,0.5v0.652C24.468,17.175,24.692,17.399,24.968,17.399z M24.968,20.98
			c0.276,0,0.5-0.224,0.5-0.5v-0.322c0-0.276-0.224-0.5-0.5-0.5s-0.5,0.224-0.5,0.5v0.322C24.468,20.756,24.692,20.98,24.968,20.98z
			"/>
		<path style="fill:#5B616B;" d="M33.589,21.441c-0.02-0.009-0.041-0.018-0.061-0.027v-4.841c0-0.09-0.013-0.179-0.037-0.264
			c-0.008-0.03-0.024-0.056-0.034-0.085c-0.02-0.053-0.039-0.106-0.068-0.155c-0.018-0.031-0.043-0.057-0.064-0.086
			c-0.031-0.042-0.06-0.083-0.097-0.12c-0.027-0.026-0.058-0.047-0.088-0.07c-0.031-0.024-0.058-0.053-0.092-0.074
			c-0.011-0.007-0.023-0.009-0.034-0.015c-0.01-0.005-0.017-0.014-0.027-0.019l-7.559-3.907c-0.288-0.149-0.631-0.149-0.92,0.001
			l-7.533,3.907c-0.01,0.005-0.017,0.013-0.027,0.019c-0.01,0.006-0.022,0.008-0.033,0.014c-0.034,0.021-0.061,0.05-0.093,0.074
			c-0.03,0.023-0.061,0.044-0.088,0.071c-0.037,0.037-0.067,0.079-0.098,0.121c-0.021,0.029-0.045,0.054-0.063,0.085
			c-0.029,0.049-0.048,0.103-0.068,0.157c-0.011,0.028-0.026,0.054-0.034,0.083c-0.023,0.085-0.037,0.173-0.037,0.264v4.826
			c-0.019,0.009-0.039,0.017-0.057,0.026c-3.132,1.491-4.928,3.736-4.928,6.158c0,3.876,4.681,7.193,10.849,7.994l-1.424,1.217
			c-0.42,0.359-0.47,0.99-0.111,1.41c0.198,0.231,0.478,0.351,0.761,0.351c0.23,0,0.461-0.079,0.649-0.24l3.27-2.794
			c0.008-0.007,0.014-0.016,0.022-0.023c0.027-0.025,0.052-0.052,0.076-0.08c0.019-0.022,0.039-0.044,0.056-0.067
			c0.02-0.027,0.037-0.057,0.054-0.086c0.016-0.026,0.032-0.052,0.045-0.08c0.014-0.03,0.024-0.061,0.035-0.092
			c0.011-0.03,0.022-0.06,0.029-0.09c0.007-0.03,0.011-0.06,0.016-0.091c0.005-0.035,0.011-0.069,0.012-0.105
			c0-0.01,0.003-0.019,0.003-0.029c0-0.02-0.004-0.039-0.005-0.059c-0.001-0.036-0.004-0.072-0.009-0.109
			c-0.005-0.031-0.012-0.061-0.019-0.091c-0.008-0.033-0.017-0.065-0.028-0.097c-0.011-0.031-0.025-0.06-0.039-0.09
			c-0.014-0.029-0.028-0.057-0.044-0.085c-0.018-0.03-0.039-0.058-0.06-0.087c-0.012-0.017-0.021-0.035-0.035-0.051l-2.794-3.271
			c-0.359-0.42-0.99-0.47-1.41-0.111c-0.42,0.359-0.469,0.99-0.111,1.41l1.229,1.439c-5.017-0.69-9.02-3.229-9.02-5.995
			c0-1.43,1.077-2.833,2.985-3.931V25.8c0,0.374,0.208,0.716,0.54,0.888l7.533,3.907c0.042,0.022,0.087,0.033,0.131,0.049
			c0.026,0.009,0.051,0.022,0.077,0.029c0.083,0.022,0.167,0.034,0.252,0.034c0.085,0,0.169-0.013,0.252-0.034
			c0.027-0.007,0.053-0.02,0.08-0.03c0.043-0.015,0.087-0.026,0.128-0.048l7.559-3.907c0.333-0.171,0.541-0.514,0.541-0.888v-2.13
			c1.888,1.096,2.954,2.492,2.954,3.913c0,2.225-2.681,4.38-6.672,5.363c-0.536,0.132-0.864,0.674-0.732,1.21
			c0.113,0.456,0.521,0.761,0.97,0.761c0.08,0,0.16-0.009,0.24-0.029c4.977-1.227,8.193-4.094,8.193-7.306
			C38.481,25.171,36.698,22.932,33.589,21.441z M23.968,28.062l-5.533-2.87v-6.974l5.533,2.87V28.062z M24.969,19.354l-5.362-2.781
			l5.362-2.781l5.381,2.781L24.969,19.354z M31.528,25.191l-5.56,2.874v-6.976l2.447-1.265l3.113-1.609V25.191z"/>
	</g>
</g>
<g id="Layer_1">
</g>
</svg>
