<?xml version="1.0" encoding="iso-8859-1"?>
<!-- Generator: Adobe Illustrator 21.1.0, SVG Export Plug-In . SVG Version: 6.00 Build 0)  -->
<svg version="1.1" xmlns="http://www.w3.org/2000/svg" xmlns:xlink="http://www.w3.org/1999/xlink" x="0px" y="0px"
	 viewBox="0 0 49.996 49.996" style="enable-background:new 0 0 49.996 49.996;" xml:space="preserve">
<g id="Ruler">
	<path style="fill:#353942;" d="M2.5,0C1.119,0,0,1.119,0,2.5v44.996c0,1.381,1.119,2.5,2.5,2.5h44.996c1.381,0,2.5-1.119,2.5-2.5
		V2.5c0-1.381-1.119-2.5-2.5-2.5H2.5z"/>
	<path style="fill:#5B616B;" d="M38.204,17.976l-6.179-6.179c-0.375-0.375-1.039-0.375-1.414,0l-3.135,3.135
		c-0.001,0.001-0.002,0.001-0.003,0.002s-0.001,0.002-0.002,0.003l-3.133,3.133c0,0-0.001,0.001-0.001,0.001
		s-0.001,0.001-0.001,0.001l-6.271,6.271c0,0-0.001,0.001-0.001,0.001s-0.001,0.001-0.001,0.001l-3.133,3.133
		c-0.001,0.001-0.002,0.001-0.003,0.002s-0.001,0.002-0.002,0.003l-3.135,3.135c-0.188,0.188-0.293,0.442-0.293,0.707
		s0.105,0.52,0.293,0.707l6.179,6.179c0.195,0.195,0.451,0.293,0.707,0.293s0.512-0.098,0.707-0.293L38.204,19.39
		C38.595,19,38.595,18.367,38.204,17.976z M18.676,36.09l-4.765-4.765l1.723-1.723l1.464,1.464c0.195,0.195,0.451,0.293,0.707,0.293
		s0.512-0.098,0.707-0.293c0.391-0.391,0.391-1.023,0-1.414l-1.464-1.464l1.723-1.723l1.464,1.463
		c0.195,0.195,0.451,0.293,0.707,0.293s0.512-0.098,0.707-0.293c0.391-0.391,0.391-1.023,0-1.414l-1.464-1.463l1.723-1.723
		l2.616,2.616c0.195,0.195,0.451,0.293,0.707,0.293s0.512-0.098,0.707-0.293c0.391-0.391,0.391-1.024,0-1.414l-2.616-2.616
		l1.723-1.723l1.463,1.464c0.195,0.195,0.451,0.293,0.707,0.293s0.512-0.098,0.707-0.293c0.391-0.39,0.391-1.023,0-1.414
		l-1.463-1.464l1.723-1.723l1.464,1.464c0.195,0.195,0.451,0.293,0.707,0.293s0.512-0.098,0.707-0.293
		c0.391-0.39,0.391-1.024,0-1.414l-1.464-1.464l1.723-1.723l4.765,4.765L18.676,36.09z"/>
</g>
<g id="Layer_1">
</g>
</svg>
