<?xml version="1.0" encoding="iso-8859-1"?>
<!-- Generator: Adobe Illustrator 21.1.0, SVG Export Plug-In . SVG Version: 6.00 Build 0)  -->
<svg version="1.1" xmlns="http://www.w3.org/2000/svg" xmlns:xlink="http://www.w3.org/1999/xlink" x="0px" y="0px"
	 viewBox="0 0 49.996 49.996" style="enable-background:new 0 0 49.996 49.996;" xml:space="preserve">
<g id="SaveTemplate">
	<path style="fill:#353942;" d="M2.5,0C1.119,0,0,1.119,0,2.5v44.996c0,1.381,1.119,2.5,2.5,2.5h44.996c1.381,0,2.5-1.119,2.5-2.5
		V2.5c0-1.381-1.119-2.5-2.5-2.5H2.5z"/>
	<path style="fill:#5B616B;" d="M18.122,30.998v-4h2.25c0.552,0,1-0.448,1-1s-0.448-1-1-1h-3.25c-0.552,0-1,0.448-1,1v5
		c0,0.552,0.448,1,1,1S18.122,31.55,18.122,30.998z M37.497,27.185c-0.552,0-1,0.448-1,1v8.312h-2.625v-5.5c0-0.552-0.448-1-1-1
		s-1,0.448-1,1v5.5h-5.214c-0.552,0-1,0.448-1,1s0.448,1,1,1h10.839c0.552,0,1-0.448,1-1v-9.312
		C38.497,27.633,38.049,27.185,37.497,27.185z M16.372,21.81h12.688c0.552,0,1-0.448,1-1v-7.116
		c0.102,0.058,0.201,0.123,0.289,0.205l1.843,1.715c0.403,0.376,1.037,0.354,1.413-0.051c0.376-0.404,0.354-1.037-0.051-1.413
		l-1.843-1.714c-0.649-0.605-1.496-0.938-2.384-0.938H12.497c-0.552,0-1,0.448-1,1v25c0,0.552,0.448,1,1,1h2.063
		c0.552,0,1-0.448,1-1s-0.448-1-1-1h-1.063v-23h1.875v7.313C15.372,21.363,15.82,21.81,16.372,21.81z M20.434,13.498h7.625v6.313
		h-7.625V13.498z M35.682,24.627l2.102-2.09c0.461-0.465,0.714-1.079,0.713-1.724c0.001-0.658-0.253-1.275-0.716-1.734l-1.021-1.02
		c-0.461-0.463-1.076-0.719-1.73-0.719c-0.657,0-1.272,0.256-1.729,0.715L31.2,20.148c0,0-0.001,0.001-0.001,0.001
		s-0.001,0.001-0.001,0.001L18.911,32.447c-0.118,0.119-0.205,0.265-0.252,0.425l-1.277,4.344c-0.103,0.351-0.006,0.73,0.252,0.989
		c0.19,0.19,0.446,0.293,0.707,0.293c0.094,0,0.189-0.013,0.282-0.041l4.344-1.278c0.161-0.047,0.307-0.134,0.425-0.252
		l12.29-12.299C35.682,24.628,35.682,24.628,35.682,24.627z M22.448,35.042l-1.652-1.652l11.111-11.12l1.653,1.652L22.448,35.042z
		 M33.322,20.858l1.394-1.388c0.166-0.167,0.454-0.172,0.628,0.003l1.025,1.024c0.085,0.084,0.128,0.189,0.127,0.317
		c0,0.118-0.045,0.227-0.128,0.311l-1.393,1.386L33.322,20.858z"/>
</g>
<g id="Layer_1">
</g>
</svg>
