<?xml version="1.0" encoding="iso-8859-1"?>
<!-- Generator: Adobe Illustrator 21.1.0, SVG Export Plug-In . SVG Version: 6.00 Build 0)  -->
<svg version="1.1" xmlns="http://www.w3.org/2000/svg" xmlns:xlink="http://www.w3.org/1999/xlink" x="0px" y="0px"
	 viewBox="0 0 49.996 49.996" style="enable-background:new 0 0 49.996 49.996;" xml:space="preserve">
<g id="SaveHangingProtocol">
	<path style="fill:#353942;" d="M2.5,0C1.119,0,0,1.119,0,2.5v44.996c0,1.381,1.119,2.5,2.5,2.5h44.996c1.381,0,2.5-1.119,2.5-2.5
		V2.5c0-1.381-1.119-2.5-2.5-2.5H2.5z"/>
	<path style="fill:#5B616B;" d="M37.381,17.712l-5.671-5.276c-0.649-0.604-1.496-0.938-2.384-0.938H12.497c-0.552,0-1,0.448-1,1v25
		c0,0.552,0.448,1,1,1h25c0.552,0,1-0.448,1-1V20.274C38.497,19.306,38.09,18.372,37.381,17.712z M20.434,13.498h7.625v6.313h-7.625
		V13.498z M31.872,36.498h-13.75v-9.5h13.75V36.498z M36.497,36.498h-2.625v-10.5c0-0.552-0.448-1-1-1h-15.75c-0.552,0-1,0.448-1,1
		v10.5h-2.625v-23h1.875v7.313c0,0.552,0.448,1,1,1h12.688c0.552,0,1-0.448,1-1v-7.116c0.102,0.058,0.201,0.123,0.289,0.205v0
		l5.671,5.276c0.304,0.283,0.478,0.683,0.478,1.098V36.498z M23.026,35.301c0.387,0,0.693-0.306,0.693-0.693v-1.891h2.557v1.891
		c0,0.387,0.306,0.693,0.693,0.693s0.693-0.306,0.693-0.693v-5.023c0-0.387-0.306-0.693-0.693-0.693s-0.693,0.306-0.693,0.693v1.854
		H23.72v-1.854c0-0.387-0.306-0.693-0.693-0.693c-0.387,0-0.693,0.306-0.693,0.693v5.023C22.333,34.995,22.639,35.301,23.026,35.301
		z"/>
</g>
<g id="Layer_1">
</g>
</svg>
