<?xml version="1.0" encoding="iso-8859-1"?>
<!-- Generator: Adobe Illustrator 21.1.0, SVG Export Plug-In . SVG Version: 6.00 Build 0)  -->
<svg version="1.1" xmlns="http://www.w3.org/2000/svg" xmlns:xlink="http://www.w3.org/1999/xlink" x="0px" y="0px"
	 viewBox="0 0 49.996 49.996" style="enable-background:new 0 0 49.996 49.996;" xml:space="preserve">
<g id="ScrollRow">
	<path style="fill:#353942;" d="M2.5,0C1.119,0,0,1.119,0,2.5v44.996c0,1.381,1.119,2.5,2.5,2.5h44.996c1.381,0,2.5-1.119,2.5-2.5
		V2.5c0-1.381-1.119-2.5-2.5-2.5H2.5z"/>
	<path style="fill:#5B616B;" d="M12.497,11.498c-0.552,0-1,0.448-1,1v25c0,0.552,0.448,1,1,1s1-0.448,1-1v-25
		C13.497,11.946,13.049,11.498,12.497,11.498z M37.497,11.498c-0.552,0-1,0.448-1,1v25c0,0.552,0.448,1,1,1s1-0.448,1-1v-25
		C38.497,11.946,38.049,11.498,37.497,11.498z M30.663,29.456h-8.919l1.559-1.559c0.391-0.391,0.391-1.023,0-1.414
		s-1.024-0.391-1.414,0l-3.265,3.265c-0.046,0.046-0.088,0.097-0.124,0.151c-0.011,0.017-0.019,0.035-0.029,0.053
		c-0.023,0.039-0.046,0.077-0.064,0.119c-0.009,0.023-0.014,0.047-0.022,0.071c-0.013,0.038-0.027,0.076-0.035,0.116
		c-0.013,0.065-0.02,0.131-0.02,0.198c0,0.067,0.007,0.133,0.02,0.198c0.009,0.044,0.024,0.086,0.039,0.127
		c0.007,0.02,0.01,0.04,0.018,0.059c0.019,0.046,0.044,0.088,0.069,0.13c0.008,0.014,0.014,0.029,0.023,0.042
		c0.037,0.055,0.078,0.105,0.124,0.152l3.265,3.265c0.195,0.195,0.451,0.293,0.707,0.293s0.512-0.098,0.707-0.293
		c0.391-0.391,0.391-1.023,0-1.414l-1.559-1.559h8.919c0.552,0,1-0.448,1-1S31.216,29.456,30.663,29.456z M19.33,20.54h8.919
		l-1.559,1.559c-0.391,0.39-0.391,1.024,0,1.414c0.195,0.195,0.451,0.293,0.707,0.293s0.512-0.098,0.707-0.293l3.265-3.265
		c0.047-0.047,0.088-0.098,0.125-0.153c0.016-0.024,0.027-0.051,0.041-0.076c0.017-0.032,0.036-0.062,0.05-0.096
		c0.014-0.033,0.021-0.067,0.031-0.101c0.008-0.029,0.02-0.056,0.025-0.086c0.026-0.129,0.026-0.262,0-0.392
		c-0.006-0.03-0.017-0.057-0.025-0.086c-0.01-0.034-0.018-0.068-0.031-0.101c-0.014-0.034-0.033-0.064-0.05-0.096
		c-0.014-0.025-0.025-0.052-0.041-0.076c-0.037-0.055-0.079-0.107-0.125-0.153l-3.265-3.265c-0.391-0.391-1.023-0.391-1.414,0
		c-0.391,0.39-0.391,1.024,0,1.414l1.559,1.559H19.33c-0.552,0-1,0.448-1,1S18.778,20.54,19.33,20.54z"/>
</g>
<g id="Layer_1">
</g>
</svg>
