<?xml version="1.0" encoding="iso-8859-1"?>
<!-- Generator: Adobe Illustrator 21.1.0, SVG Export Plug-In . SVG Version: 6.00 Build 0)  -->
<svg version="1.1" xmlns="http://www.w3.org/2000/svg" xmlns:xlink="http://www.w3.org/1999/xlink" x="0px" y="0px"
	 viewBox="0 0 49.996 49.996" style="enable-background:new 0 0 49.996 49.996;" xml:space="preserve">
<g id="ScrollColumn">
	<path style="fill:#353942;" d="M2.5,0C1.119,0,0,1.119,0,2.5v44.996c0,1.381,1.119,2.5,2.5,2.5h44.996c1.381,0,2.5-1.119,2.5-2.5
		V2.5c0-1.381-1.119-2.5-2.5-2.5H2.5z"/>
	<path style="fill:#5B616B;" d="M12.497,13.498h25c0.552,0,1-0.448,1-1s-0.448-1-1-1h-25c-0.552,0-1,0.448-1,1
		S11.945,13.498,12.497,13.498z M37.497,36.498h-25c-0.552,0-1,0.448-1,1s0.448,1,1,1h25c0.552,0,1-0.448,1-1
		S38.049,36.498,37.497,36.498z M30.455,18.331c-0.552,0-1,0.448-1,1v8.919l-1.559-1.559c-0.391-0.391-1.023-0.391-1.414,0
		s-0.391,1.024,0,1.414l3.265,3.265c0.047,0.047,0.098,0.089,0.153,0.125c0.024,0.016,0.049,0.027,0.074,0.04
		c0.032,0.018,0.064,0.037,0.098,0.052c0.033,0.013,0.066,0.021,0.1,0.031c0.029,0.009,0.057,0.02,0.087,0.026
		c0.065,0.013,0.13,0.02,0.196,0.02s0.131-0.007,0.196-0.02c0.03-0.006,0.058-0.017,0.087-0.026c0.033-0.01,0.067-0.018,0.1-0.031
		c0.034-0.014,0.066-0.034,0.098-0.052c0.025-0.014,0.05-0.024,0.074-0.04c0.055-0.037,0.107-0.079,0.153-0.125l3.265-3.265
		c0.391-0.391,0.391-1.023,0-1.414s-1.023-0.391-1.414,0l-1.559,1.559v-8.919C31.455,18.779,31.008,18.331,30.455,18.331z
		 M19.539,31.664c0.552,0,1-0.448,1-1v-8.919l1.559,1.559c0.39,0.391,1.023,0.391,1.414,0c0.391-0.39,0.391-1.024,0-1.414
		l-3.265-3.265c-0.046-0.046-0.097-0.088-0.152-0.124c-0.013-0.009-0.028-0.015-0.042-0.023c-0.042-0.025-0.084-0.05-0.13-0.069
		c-0.019-0.008-0.04-0.012-0.059-0.018c-0.042-0.014-0.083-0.03-0.127-0.039c-0.065-0.013-0.131-0.02-0.198-0.02
		s-0.133,0.007-0.198,0.02c-0.044,0.009-0.086,0.024-0.127,0.039c-0.02,0.007-0.04,0.01-0.059,0.018
		c-0.046,0.019-0.088,0.044-0.13,0.069c-0.014,0.008-0.029,0.014-0.042,0.023c-0.055,0.037-0.105,0.078-0.152,0.124l-3.265,3.265
		c-0.391,0.39-0.391,1.024,0,1.414c0.195,0.195,0.451,0.293,0.707,0.293s0.512-0.098,0.707-0.293l1.559-1.559v8.919
		C18.539,31.217,18.986,31.664,19.539,31.664z"/>
</g>
<g id="Layer_1">
</g>
</svg>
