<?xml version="1.0" encoding="iso-8859-1"?>
<!-- Generator: Adobe Illustrator 21.1.0, SVG Export Plug-In . SVG Version: 6.00 Build 0)  -->
<svg version="1.1" xmlns="http://www.w3.org/2000/svg" xmlns:xlink="http://www.w3.org/1999/xlink" x="0px" y="0px"
	 viewBox="0 0 49.996 49.996" style="enable-background:new 0 0 49.996 49.996;" xml:space="preserve">
<g id="ScrollFrame">
	<path style="fill:#353942;" d="M2.5,0C1.119,0,0,1.119,0,2.5v44.996c0,1.381,1.119,2.5,2.5,2.5h44.996c1.381,0,2.5-1.119,2.5-2.5
		V2.5c0-1.381-1.119-2.5-2.5-2.5H2.5z"/>
	<path style="fill:#5B616B;" d="M37.497,10.998h-25c-0.552,0-1,0.448-1,1v16.5c0,0.552,0.448,1,1,1h25c0.552,0,1-0.448,1-1v-16.5
		C38.497,11.446,38.049,10.998,37.497,10.998z M36.497,27.498h-23v-14.5h23V27.498z M24.997,31.935
		c-1.398,0-2.531,1.133-2.531,2.531c0,1.398,1.133,2.531,2.531,2.531s2.531-1.133,2.531-2.531
		C27.528,33.069,26.395,31.935,24.997,31.935z M17.278,32.885c-0.874,0-1.582,0.708-1.582,1.582c0,0.874,0.708,1.582,1.582,1.582
		s1.582-0.708,1.582-1.582C18.86,33.593,18.152,32.885,17.278,32.885z M32.716,32.885c-0.874,0-1.582,0.708-1.582,1.582
		c0,0.874,0.708,1.582,1.582,1.582s1.582-0.708,1.582-1.582C34.298,33.593,33.589,32.885,32.716,32.885z"/>
</g>
<g id="Layer_1">
</g>
</svg>
