<?xml version="1.0" encoding="iso-8859-1"?>
<!-- Generator: Adobe Illustrator 21.1.0, SVG Export Plug-In . SVG Version: 6.00 Build 0)  -->
<svg version="1.1" xmlns="http://www.w3.org/2000/svg" xmlns:xlink="http://www.w3.org/1999/xlink" x="0px" y="0px"
	 viewBox="0 0 49.996 49.996" style="enable-background:new 0 0 49.996 49.996;" xml:space="preserve">
<g id="ScrollPage">
	<path style="fill:#353942;" d="M2.5,0C1.119,0,0,1.119,0,2.5v44.996c0,1.381,1.119,2.5,2.5,2.5h44.996c1.381,0,2.5-1.119,2.5-2.5
		V2.5c0-1.381-1.119-2.5-2.5-2.5H2.5z"/>
	<path style="fill:#5B616B;" d="M26.767,14.165h-3.54c-2.72,0-4.933,2.213-4.933,4.933v11.8c0,2.72,2.213,4.934,4.933,4.934h3.54
		c2.72,0,4.933-2.213,4.933-4.934v-11.8C31.7,16.378,29.487,14.165,26.767,14.165z M29.7,30.898c0,1.618-1.316,2.934-2.933,2.934
		h-3.54c-1.617,0-2.933-1.316-2.933-2.934v-11.8c0-1.617,1.316-2.933,2.933-2.933h3.54c1.617,0,2.933,1.316,2.933,2.933V30.898z
		 M24.997,18.726c-0.552,0-1,0.448-1,1v3.004c0,0.552,0.448,1,1,1s1-0.448,1-1v-3.004C25.997,19.174,25.549,18.726,24.997,18.726z
		 M14.997,13.498h1.417c0.552,0,1-0.448,1-1s-0.448-1-1-1h-1.417c-1.93,0-3.5,1.57-3.5,3.5v20c0,1.93,1.57,3.5,3.5,3.5h1.417
		c0.552,0,1-0.448,1-1s-0.448-1-1-1h-1.417c-0.827,0-1.5-0.673-1.5-1.5v-20C13.497,14.171,14.17,13.498,14.997,13.498z
		 M34.997,11.498H33.58c-0.552,0-1,0.448-1,1s0.448,1,1,1h1.417c0.827,0,1.5,0.673,1.5,1.5v20c0,0.827-0.673,1.5-1.5,1.5H33.58
		c-0.552,0-1,0.448-1,1s0.448,1,1,1h1.417c1.93,0,3.5-1.57,3.5-3.5v-20C38.497,13.068,36.927,11.498,34.997,11.498z"/>
</g>
<g id="Layer_1">
</g>
</svg>
