<?xml version="1.0" encoding="iso-8859-1"?>
<!-- Generator: Adobe Illustrator 21.1.0, SVG Export Plug-In . SVG Version: 6.00 Build 0)  -->
<svg version="1.1" xmlns="http://www.w3.org/2000/svg" xmlns:xlink="http://www.w3.org/1999/xlink" x="0px" y="0px"
	 viewBox="0 0 49.996 49.996" style="enable-background:new 0 0 49.996 49.996;" xml:space="preserve">
<g id="SecondaryCapture">
	<path style="fill:#353942;" d="M2.5,0C1.119,0,0,1.119,0,2.5v44.996c0,1.381,1.119,2.5,2.5,2.5h44.996c1.381,0,2.5-1.119,2.5-2.5
		V2.5c0-1.381-1.119-2.5-2.5-2.5H2.5z"/>
	<path style="fill:#5B616B;" d="M32.625,18.712c-2.038-2.038-4.747-3.16-7.628-3.16c-2.882,0-5.591,1.122-7.628,3.16l-5.579,5.579
		c-0.391,0.39-0.391,1.024,0,1.414l5.579,5.579c2.103,2.103,4.866,3.155,7.628,3.155c2.763,0,5.525-1.052,7.628-3.155l5.579-5.579
		c0.188-0.188,0.293-0.442,0.293-0.707s-0.105-0.52-0.293-0.707L32.625,18.712z M31.211,29.87c-3.427,3.426-9.001,3.426-12.428,0
		l-4.872-4.872l4.872-4.872c1.66-1.66,3.867-2.574,6.214-2.574c2.347,0,4.554,0.914,6.214,2.574l4.872,4.872L31.211,29.87z
		 M24.997,20.629c-2.409,0-4.369,1.96-4.369,4.369s1.96,4.369,4.369,4.369s4.369-1.96,4.369-4.369S27.406,20.629,24.997,20.629z
		 M24.997,27.367c-1.306,0-2.369-1.063-2.369-2.369c0-1.306,1.063-2.369,2.369-2.369c1.306,0,2.369,1.063,2.369,2.369
		C27.366,26.304,26.303,27.367,24.997,27.367z M37.497,30.331c-0.552,0-1,0.448-1,1v3.667c0,0.827-0.673,1.5-1.5,1.5h-20
		c-0.827,0-1.5-0.673-1.5-1.5v-3.667c0-0.552-0.448-1-1-1s-1,0.448-1,1v3.667c0,1.93,1.57,3.5,3.5,3.5h20c1.93,0,3.5-1.57,3.5-3.5
		v-3.667C38.497,30.779,38.049,30.331,37.497,30.331z M34.997,11.498h-20c-1.93,0-3.5,1.57-3.5,3.5v3.667c0,0.552,0.448,1,1,1
		s1-0.448,1-1v-3.667c0-0.827,0.673-1.5,1.5-1.5h20c0.827,0,1.5,0.673,1.5,1.5v3.667c0,0.552,0.448,1,1,1s1-0.448,1-1v-3.667
		C38.497,13.068,36.927,11.498,34.997,11.498z"/>
</g>
<g id="Layer_1">
</g>
</svg>
