<?xml version="1.0" encoding="iso-8859-1"?>
<!-- Generator: Adobe Illustrator 21.1.0, SVG Export Plug-In . SVG Version: 6.00 Build 0)  -->
<svg version="1.1" xmlns="http://www.w3.org/2000/svg" xmlns:xlink="http://www.w3.org/1999/xlink" x="0px" y="0px"
	 viewBox="0 0 49.996 49.996" style="enable-background:new 0 0 49.996 49.996;" xml:space="preserve">
<g id="Select">
	<path style="fill:#353942;" d="M2.5,0C1.119,0,0,1.119,0,2.5v44.996c0,1.381,1.119,2.5,2.5,2.5h44.996c1.381,0,2.5-1.119,2.5-2.5
		V2.5c0-1.381-1.119-2.5-2.5-2.5H2.5z"/>
	<g>
		<g>
			<path style="fill:#5B616B;" d="M28.941,38.445c-0.008,0-0.017,0-0.025,0c-0.414-0.011-0.773-0.29-0.886-0.688l-3.469-12.25
				l-12.335-3.693c-0.395-0.118-0.668-0.479-0.675-0.891c-0.007-0.412,0.254-0.782,0.645-0.914l25-8.408
				c0.34-0.114,0.719-0.026,0.973,0.23s0.341,0.634,0.225,0.975l-8.556,25C29.706,38.189,29.345,38.445,28.941,38.445z
				 M15.624,20.854l9.978,2.987c0.31,0.093,0.551,0.338,0.64,0.649l2.785,9.834l6.953-20.316L15.624,20.854z"/>
		</g>
	</g>
</g>
<g id="Layer_1">
</g>
</svg>
