<?xml version="1.0" encoding="iso-8859-1"?>
<!-- Generator: Adobe Illustrator 21.1.0, SVG Export Plug-In . SVG Version: 6.00 Build 0)  -->
<svg version="1.1" xmlns="http://www.w3.org/2000/svg" xmlns:xlink="http://www.w3.org/1999/xlink" x="0px" y="0px"
	 viewBox="0 0 49.996 49.996" style="enable-background:new 0 0 49.996 49.996;" xml:space="preserve">
<g id="SeriesLayout">
	<path style="fill:#353942;" d="M2.5,0C1.119,0,0,1.119,0,2.5v44.996c0,1.381,1.119,2.5,2.5,2.5h44.996c1.381,0,2.5-1.119,2.5-2.5
		V2.5c0-1.381-1.119-2.5-2.5-2.5H2.5z"/>
	<path style="fill:#5B616B;" d="M22.622,11.498H12.497c-0.552,0-1,0.448-1,1v10.125c0,0.552,0.448,1,1,1h10.125c0.552,0,1-0.448,1-1
		V12.498C23.622,11.946,23.174,11.498,22.622,11.498z M21.622,21.623h-8.125v-8.125h8.125V21.623z M22.622,26.373H12.497
		c-0.552,0-1,0.448-1,1v10.125c0,0.552,0.448,1,1,1h10.125c0.552,0,1-0.448,1-1V27.373C23.622,26.821,23.174,26.373,22.622,26.373z
		 M21.622,36.498h-8.125v-8.125h8.125V36.498z M37.497,11.498H27.372c-0.552,0-1,0.448-1,1v10.125c0,0.552,0.448,1,1,1h10.125
		c0.552,0,1-0.448,1-1V12.498C38.497,11.946,38.049,11.498,37.497,11.498z M36.497,21.623h-8.125v-8.125h8.125V21.623z
		 M37.497,26.373H27.372c-0.552,0-1,0.448-1,1v10.125c0,0.552,0.448,1,1,1h10.125c0.552,0,1-0.448,1-1V27.373
		C38.497,26.821,38.049,26.373,37.497,26.373z M36.497,36.498h-8.125v-8.125h8.125V36.498z"/>
</g>
<g id="Layer_1">
</g>
</svg>
