<?xml version="1.0" encoding="iso-8859-1"?>
<!-- Generator: Adobe Illustrator 21.1.0, SVG Export Plug-In . SVG Version: 6.00 Build 0)  -->
<svg version="1.1" xmlns="http://www.w3.org/2000/svg" xmlns:xlink="http://www.w3.org/1999/xlink" x="0px" y="0px"
	 viewBox="0 0 49.996 49.996" style="enable-background:new 0 0 49.996 49.996;" xml:space="preserve">
<g id="Settings3D">
	<path style="fill:#353942;" d="M2.5,0C1.119,0,0,1.119,0,2.5v44.996c0,1.381,1.119,2.5,2.5,2.5h44.996c1.381,0,2.5-1.119,2.5-2.5
		V2.5c0-1.381-1.119-2.5-2.5-2.5H2.5z"/>
	<g>
		<path style="opacity:0.6;fill:#5B616B;" d="M30.602,15.983c0.069,0,0.14-0.014,0.207-0.045l0.455-0.208
			c0.251-0.115,0.362-0.411,0.248-0.662c-0.115-0.251-0.412-0.363-0.663-0.247l-0.455,0.208c-0.251,0.115-0.362,0.411-0.248,0.662
			C30.23,15.874,30.412,15.983,30.602,15.983z M21.256,19.2l-0.831,0.379c-0.251,0.115-0.362,0.411-0.247,0.662
			c0.084,0.184,0.265,0.293,0.455,0.293c0.07,0,0.14-0.015,0.207-0.045l0.831-0.379c0.251-0.115,0.362-0.411,0.247-0.662
			C21.803,19.195,21.506,19.085,21.256,19.2z M28.11,17.121c0.069,0,0.14-0.015,0.207-0.045l0.831-0.379
			c0.251-0.115,0.362-0.411,0.248-0.662c-0.115-0.251-0.411-0.362-0.663-0.247l-0.831,0.379c-0.251,0.115-0.362,0.411-0.248,0.662
			C27.738,17.012,27.92,17.121,28.11,17.121z M18.764,20.338l-0.455,0.208c-0.178,0.081-0.292,0.259-0.292,0.455v0.5
			c0,0.276,0.224,0.5,0.5,0.5s0.5-0.224,0.5-0.5v-0.178l0.162-0.074c0.251-0.115,0.362-0.411,0.247-0.662
			C19.311,20.333,19.014,20.223,18.764,20.338z M18.516,25.475c-0.276,0-0.5,0.224-0.5,0.5v0.896c0,0.044,0.014,0.084,0.025,0.125
			l-0.336-0.154c-0.25-0.115-0.547-0.006-0.663,0.246c-0.115,0.25-0.005,0.547,0.246,0.663l0.909,0.417
			c0.045,0.021,0.091,0.024,0.138,0.03c-0.186,0.073-0.318,0.251-0.318,0.463v0.895c0,0.276,0.224,0.5,0.5,0.5s0.5-0.224,0.5-0.5
			v-0.895c0-0.252-0.189-0.451-0.43-0.486c0.117-0.045,0.218-0.13,0.274-0.253c0.098-0.212,0.027-0.451-0.148-0.591
			c0.178-0.076,0.304-0.253,0.304-0.46v-0.896C19.016,25.699,18.793,25.475,18.516,25.475z M18.516,22.79
			c-0.276,0-0.5,0.224-0.5,0.5v0.895c0,0.276,0.224,0.5,0.5,0.5s0.5-0.224,0.5-0.5V23.29C19.016,23.014,18.793,22.79,18.516,22.79z
			 M18.516,30.847c-0.276,0-0.5,0.224-0.5,0.5v0.895c0,0.276,0.224,0.5,0.5,0.5s0.5-0.224,0.5-0.5v-0.895
			C19.016,31.07,18.793,30.847,18.516,30.847z M18.516,33.532c-0.276,0-0.5,0.224-0.5,0.5v0.5c0,0.276,0.224,0.5,0.5,0.5
			s0.5-0.224,0.5-0.5v-0.5C19.016,33.756,18.793,33.532,18.516,33.532z M19.179,15.028l-0.455-0.208
			c-0.251-0.115-0.548-0.005-0.662,0.247c-0.115,0.251-0.004,0.548,0.247,0.662l0.455,0.208c0.067,0.031,0.138,0.045,0.207,0.045
			c0.19,0,0.371-0.109,0.455-0.293C19.541,15.439,19.43,15.142,19.179,15.028z M21.671,16.166l-0.831-0.379
			c-0.25-0.115-0.548-0.004-0.662,0.247c-0.115,0.251-0.004,0.548,0.247,0.662l0.831,0.379c0.067,0.031,0.138,0.045,0.207,0.045
			c0.19,0,0.371-0.108,0.455-0.292C22.033,16.577,21.922,16.28,21.671,16.166z M28.94,20.534c0.19,0,0.372-0.109,0.456-0.292
			c0.114-0.251,0.004-0.548-0.248-0.663L28.317,19.2c-0.251-0.115-0.548-0.004-0.663,0.247c-0.114,0.251-0.004,0.548,0.248,0.663
			l0.831,0.379C28.8,20.519,28.87,20.534,28.94,20.534z M24.163,17.303l-0.831-0.379c-0.251-0.115-0.548-0.004-0.662,0.247
			c-0.115,0.251-0.004,0.548,0.247,0.662l0.665,0.303l-0.665,0.304c-0.251,0.115-0.362,0.411-0.247,0.663
			c0.084,0.184,0.265,0.292,0.455,0.292c0.07,0,0.14-0.015,0.208-0.045l0.831-0.379c0.251-0.115,0.362-0.411,0.247-0.663
			c-0.032-0.07-0.08-0.126-0.135-0.172c0.055-0.046,0.104-0.101,0.136-0.171C24.525,17.714,24.415,17.418,24.163,17.303z
			 M25.409,18.972l0.831,0.379c0.067,0.031,0.138,0.045,0.207,0.045c0.19,0,0.372-0.109,0.456-0.292
			c0.114-0.251,0.004-0.548-0.248-0.663l-0.665-0.304l0.665-0.304c0.251-0.115,0.362-0.411,0.247-0.663s-0.413-0.362-0.662-0.247
			l-0.831,0.379c-0.251,0.115-0.362,0.411-0.247,0.663c0.032,0.07,0.081,0.124,0.135,0.17c-0.055,0.046-0.103,0.102-0.135,0.172
			C25.047,18.56,25.158,18.857,25.409,18.972z M30.556,21.5c0,0.276,0.224,0.5,0.5,0.5s0.5-0.224,0.5-0.5V21
			c0-0.196-0.114-0.374-0.292-0.455l-0.455-0.208c-0.251-0.115-0.548-0.003-0.663,0.247c-0.114,0.251-0.003,0.548,0.248,0.662
			l0.163,0.074V21.5z M31.056,30.847c-0.276,0-0.5,0.224-0.5,0.5v0.895c0,0.276,0.224,0.5,0.5,0.5s0.5-0.224,0.5-0.5v-0.895
			C31.556,31.07,31.333,30.847,31.056,30.847z M31.056,22.79c-0.276,0-0.5,0.224-0.5,0.5v0.895c0,0.276,0.224,0.5,0.5,0.5
			s0.5-0.224,0.5-0.5V23.29C31.556,23.014,31.333,22.79,31.056,22.79z M31.056,33.532c-0.276,0-0.5,0.224-0.5,0.5v0.5
			c0,0.276,0.224,0.5,0.5,0.5s0.5-0.224,0.5-0.5v-0.5C31.556,33.756,31.333,33.532,31.056,33.532z M13.163,24.754l-0.457-0.21
			c-0.25-0.115-0.548-0.005-0.663,0.246c-0.115,0.251-0.005,0.548,0.246,0.663l0.457,0.21c0.068,0.031,0.139,0.045,0.208,0.045
			c0.189,0,0.37-0.108,0.455-0.291C13.523,25.166,13.414,24.869,13.163,24.754z M15.889,26.007l-0.909-0.418
			c-0.251-0.116-0.548-0.006-0.663,0.245c-0.115,0.251-0.005,0.548,0.245,0.663l0.909,0.418c0.068,0.031,0.139,0.046,0.209,0.046
			c0.189,0,0.37-0.108,0.455-0.291C16.25,26.419,16.14,26.122,15.889,26.007z M29.105,28.288l-0.91,0.416
			c-0.251,0.115-0.361,0.412-0.247,0.663c0.084,0.184,0.265,0.292,0.455,0.292c0.069,0,0.14-0.015,0.208-0.045l0.91-0.416
			c0.251-0.115,0.361-0.412,0.247-0.663C29.653,28.285,29.356,28.173,29.105,28.288z M31.833,27.04l-0.463,0.212
			c0.111-0.092,0.187-0.225,0.187-0.381v-0.896c0-0.276-0.224-0.5-0.5-0.5s-0.5,0.224-0.5,0.5v0.896c0,0.276,0.224,0.5,0.5,0.5
			c0.034,0,0.063-0.013,0.095-0.019l-0.227,0.104c-0.251,0.115-0.361,0.412-0.247,0.663c0.025,0.054,0.06,0.099,0.099,0.139
			c-0.13,0.09-0.22,0.233-0.22,0.403v0.895c0,0.276,0.224,0.5,0.5,0.5s0.5-0.224,0.5-0.5v-0.895c0-0.13-0.052-0.245-0.133-0.334
			l0.826-0.378c0.251-0.115,0.361-0.412,0.247-0.663S32.084,26.924,31.833,27.04z M34.561,25.792l-0.909,0.416
			c-0.251,0.115-0.361,0.412-0.247,0.663c0.084,0.184,0.265,0.292,0.455,0.292c0.069,0,0.14-0.015,0.208-0.045l0.909-0.416
			c0.251-0.115,0.361-0.412,0.247-0.663C35.109,25.788,34.812,25.677,34.561,25.792z M37.951,24.79
			c-0.115-0.251-0.412-0.363-0.663-0.247l-0.909,0.416c-0.251,0.115-0.361,0.412-0.247,0.663c0.084,0.184,0.265,0.292,0.455,0.292
			c0.069,0,0.14-0.015,0.208-0.045l0.909-0.416C37.956,25.338,38.066,25.041,37.951,24.79z M24.067,29.765l-0.909-0.418
			c-0.251-0.116-0.548-0.006-0.663,0.245c-0.115,0.251-0.005,0.548,0.245,0.663l0.909,0.418c0.068,0.031,0.139,0.046,0.209,0.046
			c0.189,0,0.37-0.108,0.455-0.291C24.428,30.177,24.318,29.88,24.067,29.765z M21.341,28.512l-0.909-0.417
			c-0.25-0.116-0.548-0.005-0.663,0.246c-0.115,0.25-0.005,0.547,0.246,0.663l0.909,0.417c0.068,0.031,0.139,0.046,0.208,0.046
			c0.189,0,0.37-0.108,0.455-0.291C21.701,28.924,21.592,28.627,21.341,28.512z M26.377,29.537l-0.91,0.416
			c-0.251,0.115-0.362,0.412-0.247,0.663c0.084,0.184,0.265,0.292,0.455,0.292c0.069,0,0.14-0.015,0.208-0.045l0.91-0.416
			c0.251-0.115,0.361-0.412,0.247-0.663C26.925,29.533,26.629,29.421,26.377,29.537z"/>
		<path style="fill:#5B616B;" d="M38.458,17.963c-0.008-0.028-0.022-0.053-0.032-0.081c-0.021-0.056-0.044-0.111-0.074-0.163
			c-0.018-0.029-0.039-0.055-0.059-0.083c-0.033-0.044-0.067-0.085-0.106-0.124c-0.026-0.025-0.055-0.048-0.084-0.07
			c-0.022-0.017-0.041-0.039-0.065-0.054c-0.023-0.015-0.049-0.022-0.072-0.035c-0.018-0.01-0.032-0.024-0.051-0.033L25.44,11.589
			c-0.265-0.122-0.569-0.122-0.833-0.001L12.081,17.32c-0.019,0.009-0.034,0.024-0.052,0.034c-0.023,0.012-0.049,0.019-0.071,0.034
			c-0.024,0.015-0.042,0.036-0.064,0.053c-0.03,0.023-0.059,0.046-0.085,0.071c-0.039,0.038-0.073,0.079-0.105,0.122
			c-0.021,0.028-0.043,0.054-0.061,0.085c-0.03,0.051-0.052,0.104-0.073,0.16c-0.011,0.028-0.025,0.054-0.033,0.083
			c-0.023,0.084-0.037,0.17-0.038,0.259c0,0.003-0.001,0.005-0.001,0.008c0,0,0,0,0,0.001c0,0,0,0,0,0.001v13.536
			c0,0.391,0.228,0.746,0.583,0.909l12.474,5.732c0.03,0.014,0.062,0.021,0.094,0.031c0.025,0.008,0.048,0.018,0.073,0.024
			c0.083,0.021,0.166,0.036,0.251,0.036c0.084,0,0.168-0.014,0.251-0.036c0.025-0.007,0.049-0.016,0.074-0.025
			c0.03-0.011,0.062-0.017,0.091-0.03l12.526-5.732c0.356-0.163,0.584-0.518,0.584-0.909V18.23
			C38.497,18.138,38.482,18.049,38.458,17.963z M25.022,13.598l10.074,4.629l-10.152,4.635l-10.05-4.629L25.022,13.598z
			 M13.497,31.125V19.791l1.579,0.727l8.867,4.084l0.023,10.471l0.002,0.862L13.497,31.125z M36.497,31.124l-10.529,4.818
			l-0.025-11.338l8.443-3.855l2.111-0.964V31.124z"/>
	</g>
</g>
<g id="Layer_1">
</g>
</svg>
