<?xml version="1.0" encoding="iso-8859-1"?>
<!-- Generator: Adobe Illustrator 21.1.0, SVG Export Plug-In . SVG Version: 6.00 Build 0)  -->
<svg version="1.1" xmlns="http://www.w3.org/2000/svg" xmlns:xlink="http://www.w3.org/1999/xlink" x="0px" y="0px"
	 viewBox="0 0 49.996 49.996" style="enable-background:new 0 0 49.996 49.996;" xml:space="preserve">
<g id="ShowHide">
	<path style="fill:#353942;" d="M2.5,0C1.119,0,0,1.119,0,2.5v44.996c0,1.381,1.119,2.5,2.5,2.5h44.996c1.381,0,2.5-1.119,2.5-2.5
		V2.5c0-1.381-1.119-2.5-2.5-2.5H2.5z"/>
	<path style="fill:#5B616B;" d="M32.661,18.748l5.543-5.543c0.391-0.39,0.391-1.024,0-1.414c-0.391-0.391-1.023-0.391-1.414,0
		l-9.658,9.658c-0.005,0.004-0.01,0.008-0.015,0.012l-2.221,2.224L11.79,36.791c-0.391,0.391-0.391,1.023,0,1.414
		c0.195,0.195,0.451,0.293,0.707,0.293s0.512-0.098,0.707-0.293l5.668-5.668c1.853,1.286,3.991,1.924,6.124,1.924
		c2.766,0,5.521-1.069,7.628-3.177l5.579-5.579c0.188-0.188,0.293-0.442,0.293-0.707s-0.105-0.52-0.293-0.707L32.661,18.748z
		 M31.211,29.87c-2.952,2.951-7.459,3.396-10.892,1.22l1.92-1.92c0.811,0.539,1.762,0.828,2.758,0.828c2.757,0,5-2.243,5-5
		c0-0.996-0.29-1.947-0.828-2.758l2.078-2.078l4.836,4.836L31.211,29.87z M15.977,29.893c0.195,0.195,0.451,0.293,0.707,0.293
		s0.512-0.098,0.707-0.293c0.391-0.391,0.391-1.023,0-1.414l-3.48-3.48l4.872-4.872c2.486-2.487,6.204-3.253,9.472-1.95
		c0.514,0.205,1.095-0.046,1.299-0.559c0.204-0.513-0.046-1.095-0.559-1.299c-4.011-1.598-8.574-0.658-11.626,2.394l-5.579,5.579
		c-0.391,0.39-0.391,1.024,0,1.414L15.977,29.893z M19.999,24.842c-0.017,0.552,0.417,1.013,0.969,1.03c0.01,0,0.021,0,0.031,0
		c0.538,0,0.982-0.428,0.999-0.969c0.049-1.579,1.323-2.855,2.903-2.904c0.552-0.017,0.986-0.479,0.969-1.031
		c-0.018-0.552-0.478-0.983-1.031-0.968C22.206,20.083,20.08,22.209,19.999,24.842z"/>
</g>
<g id="Layer_1">
</g>
</svg>
