<?xml version="1.0" encoding="iso-8859-1"?>
<!-- Generator: Adobe Illustrator 21.1.0, SVG Export Plug-In . SVG Version: 6.00 Build 0)  -->
<svg version="1.1" xmlns="http://www.w3.org/2000/svg" xmlns:xlink="http://www.w3.org/1999/xlink" x="0px" y="0px"
	 viewBox="0 0 49.996 49.996" style="enable-background:new 0 0 49.996 49.996;" xml:space="preserve">
<g id="ShowFirstLast">
	<path style="fill:#353942;" d="M2.5,0C1.119,0,0,1.119,0,2.5v44.996c0,1.381,1.119,2.5,2.5,2.5h44.996c1.381,0,2.5-1.119,2.5-2.5
		V2.5c0-1.381-1.119-2.5-2.5-2.5H2.5z"/>
	<path style="fill:#5B616B;" d="M32.934,16.06H17.059c-0.552,0-1,0.448-1,1v15.875c0,0.552,0.448,1,1,1h15.875c0.552,0,1-0.448,1-1
		V17.06C33.934,16.508,33.487,16.06,32.934,16.06z M31.934,31.935H18.059V18.06h13.875V31.935z M37.497,11.498H32.08
		c-0.552,0-1,0.448-1,1s0.448,1,1,1h4.417v4.417c0,0.552,0.448,1,1,1s1-0.448,1-1v-5.417C38.497,11.946,38.049,11.498,37.497,11.498
		z M17.914,36.498h-4.417v-4.417c0-0.552-0.448-1-1-1s-1,0.448-1,1v5.417c0,0.552,0.448,1,1,1h5.417c0.552,0,1-0.448,1-1
		S18.466,36.498,17.914,36.498z"/>
</g>
<g id="Layer_1">
</g>
</svg>
