<?xml version="1.0" encoding="iso-8859-1"?>
<!-- Generator: Adobe Illustrator 21.1.0, SVG Export Plug-In . SVG Version: 6.00 Build 0)  -->
<svg version="1.1" xmlns="http://www.w3.org/2000/svg" xmlns:xlink="http://www.w3.org/1999/xlink" x="0px" y="0px"
	 viewBox="0 0 49.996 49.996" style="enable-background:new 0 0 49.996 49.996;" xml:space="preserve">
<g id="ShutterObject">
	<path style="fill:#353942;" d="M2.5,0C1.119,0,0,1.119,0,2.5v44.996c0,1.381,1.119,2.5,2.5,2.5h44.996c1.381,0,2.5-1.119,2.5-2.5
		V2.5c0-1.381-1.119-2.5-2.5-2.5H2.5z"/>
	<path style="fill:#5B616B;" d="M37.994,18.729c0-0.014-0.004-0.027-0.006-0.042c-0.006-0.048-0.018-0.094-0.037-0.137
		c-0.004-0.009-0.003-0.018-0.007-0.026c-0.003-0.005-0.008-0.008-0.01-0.013c-0.028-0.052-0.063-0.098-0.108-0.137
		c-0.008-0.007-0.017-0.011-0.026-0.018c-0.026-0.02-0.051-0.04-0.08-0.055l-8.362-4.181c0,0,0,0,0,0l-4.138-2.069
		c-0.005-0.002-0.01-0.002-0.015-0.004c-0.011-0.005-0.022-0.009-0.033-0.013c-0.027-0.01-0.056-0.013-0.084-0.018
		c-0.026-0.005-0.05-0.013-0.076-0.014c-0.005,0-0.01-0.003-0.015-0.003c-0.005,0-0.01,0.003-0.015,0.003
		c-0.026,0.001-0.05,0.009-0.076,0.014c-0.029,0.005-0.057,0.008-0.085,0.019c-0.011,0.004-0.022,0.008-0.033,0.013
		c-0.005,0.002-0.01,0.002-0.015,0.004l-4.138,2.069c0,0,0,0,0,0L12.273,18.3c-0.029,0.015-0.054,0.035-0.079,0.054
		c-0.009,0.007-0.019,0.011-0.027,0.019c-0.044,0.039-0.079,0.086-0.107,0.137c-0.003,0.005-0.008,0.008-0.01,0.013
		c-0.004,0.009-0.003,0.018-0.007,0.026c-0.019,0.044-0.031,0.089-0.037,0.137c-0.002,0.014-0.005,0.027-0.006,0.042
		c0,0.006-0.003,0.012-0.003,0.018v12.5c0,0.006,0.002,0.012,0.003,0.018c0,0.014,0.004,0.027,0.006,0.042
		c0.006,0.048,0.018,0.094,0.037,0.137c0.004,0.009,0.003,0.018,0.007,0.027c0.003,0.007,0.009,0.012,0.013,0.018
		c0.012,0.021,0.027,0.04,0.042,0.06c0.014,0.018,0.027,0.036,0.043,0.052c0.015,0.015,0.033,0.028,0.051,0.041
		c0.019,0.015,0.038,0.029,0.059,0.041c0.006,0.003,0.01,0.008,0.017,0.011l12.5,6.25c0.004,0.002,0.009,0.001,0.014,0.003
		c0.012,0.006,0.025,0.01,0.038,0.015c0.055,0.02,0.111,0.034,0.17,0.034c0,0,0.001,0,0.001,0c0,0,0,0,0,0c0,0,0,0,0,0s0,0,0,0
		c0,0,0,0,0,0c0,0,0.001,0,0.001,0c0.059,0,0.116-0.014,0.17-0.034c0.013-0.005,0.025-0.009,0.037-0.015
		c0.005-0.002,0.009-0.001,0.014-0.003l12.5-6.25c0.006-0.003,0.011-0.008,0.017-0.012c0.021-0.011,0.039-0.026,0.058-0.04
		c0.018-0.014,0.036-0.026,0.052-0.042c0.016-0.016,0.029-0.034,0.042-0.051c0.015-0.02,0.03-0.039,0.042-0.06
		c0.004-0.007,0.009-0.012,0.013-0.019c0.004-0.009,0.003-0.018,0.007-0.027c0.019-0.043,0.031-0.089,0.037-0.137
		c0.002-0.014,0.005-0.028,0.006-0.042c0-0.006,0.002-0.012,0.002-0.018v-12.5C37.997,18.741,37.995,18.736,37.994,18.729z
		 M24.497,24.189l-2.549-1.275l2.549-1.275V24.189z M25.497,21.64l2.549,1.274l-2.549,1.275V21.64z M23.879,24.998l-2.549,1.274
		v-2.549L23.879,24.998z M24.497,25.808v2.547l-2.548-1.274L24.497,25.808z M25.497,25.834l2.527,1.258l-2.527,1.263V25.834z
		 M26.089,25.012l2.575-1.288v2.569L26.089,25.012z M26.115,20.831l2.549-1.274v2.548L26.115,20.831z M21.33,22.105v-2.549
		l2.549,1.274L21.33,22.105z M20.33,26.272l-2.548-1.274l2.548-1.274V26.272z M23.879,29.164l-2.549,1.275V27.89L23.879,29.164z
		 M28.664,27.89v2.549l-2.549-1.275L28.664,27.89z M29.664,23.723l2.548,1.274l-2.548,1.274V23.723z M30.282,22.915l2.548-1.274
		v2.548L30.282,22.915z M29.664,22.106v-2.55l2.55,1.275L29.664,22.106z M25.497,20.022v-2.549l2.549,1.274L25.497,20.022z
		 M24.497,20.022l-2.549-1.275l2.549-1.275V20.022z M20.33,22.106l-2.549-1.275l2.549-1.275V22.106z M19.712,22.915l-2.547,1.274
		v-2.548L19.712,22.915z M19.713,27.081l-2.549,1.274v-2.549L19.713,27.081z M20.33,27.891v2.548l-2.548-1.274L20.33,27.891z
		 M24.497,29.973v2.549l-2.549-1.274L24.497,29.973z M25.497,29.973l2.549,1.275l-2.549,1.275V29.973z M29.664,27.908l2.537,1.263
		l-2.537,1.268V27.908z M30.264,27.09l2.566-1.283v2.56L30.264,27.09z M33.83,21.64l2.548,1.274l-2.548,1.274V21.64z M30.283,18.747
		l2.56-1.28l0.042,2.581L30.283,18.747z M26.115,16.664l2.549-1.274v2.548L26.115,16.664z M21.33,17.938v-2.549l2.549,1.274
		L21.33,17.938z M17.164,20.021v-2.547l2.547,1.274L17.164,20.021z M16.164,24.189l-2.549-1.275l2.549-1.275V24.189z M15.546,24.998
		l-2.549,1.275v-2.549L15.546,24.998z M16.164,25.807v2.549l-2.549-1.275L16.164,25.807z M19.712,31.248l-2.548,1.274v-2.548
		L19.712,31.248z M23.879,33.331l-2.549,1.274v-2.549L23.879,33.331z M28.664,32.057v2.549l-2.549-1.274L28.664,32.057z
		 M32.83,29.974v2.548l-2.548-1.274L32.83,29.974z M33.83,25.807l2.548,1.274l-2.548,1.274V25.807z M34.448,24.998l2.549-1.274
		v2.549L34.448,24.998z M34.448,20.831l2.549-1.274v2.548L34.448,20.831z M33.885,19.995l-0.041-2.515l2.535,1.267L33.885,19.995z
		 M29.664,17.939V15.39l2.548,1.274L29.664,17.939z M25.497,15.854v-2.547l2.547,1.274L25.497,15.854z M24.497,15.855l-2.548-1.274
		l2.548-1.274V15.855z M20.33,17.938l-2.548-1.274l2.548-1.274V17.938z M16.164,20.022l-2.549-1.275l2.549-1.274V20.022z
		 M15.545,20.831l-2.548,1.274v-2.548L15.545,20.831z M12.997,27.891l2.549,1.274l-2.549,1.274V27.891z M16.164,29.974v2.549
		l-2.549-1.274L16.164,29.974z M20.33,32.057v2.548l-2.548-1.274L20.33,32.057z M24.497,34.141v2.548l-2.548-1.274L24.497,34.141z
		 M25.497,34.14l2.548,1.274l-2.548,1.274V34.14z M29.664,32.057l2.548,1.274l-2.548,1.274V32.057z M33.83,29.982l2.546,1.267
		l-2.546,1.273V29.982z M34.441,29.168l2.556-1.278v2.55L34.441,29.168z"/>
</g>
<g id="Layer_1">
</g>
</svg>
