<?xml version="1.0" encoding="iso-8859-1"?>
<!-- Generator: Adobe Illustrator 21.1.0, SVG Export Plug-In . SVG Version: 6.00 Build 0)  -->
<svg version="1.1" xmlns="http://www.w3.org/2000/svg" xmlns:xlink="http://www.w3.org/1999/xlink" x="0px" y="0px"
	 viewBox="0 0 49.996 49.996" style="enable-background:new 0 0 49.996 49.996;" xml:space="preserve">
<g id="SnapToGrid">
	<path style="fill:#353942;" d="M2.5,0C1.119,0,0,1.119,0,2.5v44.996c0,1.381,1.119,2.5,2.5,2.5h44.996c1.381,0,2.5-1.119,2.5-2.5
		V2.5c0-1.381-1.119-2.5-2.5-2.5H2.5z"/>
	<path style="opacity:0.6;fill:#5B616B;" d="M37.497,11.498h-25c-0.552,0-1,0.448-1,1v25c0,0.552,0.448,1,1,1h25
		c0.552,0,1-0.448,1-1v-25C38.497,11.946,38.049,11.498,37.497,11.498z M36.497,28.164h-6.333v-6.333h6.333V28.164z M36.497,19.831
		h-6.333v-6.333h6.333V19.831z M28.163,19.831H21.83v-6.333h6.333V19.831z M19.83,13.498v6.333h-6.333v-6.333H19.83z M13.497,30.164
		h3.104c0.552,0,1-0.448,1-1s-0.448-1-1-1h-3.104v-6.333h6.333v3.104c0,0.552,0.448,1,1,1s1-0.448,1-1v-3.104h6.333v6.333h-3.104
		c-0.552,0-1,0.448-1,1s0.448,1,1,1h3.104v6.333H21.83v-3.104c0-0.552-0.448-1-1-1s-1,0.448-1,1v3.104h-6.333V30.164z
		 M30.163,36.498v-6.333h6.333v6.333H30.163z"/>
	<path style="fill:#5B616B;" d="M16.664,28.102c-2.883,0-5.229,2.346-5.229,5.229c0,2.884,2.346,5.229,5.229,5.229
		s5.229-2.346,5.229-5.229C21.893,30.448,19.547,28.102,16.664,28.102z M16.664,36.561c-1.781,0-3.229-1.449-3.229-3.229
		c0-1.78,1.448-3.229,3.229-3.229s3.229,1.449,3.229,3.229C19.893,35.112,18.444,36.561,16.664,36.561z M16.664,31.831
		c-0.828,0-1.5,0.672-1.5,1.5s0.672,1.5,1.5,1.5c0.828,0,1.5-0.672,1.5-1.5S17.492,31.831,16.664,31.831z"/>
</g>
<g id="Layer_1">
</g>
</svg>
