<?xml version="1.0" encoding="iso-8859-1"?>
<!-- Generator: Adobe Illustrator 21.1.0, SVG Export Plug-In . SVG Version: 6.00 Build 0)  -->
<svg version="1.1" xmlns="http://www.w3.org/2000/svg" xmlns:xlink="http://www.w3.org/1999/xlink" x="0px" y="0px"
	 viewBox="0 0 49.996 49.996" style="enable-background:new 0 0 49.996 49.996;" xml:space="preserve">
<g id="SortSeries">
	<path style="fill:#353942;" d="M2.5,0C1.119,0,0,1.119,0,2.5v44.996c0,1.381,1.119,2.5,2.5,2.5h44.996c1.381,0,2.5-1.119,2.5-2.5
		V2.5c0-1.381-1.119-2.5-2.5-2.5H2.5z"/>
	<g>
		<path style="fill:#5B616B;" d="M37.497,29.435c-0.552,0-1,0.448-1,1v4.648L25.1,23.687c-0.39-0.391-1.024-0.391-1.414,0
			c-0.391,0.39-0.391,1.024,0,1.414l11.396,11.396h-4.648c-0.552,0-1,0.448-1,1s0.448,1,1,1h7.063c0.066,0,0.131-0.007,0.196-0.02
			c0.03-0.006,0.058-0.017,0.087-0.026c0.033-0.01,0.067-0.018,0.1-0.031c0.034-0.014,0.066-0.034,0.098-0.052
			c0.025-0.014,0.05-0.024,0.074-0.04c0.11-0.073,0.204-0.168,0.277-0.277c0.016-0.024,0.027-0.049,0.04-0.074
			c0.018-0.032,0.037-0.064,0.052-0.098c0.013-0.033,0.021-0.066,0.031-0.1c0.009-0.029,0.02-0.057,0.026-0.087
			c0.013-0.065,0.02-0.13,0.02-0.196v-7.062C38.497,29.883,38.049,29.435,37.497,29.435z M37.497,18.498h-18c-0.552,0-1,0.448-1,1
			v18c0,0.552,0.448,1,1,1h4.014c0.552,0,1-0.448,1-1s-0.448-1-1-1h-3.014v-16h16v3.014c0,0.552,0.448,1,1,1s1-0.448,1-1v-4.014
			C38.497,18.946,38.049,18.498,37.497,18.498z"/>
		<g style="opacity:0.8;">
			<g>
				<path style="fill:#5B616B;" d="M18.638,35.685h-2.609c-0.552,0-1-0.448-1-1V16.029c0-0.552,0.448-1,1-1h18.656
					c0.552,0,1,0.448,1,1v2.669c0,0.552-0.448,1-1,1s-1-0.448-1-1v-1.669H17.028v16.656h1.609c0.552,0,1,0.448,1,1
					S19.19,35.685,18.638,35.685z"/>
			</g>
		</g>
		<g style="opacity:0.5;">
			<g>
				<path style="fill:#5B616B;" d="M12.497,32.935c-0.552,0-1-0.448-1-1V12.498c0-0.552,0.448-1,1-1h19.438c0.552,0,1,0.448,1,1
					s-0.448,1-1,1H13.497v18.438C13.497,32.488,13.049,32.935,12.497,32.935z"/>
			</g>
		</g>
	</g>
</g>
<g id="Layer_1">
</g>
</svg>
