<?xml version="1.0" encoding="iso-8859-1"?>
<!-- Generator: Adobe Illustrator 21.1.0, SVG Export Plug-In . SVG Version: 6.00 Build 0)  -->
<svg version="1.1" xmlns="http://www.w3.org/2000/svg" xmlns:xlink="http://www.w3.org/1999/xlink" x="0px" y="0px"
	 viewBox="0 0 49.996 49.996" style="enable-background:new 0 0 49.996 49.996;" xml:space="preserve">
<g id="SpyglassWindowLevel">
	<path style="fill:#353942;" d="M2.5,0C1.119,0,0,1.119,0,2.5v44.996c0,1.381,1.119,2.5,2.5,2.5h44.996c1.381,0,2.5-1.119,2.5-2.5
		V2.5c0-1.381-1.119-2.5-2.5-2.5H2.5z"/>
	<path style="fill:#5B616B;" d="M38.204,36.791l-5.123-5.123c1.816-2.137,2.916-4.902,2.916-7.92c0-6.755-5.495-12.25-12.25-12.25
		c-6.755,0-12.25,5.495-12.25,12.25c0,6.755,5.495,12.25,12.25,12.25c3.018,0,5.783-1.099,7.92-2.916l5.123,5.123
		c0.195,0.195,0.451,0.293,0.707,0.293s0.512-0.098,0.707-0.293C38.595,37.814,38.595,37.182,38.204,36.791z M23.747,33.998
		c-5.652,0-10.25-4.598-10.25-10.25s4.598-10.25,10.25-10.25s10.25,4.598,10.25,10.25S29.399,33.998,23.747,33.998z M31.051,22.748
		h-1.913c-0.142-0.769-0.444-1.483-0.872-2.104l1.353-1.353c0.391-0.391,0.391-1.024,0-1.414c-0.391-0.39-1.023-0.39-1.414,0
		l-1.353,1.353c-0.621-0.428-1.335-0.729-2.105-0.872v-1.913c0-0.552-0.448-1-1-1s-1,0.448-1,1v1.913
		c-0.769,0.142-1.483,0.444-2.104,0.872l-1.353-1.353c-0.39-0.391-1.024-0.391-1.414,0c-0.391,0.39-0.391,1.024,0,1.414l1.353,1.353
		c-0.428,0.621-0.729,1.335-0.872,2.104h-1.913c-0.552,0-1,0.448-1,1s0.448,1,1,1h1.913c0.142,0.77,0.444,1.483,0.872,2.105
		l-1.353,1.353c-0.391,0.39-0.391,1.023,0,1.414c0.195,0.195,0.451,0.293,0.707,0.293s0.512-0.098,0.707-0.293l1.353-1.353
		c0.621,0.428,1.335,0.729,2.104,0.872v1.913c0,0.552,0.448,1,1,1s1-0.448,1-1v-1.913c0.77-0.142,1.483-0.444,2.105-0.872
		l1.353,1.353c0.195,0.195,0.451,0.293,0.707,0.293s0.512-0.098,0.707-0.293c0.391-0.391,0.391-1.023,0-1.414l-1.353-1.353
		c0.428-0.621,0.729-1.335,0.872-2.105h1.913c0.552,0,1-0.448,1-1S31.603,22.748,31.051,22.748z M20.409,22.748
		c0.431-1.436,1.764-2.486,3.338-2.486c1.575,0,2.907,1.05,3.338,2.486H20.409z"/>
</g>
<g id="Layer_1">
</g>
</svg>
