<?xml version="1.0" encoding="iso-8859-1"?>
<!-- Generator: Adobe Illustrator 21.1.0, SVG Export Plug-In . SVG Version: 6.00 Build 0)  -->
<svg version="1.1" xmlns="http://www.w3.org/2000/svg" xmlns:xlink="http://www.w3.org/1999/xlink" x="0px" y="0px"
	 viewBox="0 0 49.996 49.996" style="enable-background:new 0 0 49.996 49.996;" xml:space="preserve">
<g id="Spyglass">
	<path style="fill:#353942;" d="M2.5,0C1.119,0,0,1.119,0,2.5v44.996c0,1.381,1.119,2.5,2.5,2.5h44.996c1.381,0,2.5-1.119,2.5-2.5
		V2.5c0-1.381-1.119-2.5-2.5-2.5H2.5z"/>
	<path style="fill:#5B616B;" d="M38.204,36.791l-5.123-5.123c1.816-2.137,2.916-4.902,2.916-7.92c0-6.755-5.495-12.25-12.25-12.25
		c-6.755,0-12.25,5.495-12.25,12.25c0,6.755,5.495,12.25,12.25,12.25c3.018,0,5.783-1.099,7.92-2.916l5.123,5.123
		c0.195,0.195,0.451,0.293,0.707,0.293s0.512-0.098,0.707-0.293C38.595,37.814,38.595,37.182,38.204,36.791z M23.747,33.998
		c-5.652,0-10.25-4.598-10.25-10.25s4.598-10.25,10.25-10.25s10.25,4.598,10.25,10.25S29.399,33.998,23.747,33.998z M31.911,23.353
		c-0.089-0.206-2.242-5.056-8.164-5.056s-8.075,4.85-8.164,5.056c-0.098,0.228-0.108,0.484-0.028,0.719
		c0.072,0.209,1.827,5.128,8.191,5.128c6.364,0,8.12-4.918,8.191-5.127C32.018,23.837,32.009,23.581,31.911,23.353z M23.747,27.199
		c-4.039,0-5.664-2.465-6.139-3.414c0.551-0.954,2.37-3.489,6.139-3.489c3.782,0,5.587,2.521,6.139,3.486
		C29.41,24.725,27.775,27.199,23.747,27.199z M23.747,20.842c-1.603,0-2.906,1.304-2.906,2.906s1.304,2.906,2.906,2.906
		s2.906-1.304,2.906-2.906S25.349,20.842,23.747,20.842z M23.747,24.654c-0.5,0-0.906-0.406-0.906-0.906s0.406-0.906,0.906-0.906
		s0.906,0.406,0.906,0.906S24.247,24.654,23.747,24.654z"/>
</g>
<g id="Layer_1">
</g>
</svg>
