<?xml version="1.0" encoding="iso-8859-1"?>
<!-- Generator: Adobe Illustrator 21.1.0, SVG Export Plug-In . SVG Version: 6.00 Build 0)  -->
<svg version="1.1" xmlns="http://www.w3.org/2000/svg" xmlns:xlink="http://www.w3.org/1999/xlink" x="0px" y="0px"
	 viewBox="0 0 49.996 49.996" style="enable-background:new 0 0 49.996 49.996;" xml:space="preserve">
<g id="SpyglassCLAHE">
	<path style="fill:#353942;" d="M2.5,0C1.119,0,0,1.119,0,2.5v44.996c0,1.381,1.119,2.5,2.5,2.5h44.996c1.381,0,2.5-1.119,2.5-2.5
		V2.5c0-1.381-1.119-2.5-2.5-2.5H2.5z"/>
	<path style="fill:#5B616B;" d="M38.204,36.791l-5.123-5.123c1.816-2.137,2.916-4.902,2.916-7.92c0-6.755-5.495-12.25-12.25-12.25
		c-6.755,0-12.25,5.495-12.25,12.25c0,6.755,5.495,12.25,12.25,12.25c3.018,0,5.783-1.099,7.92-2.916l5.123,5.123
		c0.195,0.195,0.451,0.293,0.707,0.293s0.512-0.098,0.707-0.293C38.595,37.814,38.595,37.182,38.204,36.791z M23.747,33.998
		c-5.652,0-10.25-4.598-10.25-10.25s4.598-10.25,10.25-10.25s10.25,4.598,10.25,10.25S29.399,33.998,23.747,33.998z M20.11,24.21
		c-0.465,0-0.843,0.378-0.843,0.843v1.192c0,0.187-0.043,0.213-0.202,0.213h-0.797c-0.179,0-0.213-0.034-0.213-0.213v-4.995
		c0-0.179,0.034-0.213,0.213-0.213h0.774c0.159,0,0.202,0.027,0.202,0.213v0.955c0,0.465,0.378,0.843,0.844,0.843
		c0.465,0,0.843-0.378,0.843-0.843v-1.023c0-0.942-0.766-1.708-1.708-1.708h-1.159c-0.948,0-1.719,0.771-1.719,1.719v5.107
		c0,0.948,0.771,1.719,1.719,1.719h1.17c0.948,0,1.719-0.771,1.719-1.719v-1.248C20.953,24.588,20.575,24.21,20.11,24.21z
		 M25.08,26.357h-1.106v-6.016c0-0.44-0.358-0.798-0.798-0.798h-0.113c-0.44,0-0.798,0.358-0.798,0.798v6.814
		c0,0.44,0.358,0.798,0.798,0.798h2.017c0.44,0,0.798-0.358,0.798-0.798C25.878,26.715,25.52,26.357,25.08,26.357z M30.294,19.543
		c-0.471,0-0.854,0.383-0.854,0.854v2.479h-1.234v-2.479c0-0.471-0.383-0.854-0.854-0.854s-0.854,0.383-0.854,0.854v6.701
		c0,0.471,0.383,0.854,0.854,0.854s0.854-0.383,0.854-0.854v-2.626h1.234v2.626c0,0.471,0.383,0.854,0.854,0.854
		s0.854-0.383,0.854-0.854v-6.701C31.148,19.926,30.765,19.543,30.294,19.543z"/>
</g>
<g id="Layer_1">
</g>
</svg>
