<?xml version="1.0" encoding="iso-8859-1"?>
<!-- Generator: Adobe Illustrator 21.1.0, SVG Export Plug-In . SVG Version: 6.00 Build 0)  -->
<svg version="1.1" xmlns="http://www.w3.org/2000/svg" xmlns:xlink="http://www.w3.org/1999/xlink" x="0px" y="0px"
	 viewBox="0 0 49.996 49.996" style="enable-background:new 0 0 49.996 49.996;" xml:space="preserve">
<g id="Stack">
	<path style="fill:#353942;" d="M2.5,0C1.119,0,0,1.119,0,2.5v44.996c0,1.381,1.119,2.5,2.5,2.5h44.996c1.381,0,2.5-1.119,2.5-2.5
		V2.5c0-1.381-1.119-2.5-2.5-2.5H2.5z"/>
	<path style="fill:#5B616B;" d="M11.993,20.603l12.46,7.241c0.155,0.09,0.329,0.135,0.502,0.135c0.173,0,0.345-0.044,0.5-0.134
		l12.542-7.241c0.309-0.178,0.5-0.508,0.5-0.865S38.309,19.054,38,18.875l-12.46-7.241c-0.31-0.18-0.692-0.181-1.003-0.001
		l-12.542,7.241c-0.309,0.178-0.5,0.508-0.5,0.865S11.685,20.424,11.993,20.603z M25.036,13.654l10.467,6.083l-10.545,6.088
		l-10.467-6.082L25.036,13.654z M38,24.133l-2.009-1.167c-0.478-0.278-1.09-0.115-1.367,0.362c-0.277,0.478-0.115,1.09,0.362,1.367
		l0.516,0.3l-10.545,6.088l-10.467-6.083l0.525-0.303c0.478-0.276,0.642-0.888,0.366-1.366c-0.276-0.479-0.888-0.643-1.366-0.366
		l-2.021,1.167c-0.309,0.178-0.5,0.508-0.5,0.865s0.189,0.687,0.498,0.866l12.46,7.241c0.155,0.09,0.329,0.135,0.502,0.135
		c0.173,0,0.345-0.044,0.5-0.134l12.542-7.241c0.309-0.179,0.5-0.508,0.5-0.865S38.309,24.313,38,24.133z M38,29.392l-2.009-1.167
		c-0.478-0.277-1.09-0.115-1.367,0.362c-0.277,0.478-0.115,1.09,0.362,1.367l0.516,0.3l-10.545,6.088L14.491,30.26l0.525-0.303
		c0.478-0.276,0.642-0.888,0.366-1.366c-0.276-0.478-0.888-0.642-1.366-0.366l-2.021,1.167c-0.309,0.179-0.5,0.508-0.5,0.865
		s0.189,0.687,0.498,0.866l12.46,7.241c0.155,0.09,0.329,0.135,0.502,0.135c0.173,0,0.345-0.044,0.5-0.134l12.542-7.241
		c0.309-0.179,0.5-0.508,0.5-0.865C38.498,29.901,38.309,29.571,38,29.392z"/>
</g>
<g id="Layer_1">
</g>
</svg>
