<?xml version="1.0" encoding="iso-8859-1"?>
<!-- Generator: Adobe Illustrator 21.1.0, SVG Export Plug-In . SVG Version: 6.00 Build 0)  -->
<svg version="1.1" xmlns="http://www.w3.org/2000/svg" xmlns:xlink="http://www.w3.org/1999/xlink" x="0px" y="0px"
	 viewBox="0 0 49.996 49.996" style="enable-background:new 0 0 49.996 49.996;" xml:space="preserve">
<g id="StretchHistogram">
	<path style="fill:#353942;" d="M2.5,0C1.119,0,0,1.119,0,2.5v44.996c0,1.381,1.119,2.5,2.5,2.5h44.996c1.381,0,2.5-1.119,2.5-2.5
		V2.5c0-1.381-1.119-2.5-2.5-2.5H2.5z"/>
	<path style="fill:#5B616B;" d="M12.455,30.259c0.014,0,0.028,0.001,0.042,0.001c0.533,0,0.976-0.421,0.998-0.958
		c0.002-0.051,0.252-5.111,3.627-5.111c1.67,0,2.275,0.935,3.124,2.461c0.722,1.298,1.62,2.914,3.732,2.914
		c3.623,0,4.448-4.479,5.247-8.81c0.657-3.568,1.337-7.257,3.354-7.257c3.917,0,3.917,10.513,3.917,15.003c0,0.552,0.448,1,1,1
		s1-0.448,1-1c0-5.942,0-17.003-5.917-17.003c-3.683,0-4.516,4.522-5.321,8.895c-0.65,3.526-1.322,7.173-3.28,7.173
		c-0.851,0-1.239-0.545-1.984-1.885c-0.819-1.473-1.94-3.49-4.872-3.49c-4.218,0-5.524,4.597-5.625,7.028
		C11.475,29.77,11.903,30.236,12.455,30.259z M35.6,31.582c-0.391-0.391-1.023-0.391-1.414,0c-0.391,0.39-0.391,1.023,0,1.414
		l0.897,0.897H14.911l0.897-0.897c0.391-0.391,0.391-1.023,0-1.414c-0.391-0.391-1.024-0.391-1.414,0l-2.604,2.604
		c-0.046,0.046-0.088,0.097-0.124,0.151c-0.011,0.017-0.019,0.035-0.029,0.053c-0.023,0.039-0.046,0.077-0.064,0.119
		c-0.009,0.023-0.014,0.047-0.022,0.071c-0.013,0.038-0.027,0.076-0.035,0.116c-0.013,0.065-0.02,0.131-0.02,0.198
		c0,0.067,0.007,0.133,0.02,0.198c0.009,0.044,0.024,0.086,0.039,0.127c0.007,0.02,0.01,0.04,0.018,0.059
		c0.019,0.046,0.044,0.088,0.069,0.13c0.008,0.014,0.014,0.029,0.023,0.042c0.037,0.055,0.078,0.105,0.124,0.152l2.604,2.603
		c0.195,0.195,0.451,0.293,0.707,0.293s0.512-0.098,0.707-0.293c0.391-0.391,0.391-1.023,0-1.414l-0.897-0.897h20.172l-0.897,0.897
		c-0.391,0.391-0.391,1.023,0,1.414c0.195,0.195,0.451,0.293,0.707,0.293s0.512-0.098,0.707-0.293l2.604-2.604
		c0.391-0.391,0.391-1.023,0-1.414L35.6,31.582z"/>
</g>
<g id="Layer_1">
</g>
</svg>
