<?xml version="1.0" encoding="iso-8859-1"?>
<!-- Generator: Adobe Illustrator 21.1.0, SVG Export Plug-In . SVG Version: 6.00 Build 0)  -->
<svg version="1.1" xmlns="http://www.w3.org/2000/svg" xmlns:xlink="http://www.w3.org/1999/xlink" x="0px" y="0px"
	 viewBox="0 0 49.996 49.996" style="enable-background:new 0 0 49.996 49.996;" xml:space="preserve">
<g id="StudyTimeLine">
	<path style="fill:#353942;" d="M2.5,0C1.119,0,0,1.119,0,2.5v44.996c0,1.381,1.119,2.5,2.5,2.5h44.996c1.381,0,2.5-1.119,2.5-2.5
		V2.5c0-1.381-1.119-2.5-2.5-2.5H2.5z"/>
	<path style="fill:#5B616B;" d="M24.997,25.998h12.5c0.552,0,1-0.448,1-1v-6.5c0-0.552-0.448-1-1-1h-12.5c-0.552,0-1,0.448-1,1v2.25
		h-10.5v-8.25c0-0.552-0.448-1-1-1s-1,0.448-1,1v21.75c0,0.552,0.448,1,1,1h11.5v2.25c0,0.552,0.448,1,1,1h12.5c0.552,0,1-0.448,1-1
		v-6.5c0-0.552-0.448-1-1-1h-12.5c-0.552,0-1,0.448-1,1v2.25h-10.5v-10.5h10.5v2.25C23.997,25.55,24.445,25.998,24.997,25.998z
		 M25.997,31.998h10.5v4.5h-10.5V31.998z M25.997,19.498h10.5v4.5h-10.5V19.498z"/>
</g>
<g id="Layer_1">
</g>
</svg>
