<?xml version="1.0" encoding="iso-8859-1"?>
<!-- Generator: Adobe Illustrator 21.1.0, SVG Export Plug-In . SVG Version: 6.00 Build 0)  -->
<svg version="1.1" xmlns="http://www.w3.org/2000/svg" xmlns:xlink="http://www.w3.org/1999/xlink" x="0px" y="0px"
	 viewBox="0 0 49.996 49.996" style="enable-background:new 0 0 49.996 49.996;" xml:space="preserve">
<g id="Synchronization">
	<path style="fill:#353942;" d="M2.5,0C1.119,0,0,1.119,0,2.5v44.996c0,1.381,1.119,2.5,2.5,2.5h44.996c1.381,0,2.5-1.119,2.5-2.5
		V2.5c0-1.381-1.119-2.5-2.5-2.5H2.5z"/>
	<g>
		<path style="fill:#5B616B;" d="M30.647,20.994c0.26,0,0.521-0.101,0.716-0.302c0.385-0.396,0.377-1.029-0.019-1.414
			c-1.569-1.529-3.637-2.371-5.822-2.371c-1.61,0-3.154,0.46-4.485,1.312l0.042-0.521c0.044-0.551-0.366-1.033-0.917-1.077
			c-0.549-0.043-1.033,0.366-1.077,0.917l-0.235,2.926c-0.044,0.551,0.366,1.033,0.917,1.077l2.926,0.235
			c0.027,0.002,0.054,0.003,0.081,0.003c0.516,0,0.954-0.397,0.996-0.92c0.044-0.551-0.366-1.033-0.917-1.077l-0.467-0.038
			c0.948-0.542,2.021-0.838,3.136-0.838c1.661,0,3.232,0.64,4.426,1.803C30.143,20.9,30.395,20.994,30.647,20.994z M23.491,29.793
			c-0.237-0.499-0.834-0.711-1.332-0.474c-0.499,0.237-0.711,0.833-0.474,1.333l0.201,0.424c-0.944-0.55-1.736-1.331-2.294-2.298
			c-0.83-1.438-1.062-3.12-0.652-4.735c0.136-0.535-0.188-1.079-0.723-1.215c-0.535-0.136-1.079,0.188-1.215,0.723
			c-0.539,2.123-0.234,4.335,0.858,6.227c0.805,1.394,1.976,2.501,3.379,3.228l-0.472,0.224c-0.499,0.237-0.711,0.833-0.474,1.333
			c0.171,0.36,0.53,0.571,0.904,0.571c0.144,0,0.29-0.031,0.428-0.097l2.651-1.259c0.499-0.237,0.711-0.833,0.474-1.333
			L23.491,29.793z M34.834,23.933l-2.416-1.666c-0.454-0.314-1.078-0.199-1.391,0.255l-1.667,2.416
			c-0.313,0.455-0.199,1.077,0.255,1.391c0.173,0.12,0.371,0.177,0.567,0.177c0.318,0,0.63-0.151,0.824-0.433l0.266-0.386
			c-0.004,1.092-0.285,2.169-0.843,3.135c-0.83,1.438-2.171,2.479-3.774,2.932c-0.532,0.15-0.841,0.703-0.691,1.234
			c0.125,0.441,0.525,0.729,0.962,0.729c0.09,0,0.181-0.013,0.272-0.038c2.108-0.595,3.871-1.965,4.964-3.857
			c0.805-1.394,1.178-2.962,1.106-4.54l0.43,0.297c0.455,0.314,1.078,0.199,1.391-0.256C35.403,24.869,35.289,24.247,34.834,23.933z
			"/>
		<path style="opacity:0.6;fill:#5B616B;" d="M25.687,38.566c-0.531,0-0.973-0.417-0.998-0.954c-0.026-0.552,0.401-1.02,0.953-1.045
			c0.306-0.014,0.614-0.041,0.917-0.079c0.546-0.067,1.048,0.318,1.118,0.867c0.069,0.548-0.319,1.048-0.867,1.118
			c-0.354,0.045-0.716,0.076-1.075,0.093C25.718,38.566,25.702,38.566,25.687,38.566z M20.777,37.82c-0.114,0-0.23-0.02-0.344-0.062
			c-0.335-0.123-0.67-0.261-0.998-0.412c-0.502-0.23-0.722-0.824-0.491-1.326c0.23-0.502,0.823-0.722,1.326-0.491
			c0.28,0.128,0.566,0.247,0.852,0.351c0.519,0.19,0.785,0.765,0.595,1.283C21.568,37.568,21.185,37.82,20.777,37.82z
			 M31.388,36.889c-0.344,0-0.68-0.178-0.865-0.497c-0.278-0.477-0.116-1.089,0.361-1.367c0.266-0.155,0.527-0.321,0.777-0.494
			c0.453-0.316,1.077-0.202,1.391,0.252c0.315,0.454,0.202,1.077-0.252,1.391c-0.292,0.203-0.599,0.397-0.91,0.579
			C31.732,36.846,31.559,36.889,31.388,36.889z M15.843,34.507c-0.271,0-0.541-0.109-0.739-0.326
			c-0.242-0.265-0.477-0.542-0.696-0.825c-0.339-0.436-0.26-1.064,0.176-1.403c0.436-0.338,1.064-0.26,1.403,0.176
			c0.187,0.24,0.386,0.477,0.593,0.704c0.373,0.408,0.344,1.04-0.064,1.413C16.325,34.421,16.084,34.507,15.843,34.507z
			 M35.669,32.772c-0.183,0-0.367-0.05-0.533-0.155c-0.467-0.295-0.606-0.913-0.311-1.379c0.166-0.262,0.321-0.53,0.461-0.797
			c0.257-0.489,0.862-0.675,1.351-0.418c0.489,0.258,0.676,0.863,0.418,1.351c-0.166,0.313-0.347,0.627-0.541,0.933
			C36.325,32.607,36,32.772,35.669,32.772z M12.996,29.294c-0.443,0-0.848-0.297-0.966-0.746c-0.091-0.345-0.169-0.701-0.232-1.056
			c-0.096-0.544,0.266-1.063,0.81-1.159c0.544-0.098,1.063,0.266,1.159,0.81c0.053,0.302,0.12,0.604,0.197,0.896
			c0.141,0.534-0.179,1.081-0.713,1.222C13.166,29.283,13.08,29.294,12.996,29.294z M37.553,27.138
			c-0.027,0-0.054-0.001-0.081-0.003c-0.55-0.044-0.961-0.526-0.917-1.077c0.024-0.301,0.036-0.61,0.036-0.918
			c0-0.117-0.002-0.234-0.005-0.35c-0.017-0.552,0.417-1.013,0.969-1.03c0.538-0.013,1.013,0.417,1.03,0.969
			c0.004,0.137,0.006,0.274,0.006,0.412c0,0.361-0.014,0.724-0.043,1.078C38.508,26.741,38.07,27.138,37.553,27.138z M12.908,23.354
			c-0.074,0-0.149-0.008-0.225-0.026c-0.538-0.124-0.874-0.66-0.751-1.198c0.081-0.351,0.177-0.702,0.285-1.043
			c0.167-0.526,0.73-0.818,1.256-0.65c0.526,0.167,0.817,0.73,0.65,1.256c-0.092,0.289-0.173,0.587-0.242,0.885
			C13.775,23.04,13.363,23.354,12.908,23.354z M36.446,20.928c-0.376,0-0.737-0.214-0.907-0.578c-0.13-0.279-0.271-0.554-0.42-0.818
			c-0.272-0.481-0.103-1.091,0.377-1.363c0.481-0.271,1.091-0.103,1.363,0.378c0.175,0.309,0.341,0.632,0.494,0.959
			c0.233,0.5,0.016,1.095-0.484,1.329C36.731,20.898,36.588,20.928,36.446,20.928z M15.591,18.055c-0.231,0-0.463-0.079-0.652-0.242
			c-0.419-0.36-0.466-0.991-0.106-1.41c0.233-0.271,0.48-0.536,0.736-0.789c0.392-0.389,1.025-0.387,1.414,0.006
			c0.389,0.392,0.386,1.025-0.006,1.414c-0.218,0.216-0.429,0.442-0.627,0.674C16.152,17.937,15.872,18.055,15.591,18.055z
			 M32.73,16.292c-0.213,0-0.428-0.068-0.61-0.208c-0.239-0.184-0.491-0.363-0.75-0.531c-0.463-0.301-0.595-0.92-0.293-1.383
			c0.301-0.463,0.922-0.594,1.383-0.293c0.304,0.198,0.601,0.408,0.882,0.625c0.437,0.337,0.518,0.965,0.181,1.403
			C33.325,16.158,33.029,16.292,32.73,16.292z M20.424,14.597c-0.396,0-0.772-0.238-0.928-0.628c-0.206-0.512,0.043-1.095,0.556-1.3
			c0.331-0.133,0.674-0.254,1.017-0.361c0.529-0.165,1.088,0.13,1.252,0.658c0.164,0.527-0.131,1.088-0.658,1.252
			c-0.293,0.091-0.584,0.195-0.867,0.308C20.674,14.573,20.548,14.597,20.424,14.597z M27.296,13.892
			c-0.058,0-0.116-0.005-0.175-0.015c-0.302-0.053-0.608-0.095-0.912-0.124c-0.55-0.052-0.953-0.541-0.9-1.091
			c0.052-0.55,0.539-0.954,1.091-0.9c0.356,0.034,0.715,0.083,1.069,0.145c0.544,0.096,0.907,0.615,0.811,1.159
			C28.194,13.551,27.772,13.892,27.296,13.892z"/>
	</g>
</g>
<g id="Layer_1">
</g>
</svg>
