<?xml version="1.0" encoding="iso-8859-1"?>
<!-- Generator: Adobe Illustrator 21.1.0, SVG Export Plug-In . SVG Version: 6.00 Build 0)  -->
<svg version="1.1" xmlns="http://www.w3.org/2000/svg" xmlns:xlink="http://www.w3.org/1999/xlink" x="0px" y="0px"
	 viewBox="0 0 49.996 49.996" style="enable-background:new 0 0 49.996 49.996;" xml:space="preserve">
<g id="TextPointer">
	<path style="fill:#353942;" d="M2.5,0C1.119,0,0,1.119,0,2.5v44.996c0,1.381,1.119,2.5,2.5,2.5h44.996c1.381,0,2.5-1.119,2.5-2.5
		V2.5c0-1.381-1.119-2.5-2.5-2.5H2.5z"/>
	<path style="fill:#5B616B;" d="M23.31,27.117h-2.003V13.498h5.809v1.525c0,0.552,0.448,1,1,1s1-0.448,1-1v-2.525
		c0-0.552-0.448-1-1-1H12.497c-0.552,0-1,0.448-1,1v2.525c0,0.552,0.448,1,1,1s1-0.448,1-1v-1.525h5.809v13.619h-2.004
		c-0.552,0-1,0.448-1,1s0.448,1,1,1h6.007c0.552,0,1-0.448,1-1S23.862,27.117,23.31,27.117z M38.204,36.791l-7.674-7.674h3.648
		c0.552,0,1-0.448,1-1s-0.448-1-1-1h-6.062c-0.066,0-0.131,0.007-0.196,0.02c-0.03,0.006-0.058,0.017-0.087,0.026
		c-0.033,0.01-0.067,0.018-0.1,0.031c-0.034,0.014-0.066,0.034-0.098,0.052c-0.025,0.014-0.05,0.024-0.074,0.04
		c-0.11,0.073-0.204,0.168-0.277,0.277c-0.016,0.024-0.027,0.049-0.04,0.074c-0.018,0.032-0.037,0.064-0.052,0.098
		c-0.013,0.033-0.021,0.066-0.031,0.1c-0.009,0.029-0.02,0.057-0.026,0.087c-0.013,0.065-0.02,0.13-0.02,0.196v6.062
		c0,0.552,0.448,1,1,1s1-0.448,1-1v-3.648l7.674,7.674c0.195,0.195,0.451,0.293,0.707,0.293s0.512-0.098,0.707-0.293
		C38.595,37.814,38.595,37.182,38.204,36.791z"/>
</g>
<g id="Layer_1">
</g>
</svg>
