<?xml version="1.0" encoding="iso-8859-1"?>
<!-- Generator: Adobe Illustrator 21.1.0, SVG Export Plug-In . SVG Version: 6.00 Build 0)  -->
<svg version="1.1" xmlns="http://www.w3.org/2000/svg" xmlns:xlink="http://www.w3.org/1999/xlink" x="0px" y="0px"
	 viewBox="0 0 49.996 49.996" style="enable-background:new 0 0 49.996 49.996;" xml:space="preserve">
<g id="Text">
	<path style="fill:#353942;" d="M2.5,0C1.119,0,0,1.119,0,2.5v44.996c0,1.381,1.119,2.5,2.5,2.5h44.996c1.381,0,2.5-1.119,2.5-2.5
		V2.5c0-1.381-1.119-2.5-2.5-2.5H2.5z"/>
	<path style="fill:#5B616B;" d="M37.497,11.498h-25c-0.552,0-1,0.448-1,1v5.43c0,0.552,0.448,1,1,1s1-0.448,1-1v-4.43h10.5v23
		h-3.808c-0.552,0-1,0.448-1,1s0.448,1,1,1h9.615c0.552,0,1-0.448,1-1s-0.448-1-1-1h-3.808v-23h10.5v4.43c0,0.552,0.448,1,1,1
		s1-0.448,1-1v-5.43C38.497,11.946,38.049,11.498,37.497,11.498z"/>
</g>
<g id="Layer_1">
</g>
</svg>
