<?xml version="1.0" encoding="iso-8859-1"?>
<!-- Generator: Adobe Illustrator 21.1.0, SVG Export Plug-In . SVG Version: 6.00 Build 0)  -->
<svg version="1.1" id="Layer_1" xmlns="http://www.w3.org/2000/svg" xmlns:xlink="http://www.w3.org/1999/xlink" x="0px" y="0px"
	 viewBox="0 0 50 50" style="enable-background:new 0 0 50 50;" xml:space="preserve">
<path style="fill:#353942;" d="M2.503,0.002c-1.381,0-2.5,1.119-2.5,2.5v44.996c0,1.381,1.119,2.5,2.5,2.5h44.996
	c1.381,0,2.5-1.119,2.5-2.5V2.502c0-1.381-1.119-2.5-2.5-2.5C47.499,0.002,2.503,0.002,2.503,0.002z"/>
<path style="fill:#5B616B;" d="M28.667,18.5c-0.552,0-1,0.448-1,1v11c0,0.552,0.448,1,1,1s1-0.448,1-1v-11
	C29.667,18.948,29.22,18.5,28.667,18.5z M21.333,18.5c-0.552,0-1,0.448-1,1v11c0,0.552,0.448,1,1,1s1-0.448,1-1v-11
	C22.333,18.948,21.885,18.5,21.333,18.5z M25,11.5c-7.444,0-13.5,6.056-13.5,13.5S17.556,38.5,25,38.5S38.5,32.444,38.5,25
	S32.444,11.5,25,11.5z M25,36.5c-6.341,0-11.5-5.159-11.5-11.5S18.659,13.5,25,13.5S36.5,18.659,36.5,25S31.341,36.5,25,36.5z"/>
<g id="Layer_1_1_">
</g>
</svg>
