<?xml version="1.0" encoding="iso-8859-1"?>
<!-- Generator: Adobe Illustrator 21.1.0, SVG Export Plug-In . SVG Version: 6.00 Build 0)  -->
<svg version="1.1" xmlns="http://www.w3.org/2000/svg" xmlns:xlink="http://www.w3.org/1999/xlink" x="0px" y="0px"
	 viewBox="0 0 49.996 49.996" style="enable-background:new 0 0 49.996 49.996;" xml:space="preserve">
<g id="ToggleGrid">
	<path style="fill:#353942;" d="M2.5,0C1.119,0,0,1.119,0,2.5v44.996c0,1.381,1.119,2.5,2.5,2.5h44.996c1.381,0,2.5-1.119,2.5-2.5
		V2.5c0-1.381-1.119-2.5-2.5-2.5H2.5z"/>
	<path style="fill:#5B616B;" d="M37.497,11.498h-25c-0.552,0-1,0.448-1,1v25c0,0.552,0.448,1,1,1h25c0.552,0,1-0.448,1-1v-25
		C38.497,11.946,38.049,11.498,37.497,11.498z M21.83,28.164v-6.333h6.333v6.333H21.83z M28.163,30.164v6.333H21.83v-6.333H28.163z
		 M13.497,21.831h6.333v6.333h-6.333V21.831z M21.83,19.831v-6.333h6.333v6.333H21.83z M30.163,21.831h6.333v6.333h-6.333V21.831z
		 M36.497,19.831h-6.333v-6.333h6.333V19.831z M19.83,13.498v6.333h-6.333v-6.333H19.83z M13.497,30.164h6.333v6.333h-6.333V30.164z
		 M30.163,36.498v-6.333h6.333v6.333H30.163z"/>
</g>
<g id="Layer_1">
</g>
</svg>
