<?xml version="1.0" encoding="iso-8859-1"?>
<!-- Generator: Adobe Illustrator 21.1.0, SVG Export Plug-In . SVG Version: 6.00 Build 0)  -->
<svg version="1.1" xmlns="http://www.w3.org/2000/svg" xmlns:xlink="http://www.w3.org/1999/xlink" x="0px" y="0px"
	 viewBox="0 0 49.996 49.996" style="enable-background:new 0 0 49.996 49.996;" xml:space="preserve">
<g id="ToggleCine">
	<path style="fill:#353942;" d="M2.5,0C1.119,0,0,1.119,0,2.5v44.996c0,1.381,1.119,2.5,2.5,2.5h44.996c1.381,0,2.5-1.119,2.5-2.5
		V2.5c0-1.381-1.119-2.5-2.5-2.5H2.5z"/>
	<path style="fill:#5B616B;" d="M30.11,24.207l-7.118-5.5c-0.302-0.233-0.71-0.275-1.052-0.106
		c-0.343,0.168-0.559,0.516-0.559,0.898v11c0,0.381,0.217,0.729,0.559,0.897c0.14,0.069,0.291,0.103,0.44,0.103
		c0.218,0,0.433-0.071,0.612-0.208l7.118-5.5c0.245-0.189,0.389-0.482,0.389-0.792S30.355,24.396,30.11,24.207z M23.381,28.461
		v-6.927l4.482,3.464L23.381,28.461z M24.997,11.498c-7.444,0-13.5,6.056-13.5,13.5s6.056,13.5,13.5,13.5s13.5-6.056,13.5-13.5
		S32.441,11.498,24.997,11.498z M24.997,36.498c-6.341,0-11.5-5.159-11.5-11.5c0-6.341,5.159-11.5,11.5-11.5
		c6.341,0,11.5,5.159,11.5,11.5C36.497,31.339,31.338,36.498,24.997,36.498z"/>
</g>
<g id="Layer_1">
</g>
</svg>
