<?xml version="1.0" encoding="iso-8859-1"?>
<!-- Generator: Adobe Illustrator 21.1.0, SVG Export Plug-In . SVG Version: 6.00 Build 0)  -->
<svg version="1.1" xmlns="http://www.w3.org/2000/svg" xmlns:xlink="http://www.w3.org/1999/xlink" x="0px" y="0px"
	 viewBox="0 0 50 50" style="enable-background:new 0 0 50 50;" xml:space="preserve">
<g id="ToggleTags">
	<path style="fill:#353942;" d="M2.503,0.002c-1.381,0-2.5,1.119-2.5,2.5v44.996c0,1.381,1.119,2.5,2.5,2.5h44.996
		c1.381,0,2.5-1.119,2.5-2.5V2.502c0-1.381-1.119-2.5-2.5-2.5H2.503z"/>
	<path style="display:none;fill:#8C96A5;" d="M48.149,26.913h-8.724c-0.01,0-0.015,0.01-0.025,0.01l6.189-6.187
		c0.348-0.341,0.545-0.814,0.545-1.306c0-0.492-0.197-0.965-0.545-1.306L31.876,4.411c-0.683-0.696-1.923-0.696-2.619,0l-6.164,6.17
		c0,0-0.002,0.011-0.007,0.016V1.851C23.087,0.827,22.259,0,21.235,0H1.851C0.827,0,0,0.827,0,1.851v36.602
		c0,3.179,1.292,6.061,3.377,8.151c0.002,0.002,0.001,0.006,0.004,0.009c1.021,1.024,2.211,1.81,3.494,2.38
		c0.065,0.029,0.122,0.073,0.188,0.101c0.574,0.242,1.175,0.409,1.783,0.554c0.134,0.032,0.257,0.091,0.393,0.119
		C9.99,49.918,10.762,50,11.547,50h36.602C49.173,50,50,49.173,50,48.149V28.765C50,27.741,49.173,26.913,48.149,26.913z
		 M23.087,13.169c0.009,0.009,0.005,0.023,0.013,0.032c0,0,0.008,0.001,0.011,0.005L35.5,25.594L23.087,38.007V13.169z
		 M19.384,38.453c0,2.281-1.014,4.294-2.572,5.729c-3,2.716-7.933,2.691-10.806-0.182l-0.001,0
		c-1.422-1.421-2.303-3.382-2.303-5.546V12.426h15.682V38.453z M19.384,8.724H3.702V3.702h15.682V8.724z M37.574,28.765v17.533
		H20.021l17.564-17.559C37.585,28.749,37.574,28.754,37.574,28.765z M27.021,11.89l3.549-3.554L41.663,19.43l-3.551,3.551
		L27.021,11.89z M46.298,46.298h-5.022V30.616h5.022V46.298z M11.547,41.276c1.556,0,2.816-1.267,2.816-2.823
		c0-1.556-1.26-2.816-2.816-2.816s-2.823,1.26-2.823,2.816C8.724,40.009,9.991,41.276,11.547,41.276z"/>
	<path style="fill:#5B616B;" d="M11.501,13.524v7.908c0,0.541,0.211,1.05,0.594,1.433L27,37.755c0.48,0.48,1.12,0.744,1.799,0.743
		c0.68-0.001,1.319-0.267,1.798-0.749l7.166-7.208c0.491-0.494,0.736-1.141,0.736-1.789c0-0.65-0.248-1.301-0.743-1.795
		l-14.88-14.865c-0.383-0.382-0.891-0.593-1.433-0.593h-7.916C12.41,11.498,11.501,12.407,11.501,13.524z M21.463,13.506
		l14.88,14.865c0.208,0.209,0.209,0.55,0.001,0.76l-7.166,7.208c-0.102,0.103-0.238,0.159-0.383,0.16
		c-0.145,0-0.28-0.056-0.383-0.158L13.501,21.432l0.027-7.934L21.463,13.506z M21.71,18.477c0-1.777-1.447-3.222-3.224-3.222
		s-3.224,1.445-3.224,3.222s1.447,3.222,3.224,3.222S21.71,20.253,21.71,18.477z M17.261,18.477c0-0.674,0.549-1.222,1.224-1.222
		s1.224,0.548,1.224,1.222s-0.549,1.222-1.224,1.222S17.261,19.15,17.261,18.477z"/>
</g>
<g id="Layer_1">
</g>
</svg>
