<?xml version="1.0" encoding="iso-8859-1"?>
<!-- Generator: Adobe Illustrator 21.1.0, SVG Export Plug-In . SVG Version: 6.00 Build 0)  -->
<svg version="1.1" xmlns="http://www.w3.org/2000/svg" xmlns:xlink="http://www.w3.org/1999/xlink" x="0px" y="0px"
	 viewBox="0 0 49.996 49.996" style="enable-background:new 0 0 49.996 49.996;" xml:space="preserve">
<g id="Tools">
	<path style="fill:#353942;" d="M2.5,0C1.119,0,0,1.119,0,2.5v44.996c0,1.381,1.119,2.5,2.5,2.5h44.996c1.381,0,2.5-1.119,2.5-2.5
		V2.5c0-1.381-1.119-2.5-2.5-2.5H2.5z"/>
	<path style="fill:#5B616B;" d="M37.807,32.434c-0.012-0.014-0.024-0.027-0.038-0.04l-7.821-7.81l0.637-0.637
		c1.189,0.288,3.748,0.533,6.024-1.742c3.036-3.034,1.527-6.51,1.461-6.656c-0.134-0.3-0.408-0.515-0.731-0.574
		c-0.323-0.059-0.655,0.044-0.888,0.277l-2.122,2.123l-1.707-1.707l2.114-2.128c0.232-0.233,0.334-0.566,0.273-0.89
		c-0.061-0.323-0.277-0.596-0.578-0.729c-0.146-0.065-3.619-1.552-6.652,1.483c-2.276,2.275-2.023,4.824-1.73,6.013l-0.605,0.605
		c-0.369-0.17-0.819-0.106-1.124,0.199l-0.582,0.582l-4.499-4.509l-0.66-2.041c-0.073-0.225-0.223-0.417-0.424-0.542l-3.318-2.06
		c-0.395-0.245-0.906-0.186-1.235,0.143l-1.811,1.812c-0.328,0.329-0.387,0.84-0.142,1.235l2.062,3.317
		c0.125,0.201,0.316,0.351,0.541,0.424l2.038,0.66l4.499,4.511l-0.584,0.584c-0.188,0.188-0.293,0.442-0.293,0.707
		c0,0.146,0.034,0.287,0.094,0.416l-7.72,7.72c-0.087,0.087-0.528,0.557-0.71,1.306c-0.143,0.588-0.205,1.753,0.989,2.947
		c0.781,0.781,1.591,1.067,2.313,1.066c0.814,0,1.517-0.363,1.941-0.786l7.754-7.754l7.822,7.811
		c0.012,0.012,0.025,0.024,0.038,0.036c0.38,0.341,1.071,0.699,1.927,0.698c0.827,0,1.807-0.333,2.809-1.334
		C39.207,35.133,38.477,33.181,37.807,32.434z M27.89,20.405c0.289-0.289,0.373-0.724,0.213-1.1
		c-0.01-0.024-0.992-2.406,1.091-4.488c0.945-0.945,1.943-1.253,2.752-1.307l-1.445,1.455c-0.388,0.391-0.387,1.022,0.002,1.412
		l3.119,3.119c0.376,0.376,1.04,0.375,1.415,0l1.457-1.458c-0.049,0.809-0.353,1.808-1.298,2.753
		c-2.056,2.055-4.413,1.14-4.506,1.104c-0.374-0.157-0.806-0.072-1.094,0.215l-1.062,1.062l-0.247-0.247
		c-0.188-0.187-0.441-0.292-0.707-0.292h-0.695l0-0.849c0-0.109-0.022-0.215-0.056-0.317L27.89,20.405z M15.407,36.299
		c-0.135,0.135-0.635,0.511-1.427-0.28c-0.683-0.683-0.521-1.159-0.28-1.425l6.633-6.633c0.172,0.128,0.379,0.202,0.595,0.202h0.001
		l0.849,0l0,0.694c0,0.265,0.105,0.519,0.293,0.707l0.035,0.035L15.407,36.299z M35.756,35.757c-1.092,1.092-1.79,0.713-1.975,0.57
		l-9.161-9.149l0-1.281c0-0.265-0.106-0.52-0.293-0.707c-0.188-0.187-0.442-0.292-0.707-0.292h-0.001l-1.146,0.001l0.435-0.435
		c0.001-0.001,0.003-0.002,0.004-0.004l1.534-1.535c0,0,0.001-0.001,0.001-0.001l0.438-0.438l-0.001,1.146
		c0,0.265,0.105,0.52,0.293,0.708c0.188,0.188,0.442,0.293,0.707,0.293h1.282l0.649,0.648c0.004,0.004,0.007,0.009,0.011,0.013
		c0.004,0.004,0.009,0.007,0.013,0.011l8.48,8.468C36.481,33.988,36.829,34.682,35.756,35.757z M27.154,26.032
		c-0.293-0.292-0.768-0.293-1.061,0.001c-0.292,0.293-0.292,0.768,0.001,1.061l8.003,7.991c0.146,0.146,0.338,0.219,0.53,0.219
		s0.384-0.073,0.531-0.22c0.292-0.293,0.292-0.768-0.001-1.061L27.154,26.032z"/>
</g>
<g id="Layer_1">
</g>
</svg>
