<?xml version="1.0" encoding="iso-8859-1"?>
<!-- Generator: Adobe Illustrator 21.1.0, SVG Export Plug-In . SVG Version: 6.00 Build 0)  -->
<svg version="1.1" xmlns="http://www.w3.org/2000/svg" xmlns:xlink="http://www.w3.org/1999/xlink" x="0px" y="0px"
	 viewBox="0 0 49.996 49.996" style="enable-background:new 0 0 49.996 49.996;" xml:space="preserve">
<g id="TrueSizeDisplay">
	<path style="fill:#353942;" d="M2.5,0C1.119,0,0,1.119,0,2.5v44.996c0,1.381,1.119,2.5,2.5,2.5h44.996c1.381,0,2.5-1.119,2.5-2.5
		V2.5c0-1.381-1.119-2.5-2.5-2.5H2.5z"/>
	<path style="fill:#5B616B;" d="M34.997,11.498h-20c-1.93,0-3.5,1.57-3.5,3.5v20c0,1.93,1.57,3.5,3.5,3.5h20
		c1.93,0,3.5-1.57,3.5-3.5v-20C38.497,13.068,36.927,11.498,34.997,11.498z M36.497,34.998c0,0.827-0.673,1.5-1.5,1.5h-20
		c-0.827,0-1.5-0.673-1.5-1.5v-20c0-0.827,0.673-1.5,1.5-1.5h20c0.827,0,1.5,0.673,1.5,1.5V34.998z M20.059,17.54
		c-0.552,0-1,0.448-1,1v12.917c0,0.552,0.448,1,1,1s1-0.448,1-1V18.54C21.059,17.987,20.612,17.54,20.059,17.54z M29.934,17.54
		c-0.552,0-1,0.448-1,1v12.917c0,0.552,0.448,1,1,1s1-0.448,1-1V18.54C30.934,17.987,30.487,17.54,29.934,17.54z M25.848,27.178
		h-1.703c-0.276,0-0.5,0.224-0.5,0.5v1.703c0,0.276,0.224,0.5,0.5,0.5h1.703c0.276,0,0.5-0.224,0.5-0.5v-1.703
		C26.348,27.402,26.125,27.178,25.848,27.178z M25.848,20.115h-1.703c-0.276,0-0.5,0.224-0.5,0.5v1.703c0,0.276,0.224,0.5,0.5,0.5
		h1.703c0.276,0,0.5-0.224,0.5-0.5v-1.703C26.348,20.339,26.125,20.115,25.848,20.115z"/>
</g>
<g id="Layer_1">
</g>
</svg>
