<?xml version="1.0" encoding="iso-8859-1"?>
<!-- Generator: Adobe Illustrator 21.1.0, SVG Export Plug-In . SVG Version: 6.00 Build 0)  -->
<svg version="1.1" xmlns="http://www.w3.org/2000/svg" xmlns:xlink="http://www.w3.org/1999/xlink" x="0px" y="0px"
	 viewBox="0 0 49.996 49.996" style="enable-background:new 0 0 49.996 49.996;" xml:space="preserve">
<g id="UnLinked">
	<path style="fill:#353942;" d="M2.5,0C1.119,0,0,1.119,0,2.5v44.996c0,1.381,1.119,2.5,2.5,2.5h44.996c1.381,0,2.5-1.119,2.5-2.5
		V2.5c0-1.381-1.119-2.5-2.5-2.5H2.5z"/>
	<path style="fill:#5B616B;" d="M24.26,32.432L22.591,34.1c-0.894,0.895-2.083,1.387-3.348,1.387c-1.265,0-2.454-0.492-3.348-1.387
		c-0.894-0.894-1.387-2.083-1.387-3.348c0-1.265,0.493-2.454,1.387-3.348l1.669-1.668c0.391-0.391,0.391-1.024,0-1.414
		c-0.39-0.391-1.024-0.391-1.414,0l-1.669,1.669c-1.272,1.272-1.973,2.963-1.973,4.762c0,1.799,0.701,3.49,1.973,4.762
		s2.963,1.973,4.762,1.973c1.799,0,3.49-0.701,4.762-1.973l1.669-1.668c0.391-0.39,0.391-1.023,0-1.414
		C25.284,32.041,24.651,32.04,24.26,32.432z M25.734,17.565l1.668-1.669c0.895-0.894,2.083-1.387,3.348-1.387
		c1.265,0,2.454,0.492,3.348,1.387c1.846,1.846,1.846,4.85,0,6.697l-1.668,1.669c-0.391,0.391-0.391,1.024,0,1.414
		c0.195,0.195,0.451,0.292,0.707,0.292s0.512-0.098,0.707-0.292l1.668-1.669c2.626-2.626,2.626-6.899,0-9.525
		c-1.272-1.272-2.963-1.973-4.762-1.973c-1.799,0-3.49,0.701-4.762,1.973l-1.669,1.669c-0.39,0.391-0.39,1.024,0,1.414
		C24.711,17.955,25.344,17.955,25.734,17.565z M27.965,20.616l-7.35,7.35c-0.391,0.391-0.391,1.023,0,1.414
		c0.195,0.195,0.451,0.293,0.707,0.293s0.512-0.098,0.707-0.293l7.35-7.35c0.391-0.39,0.391-1.024,0-1.414
		C28.988,20.225,28.355,20.225,27.965,20.616z M30.11,32.573c-0.257-0.488-0.861-0.677-1.351-0.42
		c-0.489,0.257-0.677,0.862-0.42,1.351l2.345,4.459c0.179,0.34,0.526,0.535,0.886,0.535c0.157,0,0.316-0.037,0.464-0.115
		c0.489-0.257,0.677-0.862,0.42-1.351L30.11,32.573z M19.885,17.426c0.179,0.34,0.526,0.535,0.886,0.535
		c0.157,0,0.316-0.037,0.465-0.115c0.489-0.257,0.677-0.862,0.42-1.35l-2.346-4.462c-0.257-0.489-0.862-0.676-1.35-0.42
		c-0.489,0.257-0.677,0.862-0.42,1.35L19.885,17.426z M16.956,21.771c0.359,0,0.707-0.195,0.886-0.535
		c0.257-0.489,0.069-1.093-0.42-1.35l-4.46-2.345c-0.488-0.257-1.093-0.069-1.35,0.42c-0.257,0.489-0.069,1.093,0.42,1.35
		l4.46,2.345C16.64,21.734,16.799,21.771,16.956,21.771z M37.962,30.686l-4.458-2.345c-0.489-0.257-1.093-0.068-1.351,0.42
		c-0.257,0.489-0.069,1.093,0.42,1.351l4.458,2.345c0.148,0.078,0.308,0.115,0.464,0.115c0.36,0,0.707-0.194,0.886-0.535
		C38.639,31.548,38.451,30.943,37.962,30.686z"/>
</g>
<g id="Layer_1">
</g>
</svg>
