<svg xmlns="http://www.w3.org/2000/svg" viewBox="0 0 50 50"><defs><style>.cls-1{fill:#353942;}.cls-2{fill:#5b616b;}</style></defs><title>vrt-disabled</title><g id="Layer_2" data-name="Layer 2"><g id="VRT3"><rect class="cls-1" width="50" height="50" rx="2.5" ry="2.5"/><path class="cls-2" d="M34,14.58a.54.54,0,0,0,0-.18.57.57,0,0,0,0-.1.56.56,0,0,0-.21-.21L25.27,9.22a.56.56,0,0,0-.56,0l-8.4,4.88h0s-.06.06-.09.09a.3.3,0,0,0-.15.25.54.54,0,0,0,0,.15l0,9.71a.56.56,0,0,0,.28.49l8.45,4.88a.56.56,0,0,0,.28.08.56.56,0,0,0,.28-.07h0l8.41-4.88a.56.56,0,0,0,.28-.48l0-9.71h0ZM24.45,28.2,17.12,24l0-8.41,7.32,4.23ZM25,18.81l-5.42-3.13-1.9-1.1L25,10.35l7.32,4.23ZM32.85,24l-7.28,4.23,0-8.4,7.24-4.21,0,0Z"/><path class="cls-2" d="M16.64,40.85l-3.09-8h1.94L17.71,39l2.21-6.15h1.94l-3.08,8Z"/><path class="cls-2" d="M27.13,40.85,25.55,38H24.31v2.84H22.6v-8h3.74A2.49,2.49,0,0,1,29,35.43a2.3,2.3,0,0,1-1.75,2.38l1.8,3Zm.17-5.42a1.09,1.09,0,0,0-1.2-1.08H24.31v2.16h1.79A1.09,1.09,0,0,0,27.29,35.43Z"/><path class="cls-2" d="M32,40.85v-6.5H29.71v-1.5h6.38v1.5H33.76v6.5Z"/></g></g></svg>