<?xml version="1.0" encoding="iso-8859-1"?>
<!-- Generator: Adobe Illustrator 21.1.0, SVG Export Plug-In . SVG Version: 6.00 Build 0)  -->
<svg version="1.1" xmlns="http://www.w3.org/2000/svg" xmlns:xlink="http://www.w3.org/1999/xlink" x="0px" y="0px"
	 viewBox="0 0 49.996 49.996" style="enable-background:new 0 0 49.996 49.996;" xml:space="preserve">
<g id="WaveformBasicAudio">
	<path style="fill:#353942;" d="M2.5,0C1.119,0,0,1.119,0,2.5v44.996c0,1.381,1.119,2.5,2.5,2.5h44.996c1.381,0,2.5-1.119,2.5-2.5
		V2.5c0-1.381-1.119-2.5-2.5-2.5H2.5z"/>
	<path style="fill:#5B616B;" d="M24.352,11.563c-0.388-0.147-0.827-0.04-1.103,0.271l-6.702,7.539h-4.051c-0.552,0-1,0.448-1,1v9.25
		c0,0.552,0.448,1,1,1h4.051l6.702,7.54c0.193,0.218,0.467,0.335,0.748,0.335c0.119,0,0.24-0.021,0.355-0.065
		c0.388-0.147,0.645-0.52,0.645-0.935v-25C24.997,12.083,24.74,11.711,24.352,11.563z M22.997,34.868l-5.253-5.909
		c-0.19-0.213-0.462-0.335-0.747-0.335h-3.5v-7.25h3.5c0.286,0,0.558-0.122,0.747-0.336l5.253-5.909V34.868z M28.56,11.847
		c-0.537-0.124-1.075,0.21-1.2,0.748c-0.125,0.538,0.21,1.075,0.748,1.2c5.018,1.164,8.389,5.666,8.389,11.202
		c0,5.538-3.373,10.04-8.392,11.203c-0.538,0.125-0.873,0.662-0.749,1.2c0.107,0.462,0.519,0.774,0.973,0.774
		c0.075,0,0.151-0.008,0.227-0.026c5.946-1.378,9.94-6.663,9.94-13.151C38.497,18.511,34.504,13.227,28.56,11.847z M28.105,30.952
		c-0.538,0.125-0.873,0.662-0.748,1.2c0.107,0.462,0.519,0.774,0.973,0.774c0.075,0,0.151-0.008,0.227-0.026
		c3.507-0.813,5.773-3.915,5.773-7.902c0-3.987-2.266-7.088-5.771-7.902c-0.538-0.124-1.075,0.209-1.2,0.748
		c-0.125,0.538,0.21,1.075,0.748,1.2c2.566,0.595,4.224,2.932,4.224,5.954C32.33,28.02,30.672,30.357,28.105,30.952z"/>
</g>
<g id="Layer_1">
</g>
</svg>
