<?xml version="1.0" encoding="iso-8859-1"?>
<!-- Generator: Adobe Illustrator 21.1.0, SVG Export Plug-In . SVG Version: 6.00 Build 0)  -->
<svg version="1.1" xmlns="http://www.w3.org/2000/svg" xmlns:xlink="http://www.w3.org/1999/xlink" x="0px" y="0px"
	 viewBox="0 0 49.996 49.996" style="enable-background:new 0 0 49.996 49.996;" xml:space="preserve">
<g id="WindowLevelCustom">
	<path style="fill:#353942;" d="M2.5,0C1.119,0,0,1.119,0,2.5v44.996c0,1.381,1.119,2.5,2.5,2.5h44.996c1.381,0,2.5-1.119,2.5-2.5
		V2.5c0-1.381-1.119-2.5-2.5-2.5H2.5z"/>
	<g>
		<path style="fill:#5B616B;" d="M32.675,23.998h-1.099c-0.165-1.09-0.594-2.093-1.221-2.943l0.778-0.778
			c0.391-0.391,0.391-1.024,0-1.414s-1.023-0.39-1.414,0L28.94,19.64c-0.851-0.628-1.853-1.056-2.943-1.221V17.32
			c0-0.552-0.448-1-1-1s-1,0.448-1,1v1.099c-1.09,0.165-2.093,0.594-2.943,1.221l-0.778-0.778c-0.39-0.391-1.024-0.391-1.414,0
			c-0.391,0.39-0.391,1.024,0,1.414l0.778,0.778c-0.628,0.851-1.056,1.853-1.221,2.943h-1.099c-0.552,0-1,0.448-1,1s0.448,1,1,1
			h1.099c0.165,1.09,0.594,2.093,1.221,2.943l-0.779,0.779c-0.39,0.391-0.39,1.024,0,1.414c0.195,0.195,0.451,0.293,0.707,0.293
			s0.512-0.098,0.707-0.293l0.778-0.778c0.851,0.628,1.853,1.056,2.943,1.221v1.099c0,0.552,0.448,1,1,1s1-0.448,1-1v-1.099
			c1.091-0.165,2.093-0.594,2.944-1.221l0.778,0.778c0.195,0.195,0.451,0.293,0.707,0.293s0.512-0.098,0.707-0.293
			c0.391-0.391,0.391-1.023,0-1.414l-0.778-0.778c0.628-0.851,1.056-1.853,1.221-2.944h1.099c0.552,0,1-0.448,1-1
			S33.227,23.998,32.675,23.998z M25,29.66c-0.001,0-0.002,0-0.003,0s-0.002,0-0.003,0c-2.569-0.002-4.659-2.093-4.659-4.662
			c0-2.57,2.091-4.661,4.661-4.662c0.001,0,0.001,0,0.002,0s0.001,0,0.002,0c2.57,0.001,4.661,2.092,4.661,4.662
			C29.659,27.568,27.569,29.659,25,29.66z M27.505,23.998h-5.016c-0.552,0-1,0.448-1,1c0,1.935,1.574,3.508,3.508,3.508
			c1.935,0,3.508-1.574,3.508-3.508C28.505,24.446,28.057,23.998,27.505,23.998z"/>
		<path style="opacity:0.6;fill:#5B616B;" d="M37.497,32.748c-0.552,0-1,0.448-1,1v2.75h-2.75c-0.552,0-1,0.448-1,1s0.448,1,1,1
			h3.75c0.552,0,1-0.448,1-1v-3.75C38.497,33.196,38.049,32.748,37.497,32.748z M27.913,36.498H22.08c-0.552,0-1,0.448-1,1
			s0.448,1,1,1h5.833c0.552,0,1-0.448,1-1S28.466,36.498,27.913,36.498z M16.247,36.498h-2.75v-2.75c0-0.552-0.448-1-1-1
			s-1,0.448-1,1v3.75c0,0.552,0.448,1,1,1h3.75c0.552,0,1-0.448,1-1S16.799,36.498,16.247,36.498z M12.497,28.914
			c0.552,0,1-0.448,1-1v-5.833c0-0.552-0.448-1-1-1s-1,0.448-1,1v5.833C11.497,28.467,11.945,28.914,12.497,28.914z M16.247,11.498
			h-3.75c-0.552,0-1,0.448-1,1v3.75c0,0.552,0.448,1,1,1s1-0.448,1-1v-2.75h2.75c0.552,0,1-0.448,1-1S16.799,11.498,16.247,11.498z
			 M27.913,11.498H22.08c-0.552,0-1,0.448-1,1s0.448,1,1,1h5.833c0.552,0,1-0.448,1-1S28.466,11.498,27.913,11.498z M37.497,11.498
			h-3.75c-0.552,0-1,0.448-1,1s0.448,1,1,1h2.75v2.75c0,0.552,0.448,1,1,1s1-0.448,1-1v-3.75
			C38.497,11.946,38.049,11.498,37.497,11.498z M37.497,21.081c-0.552,0-1,0.448-1,1v5.833c0,0.552,0.448,1,1,1s1-0.448,1-1v-5.833
			C38.497,21.529,38.049,21.081,37.497,21.081z"/>
	</g>
</g>
<g id="Layer_1">
</g>
</svg>
