<?xml version="1.0" encoding="iso-8859-1"?>
<!-- Generator: Adobe Illustrator 21.1.0, SVG Export Plug-In . SVG Version: 6.00 Build 0)  -->
<svg version="1.1" xmlns="http://www.w3.org/2000/svg" xmlns:xlink="http://www.w3.org/1999/xlink" x="0px" y="0px"
	 viewBox="0 0 49.996 49.996" style="enable-background:new 0 0 49.996 49.996;" xml:space="preserve">
<g id="WindowLevel">
	<path style="fill:#353942;" d="M2.5,0C1.119,0,0,1.119,0,2.5v44.996c0,1.381,1.119,2.5,2.5,2.5h44.996c1.381,0,2.5-1.119,2.5-2.5
		V2.5c0-1.381-1.119-2.5-2.5-2.5H2.5z"/>
	<path style="fill:#5B616B;" d="M37.497,23.998h-2.332c-0.202-2.068-1.022-3.958-2.274-5.48l1.652-1.652
		c0.391-0.39,0.391-1.024,0-1.414c-0.391-0.391-1.023-0.391-1.414,0l-1.652,1.652c-1.522-1.252-3.412-2.072-5.48-2.274v-2.332
		c0-0.552-0.448-1-1-1s-1,0.448-1,1v2.332c-2.068,0.202-3.958,1.022-5.48,2.274l-1.652-1.652c-0.39-0.391-1.024-0.391-1.414,0
		c-0.391,0.39-0.391,1.024,0,1.414l1.652,1.652c-1.252,1.522-2.072,3.412-2.274,5.48h-2.332c-0.552,0-1,0.448-1,1s0.448,1,1,1h2.332
		c0.202,2.068,1.022,3.958,2.274,5.48l-1.652,1.652c-0.391,0.391-0.391,1.023,0,1.414c0.195,0.195,0.451,0.293,0.707,0.293
		c0.256,0,0.512-0.098,0.707-0.293l1.652-1.652c1.522,1.252,3.412,2.072,5.48,2.274v2.332c0,0.552,0.448,1,1,1s1-0.448,1-1v-2.332
		c2.068-0.202,3.958-1.022,5.48-2.274l1.651,1.651c0.195,0.195,0.451,0.293,0.707,0.293s0.512-0.098,0.707-0.293
		c0.391-0.391,0.391-1.023,0-1.414l-1.651-1.651c1.252-1.522,2.072-3.412,2.274-5.48h2.332c0.552,0,1-0.448,1-1
		S38.049,23.998,37.497,23.998z M25,33.217c-0.001,0-0.002,0-0.003,0s-0.002,0-0.003,0c-4.53-0.002-8.216-3.688-8.216-8.219
		c0-4.531,3.686-8.218,8.217-8.219c0.001,0,0.001,0,0.002,0s0.001,0,0.002,0c4.531,0.001,8.217,3.687,8.217,8.219
		C33.216,29.529,29.53,33.215,25,33.217z M18.164,24.998c0,3.768,3.065,6.833,6.833,6.833c3.768,0,6.833-3.065,6.833-6.833
		c0-0.552-0.448-1-1-1H19.164C18.611,23.998,18.164,24.446,18.164,24.998z"/>
</g>
<g id="Layer_1">
</g>
</svg>
