<?xml version="1.0" encoding="iso-8859-1"?>
<!-- Generator: Adobe Illustrator 21.1.0, SVG Export Plug-In . SVG Version: 6.00 Build 0)  -->
<svg version="1.1" xmlns="http://www.w3.org/2000/svg" xmlns:xlink="http://www.w3.org/1999/xlink" x="0px" y="0px"
	 viewBox="0 0 49.996 49.996" style="enable-background:new 0 0 49.996 49.996;" xml:space="preserve">
<g id="ZoomIn">
	<path style="fill:#353942;" d="M2.5,0C1.119,0,0,1.119,0,2.5v44.996c0,1.381,1.119,2.5,2.5,2.5h44.996c1.381,0,2.5-1.119,2.5-2.5
		V2.5c0-1.381-1.119-2.5-2.5-2.5H2.5z"/>
	<path style="fill:#5B616B;" d="M38.204,36.791l-5.123-5.123c1.816-2.137,2.916-4.902,2.916-7.92c0-6.755-5.495-12.25-12.25-12.25
		c-6.755,0-12.25,5.495-12.25,12.25c0,6.755,5.495,12.25,12.25,12.25c3.018,0,5.783-1.099,7.92-2.916l5.123,5.123
		c0.195,0.195,0.451,0.293,0.707,0.293s0.512-0.098,0.707-0.293C38.595,37.814,38.595,37.182,38.204,36.791z M23.747,33.998
		c-5.652,0-10.25-4.598-10.25-10.25s4.598-10.25,10.25-10.25s10.25,4.598,10.25,10.25S29.399,33.998,23.747,33.998z M28.622,22.748
		h-9.75c-0.552,0-1,0.448-1,1s0.448,1,1,1h9.75c0.552,0,1-0.448,1-1S29.174,22.748,28.622,22.748z"/>
</g>
<g id="Layer_1">
</g>
</svg>
