<?xml version="1.0" encoding="iso-8859-1"?>
<!-- Generator: Adobe Illustrator 21.1.0, SVG Export Plug-In . SVG Version: 6.00 Build 0)  -->
<svg version="1.1" id="Layer_1" xmlns="http://www.w3.org/2000/svg" xmlns:xlink="http://www.w3.org/1999/xlink" x="0px" y="0px"
	 viewBox="0 0 58.885 16.03" style="enable-background:new 0 0 58.885 16.03;" xml:space="preserve">
<g>
	<path style="fill:#D1D2D3;" d="M58.448,3.739V3.737c0.079-0.032,0.112-0.095,0.112-0.178c0-0.108-0.081-0.196-0.208-0.196H57.97
		v0.71h0.156V3.796h0.156c0.079,0,0.107,0.033,0.118,0.107c0.008,0.057,0.006,0.125,0.025,0.17h0.156
		c-0.028-0.04-0.027-0.123-0.03-0.168C58.547,3.833,58.525,3.759,58.448,3.739z M58.297,3.684h-0.171v-0.2h0.171
		c0.07,0,0.107,0.03,0.107,0.099C58.405,3.654,58.367,3.684,58.297,3.684z M58.255,3.088c-0.347,0-0.63,0.283-0.63,0.63
		c0,0.347,0.282,0.63,0.63,0.63c0.347,0,0.63-0.283,0.63-0.63C58.885,3.371,58.602,3.088,58.255,3.088z M58.255,4.265
		c-0.301,0-0.547-0.245-0.547-0.547c0-0.302,0.245-0.547,0.547-0.547c0.302,0,0.547,0.245,0.547,0.547
		C58.802,4.02,58.557,4.265,58.255,4.265z"/>
	<polygon style="fill:#ED203B;" points="0.065,5.956 0.065,11.987 3.894,11.987 	"/>
	<linearGradient id="SVGID_1_" gradientUnits="userSpaceOnUse" x1="24.5936" y1="12.6339" x2="2.1913" y2="-3.0523">
		<stop  offset="0" style="stop-color:#0583C6"/>
		<stop  offset="1" style="stop-color:#3252A3"/>
	</linearGradient>
	<path style="fill:url(#SVGID_1_);" d="M9.559,4.895v7.137l6.842-0.024V0h-3.675L9.559,4.895z M0.052,0.002v4.003l4.998,7.838
		l4.037-6.184L5.459,0.002H0.052z M18.261,3.949v8.065h6.766V3.949H18.261z M25.004,0.028h-6.746v2.987h6.746V0.028z"/>
	<polygon style="fill:#ED203B;" points="25.765,7.642 29.647,7.642 27.717,11.232 	"/>
	<g>
		<path style="fill:#D1D2D3;" d="M30.447,4.901c0.497-0.075,1.148-0.14,1.977-0.14c1.018,0,1.764,0.215,2.237,0.603
			c0.426,0.344,0.698,0.872,0.698,1.517c0,0.656-0.213,1.173-0.615,1.55c-0.556,0.527-1.432,0.796-2.438,0.796
			c-0.308,0-0.592-0.011-0.829-0.065v2.905h-1.03V4.901z M31.477,8.398c0.225,0.054,0.509,0.075,0.852,0.075c1.243,0,2-0.56,2-1.539
			c0-0.968-0.757-1.431-1.882-1.431c-0.45,0-0.793,0.032-0.971,0.075V8.398z"/>
		<path style="fill:#D1D2D3;" d="M37.928,9.786L37.1,12.068h-1.065l2.722-7.253h1.231l2.723,7.253H41.61l-0.852-2.281H37.928z
			 M40.556,9.055l-0.793-2.088c-0.177-0.474-0.296-0.904-0.414-1.324h-0.024c-0.118,0.42-0.237,0.872-0.403,1.313l-0.781,2.098
			H40.556z"/>
		<path style="fill:#D1D2D3;" d="M50.155,11.842c-0.367,0.172-1.136,0.344-2.107,0.344c-2.249,0-3.93-1.291-3.93-3.68
			c0-2.281,1.693-3.809,4.167-3.809c0.982,0,1.622,0.194,1.894,0.323l-0.261,0.764c-0.379-0.172-0.935-0.301-1.598-0.301
			c-1.87,0-3.113,1.087-3.113,2.991c0,1.786,1.124,2.916,3.054,2.916c0.639,0,1.279-0.118,1.693-0.301L50.155,11.842z"/>
		<path style="fill:#D1D2D3;" d="M53.103,10.927c0.461,0.269,1.124,0.474,1.835,0.474c1.054,0,1.669-0.506,1.669-1.238
			c0-0.667-0.426-1.065-1.503-1.431c-1.302-0.43-2.107-1.055-2.107-2.066c0-1.13,1.03-1.969,2.58-1.969
			c0.805,0,1.409,0.172,1.752,0.355l-0.284,0.764c-0.249-0.14-0.781-0.344-1.503-0.344c-1.089,0-1.503,0.592-1.503,1.087
			c0,0.678,0.485,1.011,1.586,1.399c1.349,0.474,2.024,1.065,2.024,2.131c0,1.119-0.9,2.098-2.782,2.098
			c-0.769,0-1.61-0.215-2.036-0.474L53.103,10.927z"/>
	</g>
	<g>
		<path style="fill:#D1D2D3;" d="M0,13.788c0.117-0.018,0.27-0.033,0.465-0.033c0.239,0,0.415,0.051,0.526,0.142
			c0.1,0.081,0.164,0.205,0.164,0.357c0,0.154-0.05,0.276-0.145,0.365c-0.131,0.124-0.337,0.187-0.574,0.187
			c-0.072,0-0.139-0.003-0.195-0.015v0.683H0V13.788z M0.242,14.61c0.053,0.013,0.12,0.018,0.201,0.018
			c0.292,0,0.471-0.132,0.471-0.362c0-0.228-0.178-0.337-0.443-0.337c-0.106,0-0.187,0.008-0.228,0.018V14.61z"/>
		<path style="fill:#D1D2D3;" d="M2.777,14.851c0,0.453-0.348,0.65-0.671,0.65c-0.362,0-0.646-0.243-0.646-0.63
			c0-0.407,0.298-0.648,0.668-0.648C2.515,14.223,2.777,14.479,2.777,14.851z M1.71,14.863c0,0.268,0.167,0.471,0.407,0.471
			c0.234,0,0.41-0.2,0.41-0.476c0-0.208-0.114-0.468-0.404-0.468C1.835,14.39,1.71,14.633,1.71,14.863z"/>
		<path style="fill:#D1D2D3;" d="M3.267,14.248l0.181,0.623c0.036,0.137,0.072,0.263,0.097,0.39h0.008
			c0.031-0.124,0.075-0.256,0.12-0.387l0.22-0.625H4.1l0.209,0.613c0.05,0.147,0.089,0.276,0.12,0.4h0.008
			c0.022-0.124,0.058-0.253,0.103-0.397l0.192-0.615h0.242L4.54,15.473H4.317l-0.206-0.585c-0.047-0.137-0.086-0.258-0.12-0.402
			H3.985c-0.033,0.147-0.075,0.273-0.122,0.405l-0.217,0.582H3.423l-0.407-1.225H3.267z"/>
		<path style="fill:#D1D2D3;" d="M5.439,14.901c0.005,0.301,0.214,0.425,0.462,0.425c0.175,0,0.284-0.028,0.373-0.063l0.045,0.16
			c-0.086,0.035-0.237,0.078-0.451,0.078c-0.415,0-0.663-0.251-0.663-0.62s0.24-0.658,0.632-0.658c0.443,0,0.557,0.349,0.557,0.575
			c0,0.045-0.003,0.078-0.008,0.104H5.439z M6.158,14.742c0.003-0.139-0.064-0.359-0.34-0.359c-0.251,0-0.357,0.205-0.376,0.359
			H6.158z"/>
		<path style="fill:#D1D2D3;" d="M6.782,14.63c0-0.144-0.003-0.268-0.011-0.382h0.214l0.011,0.243h0.008
			c0.061-0.164,0.212-0.268,0.376-0.268c0.025,0,0.044,0.003,0.067,0.005v0.21c-0.025-0.005-0.05-0.005-0.084-0.005
			c-0.173,0-0.295,0.116-0.329,0.284c-0.006,0.03-0.008,0.068-0.008,0.104v0.653H6.782V14.63z"/>
		<path style="fill:#D1D2D3;" d="M7.912,14.901c0.006,0.301,0.214,0.425,0.462,0.425c0.175,0,0.284-0.028,0.373-0.063l0.045,0.16
			c-0.086,0.035-0.237,0.078-0.451,0.078c-0.415,0-0.663-0.251-0.663-0.62s0.24-0.658,0.632-0.658c0.443,0,0.557,0.349,0.557,0.575
			c0,0.045-0.003,0.078-0.008,0.104H7.912z M8.631,14.742c0.003-0.139-0.064-0.359-0.34-0.359c-0.251,0-0.357,0.205-0.376,0.359
			H8.631z"/>
		<path style="fill:#D1D2D3;" d="M10.416,13.676v1.481c0,0.109,0.006,0.233,0.011,0.316H10.21l-0.011-0.213h-0.008
			c-0.072,0.137-0.234,0.24-0.454,0.24c-0.326,0-0.579-0.251-0.579-0.623c-0.003-0.408,0.278-0.656,0.604-0.656
			c0.209,0,0.345,0.089,0.407,0.185h0.006v-0.731H10.416z M10.174,14.747c0-0.028-0.003-0.066-0.011-0.094
			c-0.036-0.139-0.17-0.256-0.354-0.256c-0.253,0-0.404,0.202-0.404,0.471c0,0.248,0.136,0.453,0.398,0.453
			c0.164,0,0.315-0.101,0.359-0.266c0.008-0.03,0.011-0.061,0.011-0.096V14.747z"/>
		<path style="fill:#D1D2D3;" d="M11.583,13.676h0.242v0.769h0.006c0.086-0.137,0.242-0.223,0.46-0.223
			c0.337,0,0.571,0.253,0.571,0.623c0,0.438-0.306,0.655-0.607,0.655c-0.195,0-0.351-0.068-0.454-0.228h-0.006l-0.014,0.2h-0.209
			c0.006-0.083,0.011-0.208,0.011-0.316V13.676z M11.825,14.982c0,0.028,0.003,0.056,0.011,0.081
			c0.045,0.154,0.189,0.261,0.368,0.261c0.259,0,0.409-0.19,0.409-0.471c0-0.245-0.139-0.455-0.404-0.455
			c-0.164,0-0.32,0.106-0.37,0.273c-0.008,0.028-0.014,0.058-0.014,0.094V14.982z"/>
		<path style="fill:#D1D2D3;" d="M13.34,14.248l0.292,0.724c0.033,0.081,0.067,0.177,0.089,0.251h0.006
			c0.025-0.073,0.053-0.167,0.086-0.256l0.267-0.719h0.259l-0.368,0.873c-0.175,0.42-0.295,0.633-0.462,0.767
			c-0.123,0.094-0.24,0.132-0.301,0.142l-0.061-0.185c0.061-0.018,0.142-0.053,0.214-0.109c0.067-0.048,0.148-0.134,0.206-0.248
			c0.011-0.023,0.019-0.041,0.019-0.053s-0.006-0.03-0.019-0.058l-0.496-1.129H13.34z"/>
		<path style="fill:#D1D2D3;" d="M15.326,13.767h0.245v1.521h0.802v0.185h-1.047V13.767z"/>
		<path style="fill:#D1D2D3;" d="M17.696,14.674h-0.727v0.615h0.813v0.185h-1.058v-1.706h1.017v0.185h-0.772v0.539h0.727V14.674z"/>
		<path style="fill:#D1D2D3;" d="M18.484,14.937l-0.195,0.537h-0.251l0.641-1.706h0.29l0.641,1.706h-0.259l-0.201-0.537H18.484z
			 M19.103,14.765l-0.187-0.491c-0.042-0.111-0.07-0.213-0.097-0.311h-0.006c-0.028,0.099-0.056,0.205-0.095,0.309l-0.184,0.494
			H19.103z"/>
		<path style="fill:#D1D2D3;" d="M19.969,13.793c0.148-0.023,0.323-0.038,0.515-0.038c0.348,0,0.596,0.076,0.76,0.213
			c0.17,0.139,0.267,0.337,0.267,0.613c0,0.278-0.097,0.506-0.27,0.663c-0.178,0.16-0.468,0.246-0.833,0.246
			c-0.176,0-0.318-0.008-0.44-0.02V13.793z M20.211,15.301c0.061,0.008,0.15,0.01,0.245,0.01c0.521,0,0.799-0.263,0.799-0.724
			c0.003-0.402-0.248-0.658-0.76-0.658c-0.125,0-0.22,0.01-0.284,0.023V15.301z"/>
		<path style="fill:#D1D2D3;" d="M22.264,13.955h-0.571v-0.187h1.39v0.187h-0.574v1.519h-0.245V13.955z"/>
		<path style="fill:#D1D2D3;" d="M24.979,14.603c0,0.585-0.393,0.898-0.872,0.898c-0.499,0-0.844-0.352-0.844-0.868
			c0-0.542,0.368-0.896,0.869-0.896C24.648,13.737,24.979,14.094,24.979,14.603z M23.52,14.628c0,0.367,0.217,0.693,0.602,0.693
			s0.602-0.321,0.602-0.709c0-0.342-0.195-0.696-0.599-0.696C23.72,13.917,23.52,14.256,23.52,14.628z"/>
		<path style="fill:#D1D2D3;" d="M26.982,14.603c0,0.585-0.393,0.898-0.872,0.898c-0.498,0-0.844-0.352-0.844-0.868
			c0-0.542,0.368-0.896,0.869-0.896C26.65,13.737,26.982,14.094,26.982,14.603z M25.522,14.628c0,0.367,0.217,0.693,0.602,0.693
			c0.384,0,0.602-0.321,0.602-0.709c0-0.342-0.195-0.696-0.599-0.696C25.723,13.917,25.522,14.256,25.522,14.628z"/>
		<path style="fill:#D1D2D3;" d="M27.377,13.767h0.245v1.521h0.802v0.185h-1.047V13.767z"/>
		<path style="fill:#D1D2D3;" d="M28.747,15.205c0.109,0.063,0.265,0.111,0.432,0.111c0.248,0,0.393-0.119,0.393-0.291
			c0-0.157-0.1-0.251-0.354-0.337c-0.306-0.101-0.496-0.248-0.496-0.486c0-0.266,0.242-0.463,0.607-0.463
			c0.189,0,0.331,0.04,0.412,0.083l-0.067,0.18c-0.058-0.033-0.184-0.081-0.354-0.081c-0.256,0-0.354,0.139-0.354,0.256
			c0,0.16,0.114,0.238,0.373,0.329c0.317,0.111,0.476,0.25,0.476,0.501c0,0.263-0.212,0.493-0.655,0.493
			c-0.181,0-0.379-0.051-0.479-0.111L28.747,15.205z"/>
		<path style="fill:#D1D2D3;" d="M32.49,14.724c-0.014-0.238-0.031-0.527-0.031-0.737h-0.005c-0.067,0.197-0.142,0.413-0.237,0.648
			l-0.331,0.828h-0.184l-0.306-0.812c-0.089-0.243-0.162-0.461-0.215-0.663h-0.005c-0.006,0.213-0.02,0.496-0.036,0.754l-0.05,0.731
			h-0.231l0.131-1.706h0.309l0.32,0.825c0.078,0.21,0.139,0.397,0.19,0.575h0.005c0.05-0.172,0.117-0.359,0.201-0.575l0.334-0.825
			h0.309l0.117,1.706h-0.239L32.49,14.724z"/>
		<path style="fill:#D1D2D3;" d="M33.359,14.901c0.005,0.301,0.214,0.425,0.462,0.425c0.176,0,0.284-0.028,0.373-0.063l0.045,0.16
			c-0.086,0.035-0.237,0.078-0.451,0.078c-0.415,0-0.663-0.251-0.663-0.62s0.239-0.658,0.632-0.658c0.443,0,0.557,0.349,0.557,0.575
			c0,0.045-0.003,0.078-0.008,0.104H33.359z M34.078,14.742c0.003-0.139-0.064-0.359-0.34-0.359c-0.251,0-0.357,0.205-0.376,0.359
			H34.078z"/>
		<path style="fill:#D1D2D3;" d="M35.863,13.676v1.481c0,0.109,0.006,0.233,0.011,0.316h-0.217l-0.011-0.213h-0.008
			c-0.072,0.137-0.234,0.24-0.454,0.24c-0.326,0-0.579-0.251-0.579-0.623c-0.003-0.408,0.278-0.656,0.605-0.656
			c0.209,0,0.345,0.089,0.407,0.185h0.005v-0.731H35.863z M35.621,14.747c0-0.028-0.003-0.066-0.011-0.094
			c-0.036-0.139-0.17-0.256-0.354-0.256c-0.253,0-0.404,0.202-0.404,0.471c0,0.248,0.137,0.453,0.398,0.453
			c0.164,0,0.315-0.101,0.359-0.266c0.008-0.03,0.011-0.061,0.011-0.096V14.747z"/>
		<path style="fill:#D1D2D3;" d="M36.629,13.904c0,0.076-0.058,0.137-0.156,0.137c-0.089,0-0.148-0.061-0.148-0.137
			c0-0.076,0.061-0.139,0.153-0.139C36.568,13.765,36.629,13.826,36.629,13.904z M36.356,15.473v-1.225h0.245v1.225H36.356z"/>
		<path style="fill:#D1D2D3;" d="M38.052,15.43c-0.064,0.028-0.206,0.071-0.387,0.071c-0.407,0-0.671-0.251-0.671-0.625
			c0-0.377,0.284-0.653,0.724-0.653c0.145,0,0.273,0.033,0.34,0.066l-0.056,0.17c-0.058-0.028-0.15-0.058-0.284-0.058
			c-0.309,0-0.476,0.21-0.476,0.463c0,0.283,0.2,0.458,0.468,0.458c0.139,0,0.231-0.03,0.301-0.058L38.052,15.43z"/>
		<path style="fill:#D1D2D3;" d="M39.369,15.18c0,0.106,0.006,0.21,0.02,0.294h-0.22l-0.02-0.155h-0.008
			c-0.075,0.096-0.22,0.182-0.412,0.182c-0.273,0-0.412-0.175-0.412-0.352c0-0.296,0.29-0.458,0.81-0.456v-0.025
			c0-0.099-0.03-0.283-0.306-0.281c-0.128,0-0.259,0.033-0.354,0.091l-0.056-0.149c0.111-0.063,0.276-0.106,0.446-0.106
			c0.412,0,0.513,0.256,0.513,0.499V15.18z M39.133,14.848c-0.267-0.005-0.571,0.038-0.571,0.276c0,0.147,0.106,0.213,0.229,0.213
			c0.178,0,0.292-0.101,0.331-0.205c0.008-0.025,0.011-0.051,0.011-0.071V14.848z"/>
		<path style="fill:#D1D2D3;" d="M39.848,13.676h0.245v1.797h-0.245V13.676z"/>
		<path style="fill:#D1D2D3;" d="M41.514,13.767v1.706h-0.245v-1.706H41.514z"/>
		<path style="fill:#D1D2D3;" d="M42.012,14.58c0-0.129-0.006-0.23-0.011-0.332h0.215l0.011,0.2h0.008
			c0.075-0.116,0.201-0.225,0.426-0.225c0.181,0,0.32,0.101,0.379,0.246h0.005c0.042-0.071,0.097-0.122,0.153-0.16
			c0.081-0.056,0.167-0.086,0.295-0.086c0.181,0,0.446,0.106,0.446,0.532v0.719H43.7v-0.691c0-0.238-0.097-0.377-0.292-0.377
			c-0.142,0-0.248,0.094-0.292,0.2c-0.011,0.033-0.019,0.071-0.019,0.111v0.757h-0.24v-0.734c0-0.195-0.095-0.334-0.281-0.334
			c-0.15,0-0.265,0.111-0.304,0.223c-0.014,0.03-0.019,0.071-0.019,0.109v0.737h-0.239V14.58z"/>
		<path style="fill:#D1D2D3;" d="M45.366,15.18c0,0.106,0.006,0.21,0.02,0.294h-0.22l-0.02-0.155h-0.008
			c-0.075,0.096-0.22,0.182-0.412,0.182c-0.273,0-0.412-0.175-0.412-0.352c0-0.296,0.29-0.458,0.81-0.456v-0.025
			c0-0.099-0.031-0.283-0.306-0.281c-0.128,0-0.259,0.033-0.354,0.091l-0.056-0.149c0.111-0.063,0.276-0.106,0.446-0.106
			c0.412,0,0.513,0.256,0.513,0.499V15.18z M45.129,14.848c-0.267-0.005-0.571,0.038-0.571,0.276c0,0.147,0.106,0.213,0.228,0.213
			c0.178,0,0.292-0.101,0.331-0.205c0.008-0.025,0.011-0.051,0.011-0.071V14.848z"/>
		<path style="fill:#D1D2D3;" d="M46.998,15.294c0,0.283-0.064,0.453-0.192,0.562c-0.134,0.109-0.323,0.147-0.493,0.147
			c-0.162,0-0.34-0.035-0.448-0.101l0.061-0.172c0.089,0.053,0.228,0.099,0.395,0.099c0.251,0,0.435-0.119,0.435-0.43v-0.134H46.75
			c-0.072,0.114-0.22,0.205-0.429,0.205c-0.334,0-0.574-0.258-0.574-0.597c0-0.415,0.298-0.648,0.61-0.648
			c0.234,0,0.359,0.109,0.421,0.21h0.006l0.008-0.185h0.217c-0.008,0.086-0.011,0.187-0.011,0.334V15.294z M46.753,14.732
			c0-0.038-0.003-0.071-0.014-0.099c-0.045-0.132-0.161-0.238-0.343-0.238c-0.234,0-0.401,0.18-0.401,0.463
			c0,0.24,0.136,0.44,0.398,0.44c0.153,0,0.29-0.086,0.34-0.228c0.014-0.038,0.02-0.081,0.02-0.119V14.732z"/>
		<path style="fill:#D1D2D3;" d="M47.758,13.904c0,0.076-0.059,0.137-0.156,0.137c-0.089,0-0.148-0.061-0.148-0.137
			c0-0.076,0.061-0.139,0.153-0.139C47.697,13.765,47.758,13.826,47.758,13.904z M47.485,15.473v-1.225h0.245v1.225H47.485z"/>
		<path style="fill:#D1D2D3;" d="M48.22,14.58c0-0.129-0.003-0.23-0.011-0.332h0.217l0.014,0.203h0.005
			c0.067-0.114,0.223-0.228,0.446-0.228c0.186,0,0.476,0.101,0.476,0.521v0.729h-0.245v-0.706c0-0.197-0.081-0.362-0.312-0.362
			c-0.159,0-0.284,0.104-0.329,0.228c-0.011,0.028-0.017,0.066-0.017,0.104v0.737H48.22V14.58z"/>
		<path style="fill:#D1D2D3;" d="M51.003,15.294c0,0.283-0.064,0.453-0.192,0.562c-0.134,0.109-0.323,0.147-0.493,0.147
			c-0.161,0-0.34-0.035-0.448-0.101l0.061-0.172c0.089,0.053,0.228,0.099,0.396,0.099c0.251,0,0.435-0.119,0.435-0.43v-0.134h-0.006
			c-0.072,0.114-0.22,0.205-0.429,0.205c-0.334,0-0.574-0.258-0.574-0.597c0-0.415,0.298-0.648,0.61-0.648
			c0.234,0,0.359,0.109,0.421,0.21h0.005l0.008-0.185h0.217c-0.008,0.086-0.011,0.187-0.011,0.334V15.294z M50.757,14.732
			c0-0.038-0.003-0.071-0.014-0.099c-0.044-0.132-0.162-0.238-0.343-0.238c-0.234,0-0.401,0.18-0.401,0.463
			c0,0.24,0.137,0.44,0.398,0.44c0.153,0,0.29-0.086,0.34-0.228c0.014-0.038,0.02-0.081,0.02-0.119V14.732z"/>
		<path style="fill:#D1D2D3;" d="M52.141,15.205c0.109,0.063,0.265,0.111,0.432,0.111c0.248,0,0.393-0.119,0.393-0.291
			c0-0.157-0.1-0.251-0.354-0.337c-0.306-0.101-0.496-0.248-0.496-0.486c0-0.266,0.242-0.463,0.607-0.463
			c0.189,0,0.332,0.04,0.412,0.083l-0.067,0.18c-0.059-0.033-0.184-0.081-0.354-0.081c-0.256,0-0.354,0.139-0.354,0.256
			c0,0.16,0.114,0.238,0.373,0.329c0.318,0.111,0.476,0.25,0.476,0.501c0,0.263-0.212,0.493-0.654,0.493
			c-0.181,0-0.379-0.051-0.479-0.111L52.141,15.205z"/>
		<path style="fill:#D1D2D3;" d="M53.629,13.793c0.148-0.023,0.323-0.038,0.515-0.038c0.348,0,0.596,0.076,0.761,0.213
			c0.17,0.139,0.267,0.337,0.267,0.613c0,0.278-0.097,0.506-0.27,0.663c-0.178,0.16-0.468,0.246-0.833,0.246
			c-0.176,0-0.318-0.008-0.44-0.02V13.793z M53.871,15.301c0.061,0.008,0.15,0.01,0.245,0.01c0.521,0,0.799-0.263,0.799-0.724
			c0.003-0.402-0.248-0.658-0.76-0.658c-0.126,0-0.22,0.01-0.284,0.023V15.301z"/>
		<path style="fill:#D1D2D3;" d="M55.567,13.767h0.242v0.823h0.008c0.05-0.066,0.1-0.127,0.148-0.182l0.574-0.64h0.301l-0.68,0.724
			l0.733,0.982h-0.287l-0.616-0.838l-0.181,0.187v0.651h-0.242V13.767z"/>
	</g>
</g>
</svg>
